STARTFONT 2.1
COMMENT
COMMENT Converted from OpenType font "Montserrat-ExtraBold.otf" by "otf2bdf 3.0".
COMMENT
FONT -FreeType-Montserrat ExtraBold-Medium-R-Normal--19-180-75-75-P-118-ISO10646-1
SIZE 18 75 75
FONTBOUNDINGBOX 49 26 -17 -5
STARTPROPERTIES 19
FOUNDRY "FreeType"
FAMILY_NAME "Montserrat ExtraBold"
WEIGHT_NAME "Medium"
SLANT "R"
SETWIDTH_NAME "Normal"
ADD_STYLE_NAME ""
PIXEL_SIZE 19
POINT_SIZE 180
RESOLUTION_X 75
RESOLUTION_Y 75
SPACING "P"
AVERAGE_WIDTH 118
CHARSET_REGISTRY "ISO10646"
CHARSET_ENCODING "1"
FONT_ASCENT 18
FONT_DESCENT 4
COPYRIGHT "Copyright 2011 The Montserrat Project Authors (https://github.com/JulietaUla/Montserrat)"
_OTF_FONTFILE "Montserrat-ExtraBold.otf"
_OTF_PSNAME "Montserrat-ExtraBold"
ENDPROPERTIES
CHARS 969
STARTCHAR 0000
ENCODING 0
SWIDTH 0 0
DWIDTH 0 0
BBX 0 0 0 0
BITMAP
ENDCHAR
STARTCHAR 000D
ENCODING 13
SWIDTH 266 0
DWIDTH 5 0
BBX 0 0 0 0
BITMAP
ENDCHAR
STARTCHAR 0020
ENCODING 32
SWIDTH 266 0
DWIDTH 5 0
BBX 0 0 0 0
BITMAP
ENDCHAR
STARTCHAR 0021
ENCODING 33
SWIDTH 320 0
DWIDTH 6 0
BBX 4 13 1 0
BITMAP
F0
F0
F0
F0
F0
E0
E0
E0
00
E0
F0
F0
E0
ENDCHAR
STARTCHAR 0022
ENCODING 34
SWIDTH 480 0
DWIDTH 9 0
BBX 7 5 1 8
BITMAP
EE
EE
EE
EE
EE
ENDCHAR
STARTCHAR 0023
ENCODING 35
SWIDTH 746 0
DWIDTH 14 0
BBX 13 13 0 0
BITMAP
0C60
0C60
0C60
7FF8
7FF8
1CE0
1CE0
1CC0
FFF8
FFF8
18C0
19C0
39C0
ENDCHAR
STARTCHAR 0024
ENCODING 36
SWIDTH 640 0
DWIDTH 12 0
BBX 12 17 0 -2
BITMAP
0600
0600
1FC0
3FE0
7FE0
7040
7800
7F00
3FC0
0FE0
01F0
60F0
7FE0
FFE0
3F80
0600
0600
ENDCHAR
STARTCHAR 0025
ENCODING 37
SWIDTH 906 0
DWIDTH 17 0
BBX 16 13 0 0
BITMAP
3C1C
7E38
6630
E670
66E0
7EC0
3DDE
03BF
0333
0733
0E33
0C3F
1C1E
ENDCHAR
STARTCHAR 0026
ENCODING 38
SWIDTH 746 0
DWIDTH 14 0
BBX 12 13 1 0
BITMAP
1F00
3F80
7B80
7380
7F80
3F00
7E60
FFF0
E3F0
E1E0
FFF0
FFF0
3F20
ENDCHAR
STARTCHAR 0027
ENCODING 39
SWIDTH 266 0
DWIDTH 5 0
BBX 3 5 1 8
BITMAP
E0
E0
E0
E0
E0
ENDCHAR
STARTCHAR 0028
ENCODING 40
SWIDTH 373 0
DWIDTH 7 0
BBX 6 18 1 -4
BITMAP
3C
38
78
70
70
F0
F0
F0
F0
F0
F0
F0
F0
70
70
78
38
3C
ENDCHAR
STARTCHAR 0029
ENCODING 41
SWIDTH 373 0
DWIDTH 7 0
BBX 6 18 0 -4
BITMAP
F0
70
78
78
38
38
3C
3C
3C
3C
3C
3C
38
38
78
78
70
F0
ENDCHAR
STARTCHAR 002A
ENCODING 42
SWIDTH 480 0
DWIDTH 9 0
BBX 8 8 0 6
BITMAP
18
58
FF
7E
7E
FF
58
18
ENDCHAR
STARTCHAR 002B
ENCODING 43
SWIDTH 586 0
DWIDTH 11 0
BBX 9 9 1 2
BITMAP
1C00
1C00
1C00
FF80
FF80
FF80
1C00
1C00
1C00
ENDCHAR
STARTCHAR 002C
ENCODING 44
SWIDTH 266 0
DWIDTH 5 0
BBX 4 7 1 -3
BITMAP
E0
F0
F0
E0
E0
E0
C0
ENDCHAR
STARTCHAR 002D
ENCODING 45
SWIDTH 373 0
DWIDTH 7 0
BBX 5 3 1 4
BITMAP
F8
F8
F8
ENDCHAR
STARTCHAR 002E
ENCODING 46
SWIDTH 266 0
DWIDTH 5 0
BBX 4 4 1 0
BITMAP
E0
F0
F0
E0
ENDCHAR
STARTCHAR 002F
ENCODING 47
SWIDTH 426 0
DWIDTH 8 0
BBX 10 18 -1 -2
BITMAP
03C0
0380
0380
0780
0700
0700
0E00
0E00
0E00
1C00
1C00
1C00
3800
3800
3800
7000
7000
F000
ENDCHAR
STARTCHAR 0030
ENCODING 48
SWIDTH 693 0
DWIDTH 13 0
BBX 11 13 1 0
BITMAP
1F00
3F80
7FC0
F1E0
F1E0
E1E0
E1E0
E1E0
F1E0
F1E0
7FC0
3F80
1F00
ENDCHAR
STARTCHAR 0031
ENCODING 49
SWIDTH 426 0
DWIDTH 8 0
BBX 6 13 0 0
BITMAP
FC
FC
FC
1C
1C
1C
1C
1C
1C
1C
1C
1C
1C
ENDCHAR
STARTCHAR 0032
ENCODING 50
SWIDTH 586 0
DWIDTH 11 0
BBX 11 13 0 0
BITMAP
1F00
7F80
FFC0
63C0
01C0
03C0
07C0
0F80
1E00
3C00
7FE0
7FE0
7FE0
ENDCHAR
STARTCHAR 0033
ENCODING 51
SWIDTH 586 0
DWIDTH 11 0
BBX 11 13 0 0
BITMAP
7FC0
7FC0
7FC0
0780
0F00
1F80
1FC0
07E0
01E0
41E0
7FC0
FFC0
3F00
ENDCHAR
STARTCHAR 0034
ENCODING 52
SWIDTH 693 0
DWIDTH 13 0
BBX 12 13 1 0
BITMAP
0780
0F00
0F00
1E00
3C00
3C00
79C0
F1C0
FFF0
FFF0
FFF0
03C0
03C0
ENDCHAR
STARTCHAR 0035
ENCODING 53
SWIDTH 586 0
DWIDTH 11 0
BBX 11 13 0 0
BITMAP
3FC0
3FC0
3FC0
7800
7800
7F80
7FC0
7FE0
01E0
41E0
7FE0
FFC0
3F00
ENDCHAR
STARTCHAR 0036
ENCODING 54
SWIDTH 640 0
DWIDTH 12 0
BBX 11 13 1 0
BITMAP
0FC0
3FC0
7FC0
F800
F000
EF80
FFC0
FFE0
F1E0
F1E0
7FC0
7FC0
1F00
ENDCHAR
STARTCHAR 0037
ENCODING 55
SWIDTH 640 0
DWIDTH 12 0
BBX 11 13 0 0
BITMAP
FFE0
FFE0
FFE0
F1E0
F3C0
03C0
0780
0780
0780
0F00
0F00
1E00
1E00
ENDCHAR
STARTCHAR 0038
ENCODING 56
SWIDTH 693 0
DWIDTH 13 0
BBX 11 13 1 0
BITMAP
3F00
7FC0
FFC0
F1C0
F1C0
7FC0
7FC0
FBE0
E1E0
E1E0
FFE0
7FC0
3F00
ENDCHAR
STARTCHAR 0039
ENCODING 57
SWIDTH 640 0
DWIDTH 12 0
BBX 12 13 0 0
BITMAP
1F00
7FC0
7FE0
F1E0
F1E0
7FF0
7FF0
1EE0
01E0
03E0
7FC0
7F80
3E00
ENDCHAR
STARTCHAR 003A
ENCODING 58
SWIDTH 266 0
DWIDTH 5 0
BBX 4 10 1 0
BITMAP
E0
F0
F0
E0
00
00
E0
F0
F0
E0
ENDCHAR
STARTCHAR 003B
ENCODING 59
SWIDTH 266 0
DWIDTH 5 0
BBX 4 13 1 -3
BITMAP
E0
F0
F0
E0
00
00
60
F0
F0
F0
60
E0
C0
ENDCHAR
STARTCHAR 003C
ENCODING 60
SWIDTH 586 0
DWIDTH 11 0
BBX 9 9 1 2
BITMAP
0080
0780
1F80
FE00
F000
F800
7F00
1F80
0380
ENDCHAR
STARTCHAR 003D
ENCODING 61
SWIDTH 586 0
DWIDTH 11 0
BBX 9 7 1 3
BITMAP
FF80
FF80
FF80
0000
FF80
FF80
FF80
ENDCHAR
STARTCHAR 003E
ENCODING 62
SWIDTH 586 0
DWIDTH 11 0
BBX 9 10 1 2
BITMAP
8000
F000
FE00
3F80
0780
0F80
7F80
FC00
E000
8000
ENDCHAR
STARTCHAR 003F
ENCODING 63
SWIDTH 586 0
DWIDTH 11 0
BBX 10 13 0 0
BITMAP
1F00
7FC0
FFC0
63C0
01C0
03C0
0780
0F00
0000
0E00
0F00
0F00
0E00
ENDCHAR
STARTCHAR 0040
ENCODING 64
SWIDTH 1013 0
DWIDTH 19 0
BBX 18 17 1 -4
BITMAP
07F000
1FFC00
3C0F00
700700
63FF80
E7FD80
CFFDC0
CE3CC0
CE1CC0
CE3DC0
CFFD80
E7FF80
73CF00
780000
3C1800
1FF800
03F000
ENDCHAR
STARTCHAR 0041
ENCODING 65
SWIDTH 800 0
DWIDTH 15 0
BBX 15 13 0 0
BITMAP
0780
07C0
0FC0
0FE0
0EE0
1EF0
1CF0
3C78
3FF8
7FF8
7FFC
F03C
F01E
ENDCHAR
STARTCHAR 0042
ENCODING 66
SWIDTH 746 0
DWIDTH 14 0
BBX 13 13 1 0
BITMAP
FFC0
FFE0
FFF0
F0F0
F0F0
FFE0
FFE0
FFF0
F078
F078
FFF8
FFF0
FFE0
ENDCHAR
STARTCHAR 0043
ENCODING 67
SWIDTH 746 0
DWIDTH 14 0
BBX 12 13 1 0
BITMAP
0FC0
3FF0
7FF0
F860
F000
F000
E000
F000
F000
F860
7FF0
3FF0
0FC0
ENDCHAR
STARTCHAR 0044
ENCODING 68
SWIDTH 800 0
DWIDTH 15 0
BBX 14 13 1 0
BITMAP
FFC0
FFE0
FFF8
F078
F03C
F03C
F03C
F03C
F03C
F078
FFF8
FFE0
FFC0
ENDCHAR
STARTCHAR 0045
ENCODING 69
SWIDTH 693 0
DWIDTH 13 0
BBX 11 13 1 0
BITMAP
FFE0
FFE0
FFE0
F000
F000
FFC0
FFC0
FFC0
F000
F000
FFE0
FFE0
FFE0
ENDCHAR
STARTCHAR 0046
ENCODING 70
SWIDTH 640 0
DWIDTH 12 0
BBX 11 13 1 0
BITMAP
FFE0
FFE0
FFE0
F000
F000
F000
FFC0
FFC0
FFC0
F000
F000
F000
F000
ENDCHAR
STARTCHAR 0047
ENCODING 71
SWIDTH 746 0
DWIDTH 14 0
BBX 12 13 1 0
BITMAP
0FC0
3FF0
7FF0
F860
F000
F000
E070
F070
F070
F870
7FF0
3FF0
0FC0
ENDCHAR
STARTCHAR 0048
ENCODING 72
SWIDTH 800 0
DWIDTH 15 0
BBX 13 13 1 0
BITMAP
F078
F078
F078
F078
F078
FFF8
FFF8
FFF8
F078
F078
F078
F078
F078
ENDCHAR
STARTCHAR 0049
ENCODING 73
SWIDTH 320 0
DWIDTH 6 0
BBX 4 13 1 0
BITMAP
F0
F0
F0
F0
F0
F0
F0
F0
F0
F0
F0
F0
F0
ENDCHAR
STARTCHAR 004A
ENCODING 74
SWIDTH 533 0
DWIDTH 10 0
BBX 9 13 0 0
BITMAP
7F80
7F80
7F80
0380
0380
0380
0380
0380
0380
4780
FF80
FF00
3E00
ENDCHAR
STARTCHAR 004B
ENCODING 75
SWIDTH 746 0
DWIDTH 14 0
BBX 13 13 1 0
BITMAP
F078
F0F0
F1E0
F3C0
F780
FF00
FF00
FF80
FBC0
F3E0
F1E0
F0F0
F078
ENDCHAR
STARTCHAR 004C
ENCODING 76
SWIDTH 586 0
DWIDTH 11 0
BBX 10 13 1 0
BITMAP
F000
F000
F000
F000
F000
F000
F000
F000
F000
F000
FFC0
FFC0
FFC0
ENDCHAR
STARTCHAR 004D
ENCODING 77
SWIDTH 960 0
DWIDTH 18 0
BBX 16 13 1 0
BITMAP
F00F
F00F
F81F
FC3F
FC3F
FE7F
FE7F
FFEF
F7EF
F3CF
F38F
F18F
F00F
ENDCHAR
STARTCHAR 004E
ENCODING 78
SWIDTH 800 0
DWIDTH 15 0
BBX 13 13 1 0
BITMAP
F078
F878
F878
FC78
FE78
FF78
FFF8
F7F8
F3F8
F1F8
F0F8
F0F8
F078
ENDCHAR
STARTCHAR 004F
ENCODING 79
SWIDTH 853 0
DWIDTH 16 0
BBX 14 13 1 0
BITMAP
0FC0
3FF0
7FF8
F878
F03C
F03C
E03C
F03C
F03C
F878
7FF8
3FF0
0FC0
ENDCHAR
STARTCHAR 0050
ENCODING 80
SWIDTH 746 0
DWIDTH 14 0
BBX 12 13 1 0
BITMAP
FF80
FFE0
FFF0
F0F0
F0F0
F0F0
F0F0
FFF0
FFE0
FF80
F000
F000
F000
ENDCHAR
STARTCHAR 0051
ENCODING 81
SWIDTH 853 0
DWIDTH 16 0
BBX 15 16 1 -3
BITMAP
0FC0
3FF0
7FF8
F878
F03C
F03C
E03C
E03C
F03C
F87C
7FF8
3FF0
0FC0
03FC
01FE
0078
ENDCHAR
STARTCHAR 0052
ENCODING 82
SWIDTH 746 0
DWIDTH 14 0
BBX 12 13 1 0
BITMAP
FF80
FFE0
FFF0
F0F0
F0F0
F0F0
F0F0
FFF0
FFE0
FFC0
F1E0
F1E0
F0F0
ENDCHAR
STARTCHAR 0053
ENCODING 83
SWIDTH 640 0
DWIDTH 12 0
BBX 12 13 0 0
BITMAP
1FC0
3FE0
7FE0
7040
7800
7F00
3FE0
0FE0
01F0
60F0
7FE0
FFE0
3F80
ENDCHAR
STARTCHAR 0054
ENCODING 84
SWIDTH 640 0
DWIDTH 12 0
BBX 12 13 0 0
BITMAP
FFF0
FFF0
FFF0
0F00
0F00
0F00
0F00
0F00
0F00
0F00
0F00
0F00
0F00
ENDCHAR
STARTCHAR 0055
ENCODING 85
SWIDTH 800 0
DWIDTH 15 0
BBX 13 13 1 0
BITMAP
F078
F078
F078
F078
F078
F078
F078
F078
F070
78F0
7FF0
3FE0
1F80
ENDCHAR
STARTCHAR 0056
ENCODING 86
SWIDTH 746 0
DWIDTH 14 0
BBX 14 13 0 0
BITMAP
F01C
F03C
783C
7878
3C78
3C70
1CF0
1EE0
1FE0
0FE0
0FC0
07C0
0780
ENDCHAR
STARTCHAR 0057
ENCODING 87
SWIDTH 1173 0
DWIDTH 22 0
BBX 22 13 0 0
BITMAP
F0783C
787838
787C38
78FC78
3CFC70
3CFE70
3DEEF0
1FCEE0
1FCFE0
1FC7E0
0F87C0
0F87C0
0F87C0
ENDCHAR
STARTCHAR 0058
ENCODING 88
SWIDTH 746 0
DWIDTH 14 0
BBX 14 13 0 0
BITMAP
7878
7870
3CF0
1FE0
1FC0
0FC0
0780
0FC0
1FE0
1FE0
3CF0
7878
F87C
ENDCHAR
STARTCHAR 0059
ENCODING 89
SWIDTH 693 0
DWIDTH 13 0
BBX 13 13 0 0
BITMAP
F078
7070
78F0
3CE0
3DE0
1FC0
0F80
0F80
0700
0700
0700
0700
0700
ENDCHAR
STARTCHAR 005A
ENCODING 90
SWIDTH 693 0
DWIDTH 13 0
BBX 11 13 1 0
BITMAP
FFE0
FFE0
FFE0
03C0
0780
0F00
1F00
3E00
3C00
7800
FFE0
FFE0
FFE0
ENDCHAR
STARTCHAR 005B
ENCODING 91
SWIDTH 373 0
DWIDTH 7 0
BBX 6 18 1 -4
BITMAP
FC
FC
FC
F0
F0
F0
F0
F0
F0
F0
F0
F0
F0
F0
F0
FC
FC
FC
ENDCHAR
STARTCHAR 005C
ENCODING 92
SWIDTH 426 0
DWIDTH 8 0
BBX 9 18 -1 -2
BITMAP
E000
7000
7000
7000
3800
3800
3800
1C00
1C00
1C00
0E00
0E00
0F00
0700
0700
0780
0380
0380
ENDCHAR
STARTCHAR 005D
ENCODING 93
SWIDTH 373 0
DWIDTH 7 0
BBX 6 18 0 -4
BITMAP
FC
FC
FC
3C
3C
3C
3C
3C
3C
3C
3C
3C
3C
3C
3C
FC
FC
FC
ENDCHAR
STARTCHAR 005E
ENCODING 94
SWIDTH 586 0
DWIDTH 11 0
BBX 9 8 1 2
BITMAP
1C00
1E00
3E00
3700
7700
7380
E380
E180
ENDCHAR
STARTCHAR 005F
ENCODING 95
SWIDTH 480 0
DWIDTH 9 0
BBX 9 2 0 -2
BITMAP
FF80
FF80
ENDCHAR
STARTCHAR 0060
ENCODING 96
SWIDTH 586 0
DWIDTH 11 0
BBX 5 3 2 11
BITMAP
E0
70
38
ENDCHAR
STARTCHAR 0061
ENCODING 97
SWIDTH 640 0
DWIDTH 12 0
BBX 10 10 1 0
BITMAP
7E00
FF80
7F80
03C0
3FC0
FFC0
E3C0
E7C0
FFC0
7BC0
ENDCHAR
STARTCHAR 0062
ENCODING 98
SWIDTH 693 0
DWIDTH 13 0
BBX 11 14 1 0
BITMAP
F000
F000
F000
F000
FF80
FFC0
FFE0
F1E0
F0E0
F0E0
F1E0
FFE0
FFC0
FF80
ENDCHAR
STARTCHAR 0063
ENCODING 99
SWIDTH 586 0
DWIDTH 11 0
BBX 10 10 1 0
BITMAP
1F00
7F80
FFC0
F180
E000
E000
F180
FFC0
7F80
1F00
ENDCHAR
STARTCHAR 0064
ENCODING 100
SWIDTH 693 0
DWIDTH 13 0
BBX 11 14 1 0
BITMAP
01E0
01E0
01E0
01E0
3FE0
7FE0
FFE0
F1E0
E1E0
E1E0
F1E0
FFE0
7FE0
3EE0
ENDCHAR
STARTCHAR 0065
ENCODING 101
SWIDTH 640 0
DWIDTH 12 0
BBX 11 10 1 0
BITMAP
1F00
7F80
FFC0
E1C0
FFE0
FFE0
E000
FF80
7FC0
1F00
ENDCHAR
STARTCHAR 0066
ENCODING 102
SWIDTH 426 0
DWIDTH 8 0
BBX 8 14 0 0
BITMAP
1F
3F
3E
38
FE
FE
FE
38
38
38
38
38
38
38
ENDCHAR
STARTCHAR 0067
ENCODING 103
SWIDTH 693 0
DWIDTH 13 0
BBX 11 14 1 -4
BITMAP
3EE0
7FE0
FFE0
F1E0
E0E0
E1E0
F1E0
FFE0
7FE0
1DE0
41E0
7FC0
FFC0
3F00
ENDCHAR
STARTCHAR 0068
ENCODING 104
SWIDTH 693 0
DWIDTH 13 0
BBX 11 14 1 0
BITMAP
F000
F000
F000
F000
F780
FFC0
FFE0
F1E0
F1E0
F1E0
F1E0
F1E0
F1E0
F1E0
ENDCHAR
STARTCHAR 0069
ENCODING 105
SWIDTH 320 0
DWIDTH 6 0
BBX 4 15 1 0
BITMAP
E0
F0
F0
60
00
F0
F0
F0
F0
F0
F0
F0
F0
F0
F0
ENDCHAR
STARTCHAR 006A
ENCODING 106
SWIDTH 320 0
DWIDTH 6 0
BBX 7 19 -2 -4
BITMAP
0E
1E
1E
0C
00
1E
1E
1E
1E
1E
1E
1E
1E
1E
1E
1E
7E
7C
F8
ENDCHAR
STARTCHAR 006B
ENCODING 107
SWIDTH 693 0
DWIDTH 13 0
BBX 12 14 1 0
BITMAP
F000
F000
F000
F000
F1E0
F3C0
F780
FF00
FF00
FF00
FF80
F3C0
F3E0
F1F0
ENDCHAR
STARTCHAR 006C
ENCODING 108
SWIDTH 320 0
DWIDTH 6 0
BBX 4 14 1 0
BITMAP
F0
F0
F0
F0
F0
F0
F0
F0
F0
F0
F0
F0
F0
F0
ENDCHAR
STARTCHAR 006D
ENCODING 109
SWIDTH 1066 0
DWIDTH 20 0
BBX 17 10 1 0
BITMAP
FF9F00
FFFF80
FFFF80
F1E780
F1E380
F1E380
F1E380
F1E380
F1E380
F1E380
ENDCHAR
STARTCHAR 006E
ENCODING 110
SWIDTH 693 0
DWIDTH 13 0
BBX 11 10 1 0
BITMAP
F780
FFC0
FFE0
F1E0
F1E0
F1E0
F1E0
F1E0
F1E0
F1E0
ENDCHAR
STARTCHAR 006F
ENCODING 111
SWIDTH 640 0
DWIDTH 12 0
BBX 11 10 1 0
BITMAP
1F00
7F80
FFC0
F1E0
E1E0
E1E0
F1E0
FFC0
7F80
1F00
ENDCHAR
STARTCHAR 0070
ENCODING 112
SWIDTH 693 0
DWIDTH 13 0
BBX 12 14 1 -4
BITMAP
FF80
FFC0
FFE0
F1E0
F0F0
F0E0
F1E0
FFE0
FFC0
FF80
F000
F000
F000
F000
ENDCHAR
STARTCHAR 0071
ENCODING 113
SWIDTH 693 0
DWIDTH 13 0
BBX 11 14 1 -4
BITMAP
3FE0
7FE0
FFE0
F1E0
E1E0
E1E0
F1E0
FFE0
7FE0
3FE0
01E0
01E0
01E0
01E0
ENDCHAR
STARTCHAR 0072
ENCODING 114
SWIDTH 426 0
DWIDTH 8 0
BBX 7 10 1 0
BITMAP
F6
FE
FE
F0
F0
F0
F0
F0
F0
F0
ENDCHAR
STARTCHAR 0073
ENCODING 115
SWIDTH 533 0
DWIDTH 10 0
BBX 9 10 1 0
BITMAP
3F00
FF00
FF00
E000
FE00
7F00
0780
FF80
FF00
7E00
ENDCHAR
STARTCHAR 0074
ENCODING 116
SWIDTH 426 0
DWIDTH 8 0
BBX 8 13 0 0
BITMAP
38
38
38
FE
FE
FE
38
38
38
38
3E
3F
1F
ENDCHAR
STARTCHAR 0075
ENCODING 117
SWIDTH 693 0
DWIDTH 13 0
BBX 11 10 1 0
BITMAP
F1E0
F1E0
F1E0
F1E0
F1E0
F1E0
F1E0
FFE0
7FE0
3DE0
ENDCHAR
STARTCHAR 0076
ENCODING 118
SWIDTH 640 0
DWIDTH 12 0
BBX 12 10 0 0
BITMAP
F0F0
F0E0
71E0
79C0
39C0
3FC0
1F80
1F80
1F00
0F00
ENDCHAR
STARTCHAR 0077
ENCODING 119
SWIDTH 960 0
DWIDTH 18 0
BBX 18 10 0 0
BITMAP
E1E1C0
F1E380
71E380
7BF380
3BF700
3BF700
3F3F00
1F3E00
1F3E00
1E1E00
ENDCHAR
STARTCHAR 0078
ENCODING 120
SWIDTH 640 0
DWIDTH 12 0
BBX 11 10 0 0
BITMAP
F1E0
79C0
3FC0
1F80
1F00
1F00
1F80
3FC0
79E0
F1E0
ENDCHAR
STARTCHAR 0079
ENCODING 121
SWIDTH 640 0
DWIDTH 12 0
BBX 12 14 0 -4
BITMAP
F0F0
F0E0
71E0
79C0
39C0
3FC0
1F80
1F80
1F00
0F00
0E00
7E00
FC00
7800
ENDCHAR
STARTCHAR 007A
ENCODING 122
SWIDTH 533 0
DWIDTH 10 0
BBX 9 10 1 0
BITMAP
FF80
FF80
FF00
0F00
1E00
3C00
7800
FF80
FF80
FF80
ENDCHAR
STARTCHAR 007B
ENCODING 123
SWIDTH 426 0
DWIDTH 8 0
BBX 7 18 1 -4
BITMAP
1E
3E
7E
78
78
78
78
78
F8
F0
F8
78
78
78
78
7E
3E
1E
ENDCHAR
STARTCHAR 007C
ENCODING 124
SWIDTH 320 0
DWIDTH 6 0
BBX 4 18 1 -4
BITMAP
F0
F0
F0
F0
F0
F0
F0
F0
F0
F0
F0
F0
F0
F0
F0
F0
F0
F0
ENDCHAR
STARTCHAR 007D
ENCODING 125
SWIDTH 426 0
DWIDTH 8 0
BBX 7 18 0 -4
BITMAP
F0
F8
F8
38
38
38
38
38
3E
1E
3E
38
38
38
38
F8
F8
F0
ENDCHAR
STARTCHAR 007E
ENCODING 126
SWIDTH 586 0
DWIDTH 11 0
BBX 10 5 1 4
BITMAP
2000
79C0
FF80
CF80
0200
ENDCHAR
STARTCHAR 00A0
ENCODING 160
SWIDTH 266 0
DWIDTH 5 0
BBX 0 0 0 0
BITMAP
ENDCHAR
STARTCHAR 00A1
ENCODING 161
SWIDTH 320 0
DWIDTH 6 0
BBX 4 13 1 -3
BITMAP
E0
F0
F0
E0
00
E0
E0
E0
F0
F0
F0
F0
F0
ENDCHAR
STARTCHAR 00A2
ENCODING 162
SWIDTH 586 0
DWIDTH 11 0
BBX 10 14 1 -2
BITMAP
0C00
0C00
3F00
7FC0
FFC0
E100
E000
E000
F100
FFC0
7F80
3F00
0C00
0C00
ENDCHAR
STARTCHAR 00A3
ENCODING 163
SWIDTH 693 0
DWIDTH 13 0
BBX 11 13 1 0
BITMAP
07E0
1FE0
3FE0
3C20
7800
7800
FF80
FF80
7800
7800
FFE0
FFE0
FFE0
ENDCHAR
STARTCHAR 00A4
ENCODING 164
SWIDTH 693 0
DWIDTH 13 0
BBX 11 12 1 0
BITMAP
4040
FEE0
FFE0
7FC0
71C0
70C0
70C0
71C0
7FC0
FFE0
EEE0
4040
ENDCHAR
STARTCHAR 00A5
ENCODING 165
SWIDTH 746 0
DWIDTH 14 0
BBX 14 13 0 0
BITMAP
F03C
7838
7878
3CF0
1EE0
1FE0
0FC0
3FF0
3FF0
0780
3FF0
3FF0
0780
ENDCHAR
STARTCHAR 00A6
ENCODING 166
SWIDTH 320 0
DWIDTH 6 0
BBX 4 18 1 -4
BITMAP
F0
F0
F0
F0
F0
F0
F0
00
00
00
00
F0
F0
F0
F0
F0
F0
F0
ENDCHAR
STARTCHAR 00A7
ENCODING 167
SWIDTH 533 0
DWIDTH 10 0
BBX 10 15 0 -2
BITMAP
1F80
3F80
7F80
7000
7E00
7F80
7F80
F3C0
7B80
7F80
1F80
0380
7780
7F80
3E00
ENDCHAR
STARTCHAR 00A8
ENCODING 168
SWIDTH 586 0
DWIDTH 11 0
BBX 7 3 2 11
BITMAP
EE
EE
6E
ENDCHAR
STARTCHAR 00A9
ENCODING 169
SWIDTH 800 0
DWIDTH 15 0
BBX 13 13 1 0
BITMAP
0F80
39C0
6060
CFB0
DFD8
9D98
B818
9818
DFD8
CFB0
6070
39E0
0F80
ENDCHAR
STARTCHAR 00AA
ENCODING 170
SWIDTH 426 0
DWIDTH 8 0
BBX 7 6 0 8
BITMAP
7C
7E
7E
E6
EE
76
ENDCHAR
STARTCHAR 00AB
ENCODING 171
SWIDTH 586 0
DWIDTH 11 0
BBX 10 7 1 2
BITMAP
3BC0
7380
F700
EF00
E700
7780
3B80
ENDCHAR
STARTCHAR 00AC
ENCODING 172
SWIDTH 586 0
DWIDTH 11 0
BBX 9 6 1 2
BITMAP
FF80
FF80
FF80
0380
0380
0380
ENDCHAR
STARTCHAR 00AD
ENCODING 173
SWIDTH 373 0
DWIDTH 7 0
BBX 5 3 1 4
BITMAP
F8
F8
F8
ENDCHAR
STARTCHAR 00AE
ENCODING 174
SWIDTH 800 0
DWIDTH 15 0
BBX 13 13 1 0
BITMAP
0F80
39E0
6030
DFB0
DFD8
9DD8
9FD8
9F98
DD98
DDF0
6060
39C0
0F80
ENDCHAR
STARTCHAR 00AF
ENCODING 175
SWIDTH 586 0
DWIDTH 11 0
BBX 7 2 2 12
BITMAP
FE
FE
ENDCHAR
STARTCHAR 00B0
ENCODING 176
SWIDTH 426 0
DWIDTH 8 0
BBX 6 7 1 6
BITMAP
78
FC
CC
8C
CC
FC
30
ENDCHAR
STARTCHAR 00B1
ENCODING 177
SWIDTH 586 0
DWIDTH 11 0
BBX 9 13 1 0
BITMAP
1C00
1C00
1C00
FF80
FF80
FF80
1C00
1C00
1C00
0000
FF80
FF80
FF80
ENDCHAR
STARTCHAR 00B2
ENCODING 178
SWIDTH 426 0
DWIDTH 8 0
BBX 7 8 0 6
BITMAP
3C
FE
06
0E
1C
38
7E
7E
ENDCHAR
STARTCHAR 00B3
ENCODING 179
SWIDTH 426 0
DWIDTH 8 0
BBX 7 8 1 6
BITMAP
FC
FC
38
3C
3C
0E
FC
F8
ENDCHAR
STARTCHAR 00B4
ENCODING 180
SWIDTH 586 0
DWIDTH 11 0
BBX 5 3 4 11
BITMAP
38
70
E0
ENDCHAR
STARTCHAR 00B5
ENCODING 181
SWIDTH 693 0
DWIDTH 13 0
BBX 11 14 1 -4
BITMAP
F1E0
F1E0
F1E0
F1E0
F1E0
F1E0
F1E0
FFE0
FFE0
FEE0
F000
F000
F000
F000
ENDCHAR
STARTCHAR 00B6
ENCODING 182
SWIDTH 693 0
DWIDTH 13 0
BBX 12 16 0 -2
BITMAP
3FF0
7FF0
FE70
FE70
FE70
7E70
7E70
0E70
0E70
0E70
0E70
0E70
0E70
0E70
0E70
0E70
ENDCHAR
STARTCHAR 00B7
ENCODING 183
SWIDTH 320 0
DWIDTH 6 0
BBX 4 4 1 3
BITMAP
F0
F0
F0
60
ENDCHAR
STARTCHAR 00B8
ENCODING 184
SWIDTH 586 0
DWIDTH 11 0
BBX 5 5 3 -5
BITMAP
20
70
18
F8
60
ENDCHAR
STARTCHAR 00B9
ENCODING 185
SWIDTH 426 0
DWIDTH 8 0
BBX 6 8 1 6
BITMAP
F8
F8
38
38
38
38
FC
FC
ENDCHAR
STARTCHAR 00BA
ENCODING 186
SWIDTH 426 0
DWIDTH 8 0
BBX 8 6 0 8
BITMAP
3C
7E
E7
E7
7E
3C
ENDCHAR
STARTCHAR 00BB
ENCODING 187
SWIDTH 586 0
DWIDTH 11 0
BBX 10 7 1 2
BITMAP
EE00
F700
7380
3BC0
7B80
7700
EF00
ENDCHAR
STARTCHAR 00BC
ENCODING 188
SWIDTH 1066 0
DWIDTH 20 0
BBX 18 13 1 0
BITMAP
F80C00
F81C00
383800
383000
387000
38E380
FCC700
FD8600
038E00
071D80
061FC0
0E1FC0
1C0180
ENDCHAR
STARTCHAR 00BD
ENCODING 189
SWIDTH 1066 0
DWIDTH 20 0
BBX 18 13 1 0
BITMAP
F80C00
F81C00
383800
383000
387000
38EF00
FCDF80
FD89C0
0381C0
070380
060700
0E1FC0
1C1FC0
ENDCHAR
STARTCHAR 00BE
ENCODING 190
SWIDTH 1066 0
DWIDTH 20 0
BBX 18 13 1 0
BITMAP
FC0C00
FC1C00
383800
3C3000
3C7000
0EE380
FCC700
F98600
038C00
071D80
061FC0
0E1FC0
1C0180
ENDCHAR
STARTCHAR 00BF
ENCODING 191
SWIDTH 586 0
DWIDTH 11 0
BBX 10 13 1 -3
BITMAP
1C00
3E00
3E00
1C00
0000
1C00
3C00
7800
F000
F180
FFC0
FF80
3F00
ENDCHAR
STARTCHAR 00C0
ENCODING 192
SWIDTH 800 0
DWIDTH 15 0
BBX 15 17 0 0
BITMAP
0E00
0700
0380
0000
0780
07C0
0FC0
0FE0
0EE0
1EF0
1CF0
3C78
3FF8
7FF8
7FFC
F03C
F01E
ENDCHAR
STARTCHAR 00C1
ENCODING 193
SWIDTH 800 0
DWIDTH 15 0
BBX 15 17 0 0
BITMAP
00E0
01C0
0380
0000
0780
07C0
0FC0
0FE0
0EE0
1EF0
1CF0
3C78
3FF8
7FF8
7FFC
F03C
F01E
ENDCHAR
STARTCHAR 00C2
ENCODING 194
SWIDTH 800 0
DWIDTH 15 0
BBX 15 17 0 0
BITMAP
0380
07C0
0CE0
0000
0780
07C0
0FC0
0FE0
0EE0
1EF0
1CF0
3C78
3FF8
7FF8
7FFC
F03C
F01E
ENDCHAR
STARTCHAR 00C3
ENCODING 195
SWIDTH 800 0
DWIDTH 15 0
BBX 15 17 0 0
BITMAP
0E60
0FE0
09C0
0000
0780
07C0
0FC0
0FE0
0EE0
1EF0
1CF0
3C78
3FF8
7FF8
7FFC
F03C
F01E
ENDCHAR
STARTCHAR 00C4
ENCODING 196
SWIDTH 800 0
DWIDTH 15 0
BBX 15 17 0 0
BITMAP
0EC0
0EE0
0CC0
0000
0780
07C0
0FC0
0FE0
0EE0
1EF0
1CF0
3C78
3FF8
7FF8
7FFC
F03C
F01E
ENDCHAR
STARTCHAR 00C5
ENCODING 197
SWIDTH 800 0
DWIDTH 15 0
BBX 15 19 0 0
BITMAP
0380
06C0
04C0
06C0
0380
0000
0780
07C0
0FC0
0FE0
0EE0
1EF0
1CF0
3C78
3FF8
7FF8
7FFC
F03C
F01E
ENDCHAR
STARTCHAR 00C6
ENCODING 198
SWIDTH 1120 0
DWIDTH 21 0
BBX 20 13 0 0
BITMAP
01FFF0
03FFF0
03FFF0
07F800
0F7800
0F7FE0
1E7FE0
1E7FE0
3FF800
3FF800
7FFFF0
707FF0
F07FF0
ENDCHAR
STARTCHAR 00C7
ENCODING 199
SWIDTH 746 0
DWIDTH 14 0
BBX 12 18 1 -5
BITMAP
0FC0
3FF0
7FF0
F860
F000
F000
E000
F000
F000
F860
7FF0
3FF0
0FC0
0600
0700
0180
0F00
0400
ENDCHAR
STARTCHAR 00C8
ENCODING 200
SWIDTH 693 0
DWIDTH 13 0
BBX 11 17 1 0
BITMAP
3800
1C00
0E00
0000
FFE0
FFE0
FFE0
F000
F000
FFC0
FFC0
FFC0
F000
F000
FFE0
FFE0
FFE0
ENDCHAR
STARTCHAR 00C9
ENCODING 201
SWIDTH 693 0
DWIDTH 13 0
BBX 11 17 1 0
BITMAP
0380
0700
0E00
0000
FFE0
FFE0
FFE0
F000
F000
FFC0
FFC0
FFC0
F000
F000
FFE0
FFE0
FFE0
ENDCHAR
STARTCHAR 00CA
ENCODING 202
SWIDTH 693 0
DWIDTH 13 0
BBX 11 17 1 0
BITMAP
0E00
1F00
3180
0000
FFE0
FFE0
FFE0
F000
F000
FFC0
FFC0
FFC0
F000
F000
FFE0
FFE0
FFE0
ENDCHAR
STARTCHAR 00CB
ENCODING 203
SWIDTH 693 0
DWIDTH 13 0
BBX 11 17 1 0
BITMAP
3B80
3B80
3B80
0000
FFE0
FFE0
FFE0
F000
F000
FFC0
FFC0
FFC0
F000
F000
FFE0
FFE0
FFE0
ENDCHAR
STARTCHAR 00CC
ENCODING 204
SWIDTH 320 0
DWIDTH 6 0
BBX 6 17 -1 0
BITMAP
F0
38
1C
00
3C
3C
3C
3C
3C
3C
3C
3C
3C
3C
3C
3C
3C
ENDCHAR
STARTCHAR 00CD
ENCODING 205
SWIDTH 320 0
DWIDTH 6 0
BBX 6 17 1 0
BITMAP
1C
38
60
00
F0
F0
F0
F0
F0
F0
F0
F0
F0
F0
F0
F0
F0
ENDCHAR
STARTCHAR 00CE
ENCODING 206
SWIDTH 320 0
DWIDTH 6 0
BBX 7 17 0 0
BITMAP
78
FC
CE
00
78
78
78
78
78
78
78
78
78
78
78
78
78
ENDCHAR
STARTCHAR 00CF
ENCODING 207
SWIDTH 320 0
DWIDTH 6 0
BBX 7 17 0 0
BITMAP
CC
EE
CC
00
78
78
78
78
78
78
78
78
78
78
78
78
78
ENDCHAR
STARTCHAR 00D0
ENCODING 208
SWIDTH 853 0
DWIDTH 16 0
BBX 15 13 0 0
BITMAP
3FE0
3FF8
3FFC
383E
381E
FF1E
FF1E
381E
381E
383C
3FFC
3FF8
3FE0
ENDCHAR
STARTCHAR 00D1
ENCODING 209
SWIDTH 800 0
DWIDTH 15 0
BBX 13 17 1 0
BITMAP
0E40
1FC0
1B80
0000
F078
F878
F878
FC78
FE78
FF78
FFF8
F7F8
F3F8
F1F8
F0F8
F0F8
F078
ENDCHAR
STARTCHAR 00D2
ENCODING 210
SWIDTH 853 0
DWIDTH 16 0
BBX 14 17 1 0
BITMAP
1E00
0E00
0300
0000
0FC0
3FF0
7FF8
F878
F03C
F03C
E03C
F03C
F03C
F878
7FF8
3FF0
0FC0
ENDCHAR
STARTCHAR 00D3
ENCODING 211
SWIDTH 853 0
DWIDTH 16 0
BBX 14 17 1 0
BITMAP
01E0
0380
0300
0000
0FC0
3FF0
7FF8
F878
F03C
F03C
E03C
F03C
F03C
F878
7FF8
3FF0
0FC0
ENDCHAR
STARTCHAR 00D4
ENCODING 212
SWIDTH 853 0
DWIDTH 16 0
BBX 14 17 1 0
BITMAP
0780
0FC0
1CC0
0000
0FC0
3FF0
7FF8
F878
F03C
F03C
E03C
F03C
F03C
F878
7FF8
3FF0
0FC0
ENDCHAR
STARTCHAR 00D5
ENCODING 213
SWIDTH 853 0
DWIDTH 16 0
BBX 14 17 1 0
BITMAP
0E60
1FE0
19C0
0000
0FC0
3FF0
7FF8
F878
F03C
F03C
E03C
F03C
F03C
F878
7FF8
3FF0
0FC0
ENDCHAR
STARTCHAR 00D6
ENCODING 214
SWIDTH 853 0
DWIDTH 16 0
BBX 14 17 1 0
BITMAP
0CC0
1DC0
0CC0
0000
0FC0
3FF0
7FF8
F878
F03C
F03C
E03C
F03C
F03C
F878
7FF8
3FF0
0FC0
ENDCHAR
STARTCHAR 00D7
ENCODING 215
SWIDTH 586 0
DWIDTH 11 0
BBX 8 8 2 3
BITMAP
42
E7
FE
7C
3C
7E
EF
C6
ENDCHAR
STARTCHAR 00D8
ENCODING 216
SWIDTH 853 0
DWIDTH 16 0
BBX 14 15 1 -1
BITMAP
0018
0FF8
3FF0
7FF8
F8F8
F1FC
F1BC
E33C
F63C
FC3C
FC78
7FF8
3FF0
7FC0
6000
ENDCHAR
STARTCHAR 00D9
ENCODING 217
SWIDTH 800 0
DWIDTH 15 0
BBX 13 17 1 0
BITMAP
1C00
0E00
0700
0000
F078
F078
F078
F078
F078
F078
F078
F078
F070
78F0
7FF0
3FE0
1F80
ENDCHAR
STARTCHAR 00DA
ENCODING 218
SWIDTH 800 0
DWIDTH 15 0
BBX 13 17 1 0
BITMAP
01C0
0380
0700
0000
F078
F078
F078
F078
F078
F078
F078
F078
F070
78F0
7FF0
3FE0
1F80
ENDCHAR
STARTCHAR 00DB
ENCODING 219
SWIDTH 800 0
DWIDTH 15 0
BBX 13 17 1 0
BITMAP
0700
0F80
19C0
0000
F078
F078
F078
F078
F078
F078
F078
F078
F070
78F0
7FF0
3FE0
1F80
ENDCHAR
STARTCHAR 00DC
ENCODING 220
SWIDTH 800 0
DWIDTH 15 0
BBX 13 17 1 0
BITMAP
1DC0
1DC0
1DC0
0000
F078
F078
F078
F078
F078
F078
F078
F078
F070
78F0
7FF0
3FE0
1F80
ENDCHAR
STARTCHAR 00DD
ENCODING 221
SWIDTH 693 0
DWIDTH 13 0
BBX 13 17 0 0
BITMAP
01C0
0380
0700
0000
F078
7070
78F0
3CE0
3DE0
1FC0
0F80
0F80
0700
0700
0700
0700
0700
ENDCHAR
STARTCHAR 00DE
ENCODING 222
SWIDTH 746 0
DWIDTH 14 0
BBX 12 13 1 0
BITMAP
F000
FF80
FFE0
FFF0
F0F0
F0F0
F0F0
F0F0
FFF0
FFE0
FF80
F000
F000
ENDCHAR
STARTCHAR 00DF
ENCODING 223
SWIDTH 693 0
DWIDTH 13 0
BBX 12 14 1 0
BITMAP
1F00
7FC0
7FC0
F1C0
F1C0
F1C0
F780
F7E0
F7E0
F0F0
F0F0
F7E0
F7E0
F780
ENDCHAR
STARTCHAR 00E0
ENCODING 224
SWIDTH 640 0
DWIDTH 12 0
BBX 10 14 1 0
BITMAP
7800
3C00
0C00
0000
7E00
FF80
7F80
03C0
3FC0
FFC0
E3C0
E7C0
FFC0
7BC0
ENDCHAR
STARTCHAR 00E1
ENCODING 225
SWIDTH 640 0
DWIDTH 12 0
BBX 10 14 1 0
BITMAP
0700
0E00
1C00
0000
7E00
FF80
7F80
03C0
3FC0
FFC0
E3C0
E7C0
FFC0
7BC0
ENDCHAR
STARTCHAR 00E2
ENCODING 226
SWIDTH 640 0
DWIDTH 12 0
BBX 10 14 1 0
BITMAP
1E00
3F00
7380
0000
7E00
FF80
7F80
03C0
3FC0
FFC0
E3C0
E7C0
FFC0
7BC0
ENDCHAR
STARTCHAR 00E3
ENCODING 227
SWIDTH 640 0
DWIDTH 12 0
BBX 10 14 1 0
BITMAP
3980
7F00
6700
0000
7E00
FF80
7F80
03C0
3FC0
FFC0
E3C0
E7C0
FFC0
7BC0
ENDCHAR
STARTCHAR 00E4
ENCODING 228
SWIDTH 640 0
DWIDTH 12 0
BBX 10 14 1 0
BITMAP
3300
7700
3300
0000
7E00
FF80
7F80
03C0
3FC0
FFC0
E3C0
E7C0
FFC0
7BC0
ENDCHAR
STARTCHAR 00E5
ENCODING 229
SWIDTH 640 0
DWIDTH 12 0
BBX 10 15 1 0
BITMAP
1E00
3200
3200
1E00
0000
7E00
FF80
7F80
03C0
3FC0
FFC0
E3C0
E7C0
FFC0
7BC0
ENDCHAR
STARTCHAR 00E6
ENCODING 230
SWIDTH 1013 0
DWIDTH 19 0
BBX 17 10 1 0
BITMAP
7E7C00
FFFF00
7FFF80
03C380
7FFF80
FFFF80
E3C000
E7FF00
FFFF00
7C7E00
ENDCHAR
STARTCHAR 00E7
ENCODING 231
SWIDTH 586 0
DWIDTH 11 0
BBX 10 15 1 -5
BITMAP
1F00
7F80
FFC0
F180
E000
E000
E100
FFC0
7F80
3F00
0C00
0E00
0600
1E00
0800
ENDCHAR
STARTCHAR 00E8
ENCODING 232
SWIDTH 640 0
DWIDTH 12 0
BBX 11 14 1 0
BITMAP
7800
1C00
0E00
0000
1F00
7F80
FFC0
E1C0
FFE0
FFE0
E000
FF80
7FC0
1F00
ENDCHAR
STARTCHAR 00E9
ENCODING 233
SWIDTH 640 0
DWIDTH 12 0
BBX 11 14 1 0
BITMAP
0780
0E00
1C00
0000
1F00
7F80
FFC0
E1C0
FFE0
FFE0
E000
FF80
7FC0
1F00
ENDCHAR
STARTCHAR 00EA
ENCODING 234
SWIDTH 640 0
DWIDTH 12 0
BBX 11 14 1 0
BITMAP
1E00
3F00
7380
0000
1F00
7F80
FFC0
E1C0
FFE0
FFE0
E000
FF80
7FC0
1F00
ENDCHAR
STARTCHAR 00EB
ENCODING 235
SWIDTH 640 0
DWIDTH 12 0
BBX 11 14 1 0
BITMAP
3300
3300
3300
0000
1F00
7F80
FFC0
E1C0
FFE0
FFE0
E000
FF80
7FC0
1F00
ENDCHAR
STARTCHAR 00EC
ENCODING 236
SWIDTH 320 0
DWIDTH 6 0
BBX 6 14 -1 0
BITMAP
F0
38
18
00
3C
3C
3C
3C
3C
3C
3C
3C
3C
3C
ENDCHAR
STARTCHAR 00ED
ENCODING 237
SWIDTH 320 0
DWIDTH 6 0
BBX 6 14 1 0
BITMAP
3C
70
E0
00
F0
F0
F0
F0
F0
F0
F0
F0
F0
F0
ENDCHAR
STARTCHAR 00EE
ENCODING 238
SWIDTH 320 0
DWIDTH 6 0
BBX 6 14 0 0
BITMAP
78
F8
CC
00
78
78
78
78
78
78
78
78
78
78
ENDCHAR
STARTCHAR 00EF
ENCODING 239
SWIDTH 320 0
DWIDTH 6 0
BBX 6 14 0 0
BITMAP
CC
FC
CC
00
78
78
78
78
78
78
78
78
78
78
ENDCHAR
STARTCHAR 00F0
ENCODING 240
SWIDTH 640 0
DWIDTH 12 0
BBX 11 14 1 0
BITMAP
7E00
7FC0
7FC0
3FC0
71E0
19E0
7FE0
FFE0
F3E0
E1E0
E1C0
FFC0
7F80
3E00
ENDCHAR
STARTCHAR 00F1
ENCODING 241
SWIDTH 693 0
DWIDTH 13 0
BBX 11 14 1 0
BITMAP
1C80
3F80
3300
0000
F780
FFC0
FFE0
F1E0
F1E0
F1E0
F1E0
F1E0
F1E0
F1E0
ENDCHAR
STARTCHAR 00F2
ENCODING 242
SWIDTH 640 0
DWIDTH 12 0
BBX 11 14 1 0
BITMAP
3800
1C00
0E00
0000
1F00
7F80
FFC0
F1E0
E1E0
E1E0
F1E0
FFC0
7F80
1F00
ENDCHAR
STARTCHAR 00F3
ENCODING 243
SWIDTH 640 0
DWIDTH 12 0
BBX 11 14 1 0
BITMAP
0780
0700
0C00
0000
1F00
7F80
FFC0
F1E0
E1E0
E1E0
F1E0
FFC0
7F80
1F00
ENDCHAR
STARTCHAR 00F4
ENCODING 244
SWIDTH 640 0
DWIDTH 12 0
BBX 11 14 1 0
BITMAP
1E00
3F00
3380
0000
1F00
7F80
FFC0
F1E0
E1E0
E1E0
F1E0
FFC0
7F80
1F00
ENDCHAR
STARTCHAR 00F5
ENCODING 245
SWIDTH 640 0
DWIDTH 12 0
BBX 11 14 1 0
BITMAP
3980
3F80
6700
0000
1F00
7F80
FFC0
F1E0
E1E0
E1E0
F1E0
FFC0
7F80
1F00
ENDCHAR
STARTCHAR 00F6
ENCODING 246
SWIDTH 640 0
DWIDTH 12 0
BBX 11 14 1 0
BITMAP
3300
3B80
3300
0000
1F00
7F80
FFC0
F1E0
E1E0
E1E0
F1E0
FFC0
7F80
1F00
ENDCHAR
STARTCHAR 00F7
ENCODING 247
SWIDTH 586 0
DWIDTH 11 0
BBX 9 12 1 1
BITMAP
0800
1C00
1E00
1C00
0000
FF80
FF80
FF80
0800
1C00
1E00
1C00
ENDCHAR
STARTCHAR 00F8
ENCODING 248
SWIDTH 640 0
DWIDTH 12 0
BBX 11 13 1 -1
BITMAP
00C0
0080
1F80
7FC0
FFE0
F3E0
E5E0
EDE0
F9E0
FFC0
7F80
7F00
4000
ENDCHAR
STARTCHAR 00F9
ENCODING 249
SWIDTH 693 0
DWIDTH 13 0
BBX 11 14 1 0
BITMAP
3800
1C00
0E00
0000
F1E0
F1E0
F1E0
F1E0
F1E0
F1E0
F1E0
FFE0
7FE0
3DE0
ENDCHAR
STARTCHAR 00FA
ENCODING 250
SWIDTH 693 0
DWIDTH 13 0
BBX 11 14 1 0
BITMAP
0380
0700
0E00
0000
F1E0
F1E0
F1E0
F1E0
F1E0
F1E0
F1E0
FFE0
7FE0
3DE0
ENDCHAR
STARTCHAR 00FB
ENCODING 251
SWIDTH 693 0
DWIDTH 13 0
BBX 11 14 1 0
BITMAP
1E00
1B00
3180
0000
F1E0
F1E0
F1E0
F1E0
F1E0
F1E0
F1E0
FFE0
7FE0
3DE0
ENDCHAR
STARTCHAR 00FC
ENCODING 252
SWIDTH 693 0
DWIDTH 13 0
BBX 11 14 1 0
BITMAP
3B80
3B80
3B80
0000
F1E0
F1E0
F1E0
F1E0
F1E0
F1E0
F1E0
FFE0
7FE0
3DE0
ENDCHAR
STARTCHAR 00FD
ENCODING 253
SWIDTH 640 0
DWIDTH 12 0
BBX 12 18 0 -4
BITMAP
0380
0700
0E00
0000
F0F0
F0E0
71E0
79C0
39C0
3FC0
1F80
1F80
1F00
0F00
0E00
7E00
FC00
7800
ENDCHAR
STARTCHAR 00FE
ENCODING 254
SWIDTH 693 0
DWIDTH 13 0
BBX 11 18 1 -4
BITMAP
F000
F000
F000
F000
FF80
FFC0
FFE0
F1E0
F0E0
F0E0
F1E0
FFE0
FFC0
FF80
F000
F000
F000
F000
ENDCHAR
STARTCHAR 00FF
ENCODING 255
SWIDTH 640 0
DWIDTH 12 0
BBX 12 18 0 -4
BITMAP
3B80
3B80
1B80
0000
F0F0
F0E0
71E0
79C0
39C0
3FC0
1F80
1F80
1F00
0F00
0E00
7E00
FC00
7800
ENDCHAR
STARTCHAR 0100
ENCODING 256
SWIDTH 800 0
DWIDTH 15 0
BBX 15 16 0 0
BITMAP
0FE0
0FE0
0000
0780
07C0
0FC0
0FE0
0EE0
1EF0
1CF0
3C78
3FF8
7FF8
7FFC
F03C
F01E
ENDCHAR
STARTCHAR 0101
ENCODING 257
SWIDTH 640 0
DWIDTH 12 0
BBX 10 13 1 0
BITMAP
7F80
7F80
0000
7E00
FF80
7F80
03C0
3FC0
FFC0
E3C0
E7C0
FFC0
7BC0
ENDCHAR
STARTCHAR 0102
ENCODING 258
SWIDTH 800 0
DWIDTH 15 0
BBX 15 17 0 0
BITMAP
0C60
0FE0
0780
0000
0780
07C0
0FC0
0FE0
0EE0
1EF0
1CF0
3C78
3FF8
7FF8
7FFC
F03C
F01E
ENDCHAR
STARTCHAR 0103
ENCODING 259
SWIDTH 640 0
DWIDTH 12 0
BBX 10 14 1 0
BITMAP
6300
3F00
1E00
0000
7E00
FF80
7F80
03C0
3FC0
FFC0
E3C0
E7C0
FFC0
7BC0
ENDCHAR
STARTCHAR 0104
ENCODING 260
SWIDTH 800 0
DWIDTH 15 0
BBX 15 18 0 -5
BITMAP
0780
07C0
0FC0
0FE0
0EE0
1EF0
1CF0
3C78
3FF8
7FF8
7FFC
F03C
F01E
001C
0018
0018
001E
000E
ENDCHAR
STARTCHAR 0105
ENCODING 261
SWIDTH 640 0
DWIDTH 12 0
BBX 10 14 1 -4
BITMAP
7E00
FF80
7F80
03C0
3FC0
FFC0
E3C0
E7C0
FFC0
7BC0
0380
0700
07C0
03C0
ENDCHAR
STARTCHAR 0106
ENCODING 262
SWIDTH 746 0
DWIDTH 14 0
BBX 12 17 1 0
BITMAP
01E0
0380
0700
0000
0FC0
3FF0
7FF0
F860
F000
F000
E000
F000
F000
F860
7FF0
3FF0
0FC0
ENDCHAR
STARTCHAR 0107
ENCODING 263
SWIDTH 586 0
DWIDTH 11 0
BBX 10 14 1 0
BITMAP
0780
0E00
1C00
0000
1F00
7F80
FFC0
F180
E000
E000
F180
FFC0
7F80
1F00
ENDCHAR
STARTCHAR 0108
ENCODING 264
SWIDTH 746 0
DWIDTH 14 0
BBX 12 17 1 0
BITMAP
0780
0F80
1CC0
0000
0FC0
3FF0
7FF0
F860
F000
F000
E000
F000
F000
F860
7FF0
3FF0
0FC0
ENDCHAR
STARTCHAR 0109
ENCODING 265
SWIDTH 586 0
DWIDTH 11 0
BBX 10 14 1 0
BITMAP
1E00
3F00
7380
0000
1F00
7F80
FFC0
F180
E000
E000
F180
FFC0
7F80
1F00
ENDCHAR
STARTCHAR 010A
ENCODING 266
SWIDTH 746 0
DWIDTH 14 0
BBX 12 18 1 0
BITMAP
0300
0780
0780
0700
0000
0FC0
3FF0
7FF0
F860
F000
F000
E000
F000
F000
F860
7FF0
3FF0
0FC0
ENDCHAR
STARTCHAR 010B
ENCODING 267
SWIDTH 586 0
DWIDTH 11 0
BBX 10 15 1 0
BITMAP
0C00
1E00
1E00
0C00
0000
1F00
7F80
FFC0
F180
E000
E000
F180
FFC0
7F80
1F00
ENDCHAR
STARTCHAR 010C
ENCODING 268
SWIDTH 746 0
DWIDTH 14 0
BBX 12 17 1 0
BITMAP
1CC0
0FC0
0780
0000
0FC0
3FF0
7FF0
F860
F000
F000
E000
F000
F000
F860
7FF0
3FF0
0FC0
ENDCHAR
STARTCHAR 010D
ENCODING 269
SWIDTH 586 0
DWIDTH 11 0
BBX 10 14 1 0
BITMAP
7380
3F00
1E00
0000
1F00
7F80
FFC0
F180
E000
E000
F180
FFC0
7F80
1F00
ENDCHAR
STARTCHAR 010E
ENCODING 270
SWIDTH 800 0
DWIDTH 15 0
BBX 14 17 1 0
BITMAP
39C0
1F80
0F00
0000
FFC0
FFE0
FFF8
F078
F03C
F03C
F03C
F03C
F03C
F078
FFF8
FFE0
FFC0
ENDCHAR
STARTCHAR 010F
ENCODING 271
SWIDTH 693 0
DWIDTH 13 0
BBX 15 15 1 0
BITMAP
000E
01EE
01EE
01EE
01E0
3FE0
7FE0
FFE0
F1E0
E1E0
E1E0
F1E0
FFE0
7FE0
3EE0
ENDCHAR
STARTCHAR 0110
ENCODING 272
SWIDTH 853 0
DWIDTH 16 0
BBX 15 13 0 0
BITMAP
3FE0
3FF8
3FFC
383E
381E
FF1E
FF1E
381E
381E
383C
3FFC
3FF8
3FE0
ENDCHAR
STARTCHAR 0111
ENCODING 273
SWIDTH 693 0
DWIDTH 13 0
BBX 12 14 1 0
BITMAP
01E0
0FF0
0FF0
01E0
3FE0
7FE0
FFE0
F1E0
E1E0
E1E0
F1E0
FFE0
7FE0
3EE0
ENDCHAR
STARTCHAR 0112
ENCODING 274
SWIDTH 693 0
DWIDTH 13 0
BBX 11 16 1 0
BITMAP
3F80
3F80
0000
FFE0
FFE0
FFE0
F000
F000
FFC0
FFC0
FFC0
F000
F000
FFE0
FFE0
FFE0
ENDCHAR
STARTCHAR 0113
ENCODING 275
SWIDTH 640 0
DWIDTH 12 0
BBX 11 13 1 0
BITMAP
7F80
7F80
0000
1F00
7F80
FFC0
E1C0
FFE0
FFE0
E000
FF80
7FC0
1F00
ENDCHAR
STARTCHAR 0114
ENCODING 276
SWIDTH 693 0
DWIDTH 13 0
BBX 11 17 1 0
BITMAP
3180
3F80
1F00
0000
FFE0
FFE0
FFE0
F000
F000
FFC0
FFC0
FFC0
F000
F000
FFE0
FFE0
FFE0
ENDCHAR
STARTCHAR 0115
ENCODING 277
SWIDTH 640 0
DWIDTH 12 0
BBX 11 14 1 0
BITMAP
7380
3F00
1E00
0000
1F00
7F80
FFC0
E1C0
FFE0
FFE0
E000
FF80
7FC0
1F00
ENDCHAR
STARTCHAR 0116
ENCODING 278
SWIDTH 693 0
DWIDTH 13 0
BBX 11 18 1 0
BITMAP
0400
0E00
0E00
0E00
0000
FFE0
FFE0
FFE0
F000
F000
FFC0
FFC0
FFC0
F000
F000
FFE0
FFE0
FFE0
ENDCHAR
STARTCHAR 0117
ENCODING 279
SWIDTH 640 0
DWIDTH 12 0
BBX 11 15 1 0
BITMAP
0C00
1E00
1E00
0C00
0000
1F00
7F80
FFC0
E1C0
FFE0
FFE0
E000
FF80
7FC0
1F00
ENDCHAR
STARTCHAR 0118
ENCODING 280
SWIDTH 693 0
DWIDTH 13 0
BBX 11 18 1 -5
BITMAP
FFE0
FFE0
FFE0
F000
F000
FFC0
FFC0
FFC0
F000
F000
FFE0
FFE0
FFE0
01C0
0180
0180
01E0
00E0
ENDCHAR
STARTCHAR 0119
ENCODING 281
SWIDTH 640 0
DWIDTH 12 0
BBX 11 14 1 -4
BITMAP
1F00
7F80
FFC0
E1C0
FFE0
FFE0
E000
FF80
7FC0
1F00
0600
0600
0780
03C0
ENDCHAR
STARTCHAR 011A
ENCODING 282
SWIDTH 693 0
DWIDTH 13 0
BBX 11 17 1 0
BITMAP
3180
1B00
1E00
0000
FFE0
FFE0
FFE0
F000
F000
FFC0
FFC0
FFC0
F000
F000
FFE0
FFE0
FFE0
ENDCHAR
STARTCHAR 011B
ENCODING 283
SWIDTH 640 0
DWIDTH 12 0
BBX 11 14 1 0
BITMAP
7380
3F00
1E00
0000
1F00
7F80
FFC0
E1C0
FFE0
FFE0
E000
FF80
7FC0
1F00
ENDCHAR
STARTCHAR 011C
ENCODING 284
SWIDTH 746 0
DWIDTH 14 0
BBX 12 17 1 0
BITMAP
0780
0FC0
1CC0
0000
0FC0
3FF0
7FF0
F860
F000
F000
E070
F070
F070
F870
7FF0
3FF0
0FC0
ENDCHAR
STARTCHAR 011D
ENCODING 285
SWIDTH 693 0
DWIDTH 13 0
BBX 11 18 1 -4
BITMAP
0E00
1B00
3180
0000
3EE0
7FE0
FFE0
F1E0
E0E0
E1E0
F1E0
FFE0
7FE0
1DE0
41E0
7FC0
FFC0
3F00
ENDCHAR
STARTCHAR 011E
ENCODING 286
SWIDTH 746 0
DWIDTH 14 0
BBX 12 17 1 0
BITMAP
1CC0
0FC0
0780
0000
0FC0
3FF0
7FF0
F860
F000
F000
E070
F070
F070
F870
7FF0
3FF0
0FC0
ENDCHAR
STARTCHAR 011F
ENCODING 287
SWIDTH 693 0
DWIDTH 13 0
BBX 11 18 1 -4
BITMAP
3180
3F80
1F00
0000
3EE0
7FE0
FFE0
F1E0
E0E0
E1E0
F1E0
FFE0
7FE0
1DE0
41E0
7FC0
FFC0
3F00
ENDCHAR
STARTCHAR 0120
ENCODING 288
SWIDTH 746 0
DWIDTH 14 0
BBX 12 18 1 0
BITMAP
0300
0780
0780
0300
0000
0FC0
3FF0
7FF0
F860
F000
F000
E070
F070
F070
F870
7FF0
3FF0
0FC0
ENDCHAR
STARTCHAR 0121
ENCODING 289
SWIDTH 693 0
DWIDTH 13 0
BBX 11 19 1 -4
BITMAP
0E00
0E00
0E00
0400
0000
3EE0
7FE0
FFE0
F1E0
E0E0
E1E0
F1E0
FFE0
7FE0
1DE0
41E0
7FC0
FFC0
3F00
ENDCHAR
STARTCHAR 0122
ENCODING 290
SWIDTH 746 0
DWIDTH 14 0
BBX 12 18 1 -5
BITMAP
0FC0
3FF0
7FF0
F860
F000
F000
E070
F070
F070
F870
7FF0
3FF0
0FC0
0000
0700
0700
0300
0200
ENDCHAR
STARTCHAR 0123
ENCODING 291
SWIDTH 693 0
DWIDTH 13 0
BBX 11 19 1 -4
BITMAP
0600
0C00
0E00
0E00
0000
3EE0
7FE0
FFE0
F1E0
E0E0
E1E0
F1E0
FFE0
7FE0
1DE0
41E0
7FC0
FFC0
3F00
ENDCHAR
STARTCHAR 0124
ENCODING 292
SWIDTH 800 0
DWIDTH 15 0
BBX 13 17 1 0
BITMAP
0700
0F80
1CC0
0000
F078
F078
F078
F078
F078
FFF8
FFF8
FFF8
F078
F078
F078
F078
F078
ENDCHAR
STARTCHAR 0125
ENCODING 293
SWIDTH 693 0
DWIDTH 13 0
BBX 13 18 -1 0
BITMAP
3C00
7E00
E600
0000
3C00
3C00
3C00
3C00
3DE0
3FF0
3FF8
3C78
3C78
3C78
3C78
3C78
3C78
3C78
ENDCHAR
STARTCHAR 0126
ENCODING 294
SWIDTH 853 0
DWIDTH 16 0
BBX 16 13 0 0
BITMAP
383C
FFFF
FFFF
FFFF
383C
3FFC
3FFC
3FFC
383C
383C
383C
383C
383C
ENDCHAR
STARTCHAR 0127
ENCODING 295
SWIDTH 693 0
DWIDTH 13 0
BBX 12 14 0 0
BITMAP
7800
FF00
FF00
7800
7BC0
7FE0
7FF0
78F0
78F0
78F0
78F0
78F0
78F0
78F0
ENDCHAR
STARTCHAR 0128
ENCODING 296
SWIDTH 320 0
DWIDTH 6 0
BBX 8 17 -1 0
BITMAP
73
7F
CE
00
3C
3C
3C
3C
3C
3C
3C
3C
3C
3C
3C
3C
3C
ENDCHAR
STARTCHAR 0129
ENCODING 297
SWIDTH 320 0
DWIDTH 6 0
BBX 6 14 0 0
BITMAP
EC
FC
98
00
78
78
78
78
78
78
78
78
78
78
ENDCHAR
STARTCHAR 012A
ENCODING 298
SWIDTH 320 0
DWIDTH 6 0
BBX 6 16 0 0
BITMAP
FC
FC
00
78
78
78
78
78
78
78
78
78
78
78
78
78
ENDCHAR
STARTCHAR 012B
ENCODING 299
SWIDTH 320 0
DWIDTH 6 0
BBX 6 14 0 0
BITMAP
FC
FC
00
00
78
78
78
78
78
78
78
78
78
78
ENDCHAR
STARTCHAR 012C
ENCODING 300
SWIDTH 320 0
DWIDTH 6 0
BBX 7 17 0 0
BITMAP
C6
FC
78
00
78
78
78
78
78
78
78
78
78
78
78
78
78
ENDCHAR
STARTCHAR 012D
ENCODING 301
SWIDTH 320 0
DWIDTH 6 0
BBX 6 14 0 0
BITMAP
CC
FC
78
00
78
78
78
78
78
78
78
78
78
78
ENDCHAR
STARTCHAR 012E
ENCODING 302
SWIDTH 320 0
DWIDTH 6 0
BBX 4 18 1 -5
BITMAP
F0
F0
F0
F0
F0
F0
F0
F0
F0
F0
F0
F0
F0
60
60
60
70
30
ENDCHAR
STARTCHAR 012F
ENCODING 303
SWIDTH 320 0
DWIDTH 6 0
BBX 4 20 1 -5
BITMAP
E0
F0
F0
60
00
F0
F0
F0
F0
F0
F0
F0
F0
F0
F0
60
E0
E0
70
30
ENDCHAR
STARTCHAR 0130
ENCODING 304
SWIDTH 320 0
DWIDTH 6 0
BBX 4 18 1 0
BITMAP
60
F0
F0
60
00
F0
F0
F0
F0
F0
F0
F0
F0
F0
F0
F0
F0
F0
ENDCHAR
STARTCHAR 0131
ENCODING 305
SWIDTH 320 0
DWIDTH 6 0
BBX 4 10 1 0
BITMAP
F0
F0
F0
F0
F0
F0
F0
F0
F0
F0
ENDCHAR
STARTCHAR 0132
ENCODING 306
SWIDTH 746 0
DWIDTH 14 0
BBX 11 13 1 0
BITMAP
F0E0
F0E0
F0E0
F0E0
F0E0
F0E0
F0E0
00E0
01E0
61E0
FFC0
FFC0
3F00
ENDCHAR
STARTCHAR 0133
ENCODING 307
SWIDTH 640 0
DWIDTH 12 0
BBX 10 19 1 -4
BITMAP
E380
F3C0
F3C0
6180
0000
F3C0
F3C0
F3C0
F3C0
F3C0
F3C0
F3C0
F3C0
F3C0
F3C0
03C0
0F80
1F80
1F00
ENDCHAR
STARTCHAR 0134
ENCODING 308
SWIDTH 533 0
DWIDTH 10 0
BBX 9 17 0 0
BITMAP
1E00
3F00
3380
0000
7F80
7F80
7F80
0380
0380
0380
0380
0380
0380
4780
FF80
FF00
3E00
ENDCHAR
STARTCHAR 0135
ENCODING 309
SWIDTH 320 0
DWIDTH 6 0
BBX 8 18 -2 -4
BITMAP
1E
1F
33
00
1E
1E
1E
1E
1E
1E
1E
1E
1E
1E
1E
7E
7C
F8
ENDCHAR
STARTCHAR 0136
ENCODING 310
SWIDTH 746 0
DWIDTH 14 0
BBX 13 18 1 -5
BITMAP
F078
F0F0
F1E0
F3C0
F780
FF00
FF00
FF80
FBC0
F3E0
F1E0
F0F0
F078
0000
0600
0700
0600
0600
ENDCHAR
STARTCHAR 0137
ENCODING 311
SWIDTH 693 0
DWIDTH 13 0
BBX 12 19 1 -5
BITMAP
F000
F000
F000
F000
F1E0
F3C0
F780
FF00
FF00
FF00
FF80
F3C0
F3E0
F1F0
0000
0C00
0C00
0C00
0C00
ENDCHAR
STARTCHAR 0138
ENCODING 312
SWIDTH 693 0
DWIDTH 13 0
BBX 12 10 1 0
BITMAP
F1E0
F3C0
F780
FF00
FF00
FF00
FF80
F3C0
F3E0
F1F0
ENDCHAR
STARTCHAR 0139
ENCODING 313
SWIDTH 586 0
DWIDTH 11 0
BBX 10 17 1 0
BITMAP
1C00
3800
6000
0000
F000
F000
F000
F000
F000
F000
F000
F000
F000
F000
FFC0
FFC0
FFC0
ENDCHAR
STARTCHAR 013A
ENCODING 314
SWIDTH 320 0
DWIDTH 6 0
BBX 6 18 1 0
BITMAP
3C
70
E0
00
F0
F0
F0
F0
F0
F0
F0
F0
F0
F0
F0
F0
F0
F0
ENDCHAR
STARTCHAR 013B
ENCODING 315
SWIDTH 586 0
DWIDTH 11 0
BBX 10 18 1 -5
BITMAP
F000
F000
F000
F000
F000
F000
F000
F000
F000
F000
FFC0
FFC0
FFC0
0000
0E00
0E00
0600
0C00
ENDCHAR
STARTCHAR 013C
ENCODING 316
SWIDTH 320 0
DWIDTH 6 0
BBX 4 19 1 -5
BITMAP
F0
F0
F0
F0
F0
F0
F0
F0
F0
F0
F0
F0
F0
F0
00
60
E0
60
60
ENDCHAR
STARTCHAR 013D
ENCODING 317
SWIDTH 586 0
DWIDTH 11 0
BBX 10 14 1 0
BITMAP
01C0
F180
F180
F180
F000
F000
F000
F000
F000
F000
F000
FFC0
FFC0
FFC0
ENDCHAR
STARTCHAR 013E
ENCODING 318
SWIDTH 320 0
DWIDTH 6 0
BBX 8 15 1 0
BITMAP
07
F7
F6
F6
F0
F0
F0
F0
F0
F0
F0
F0
F0
F0
F0
ENDCHAR
STARTCHAR 013F
ENCODING 319
SWIDTH 586 0
DWIDTH 11 0
BBX 10 13 1 0
BITMAP
F000
F000
F000
F180
F3C0
F3C0
F180
F000
F000
F000
FFC0
FFC0
FFC0
ENDCHAR
STARTCHAR 0140
ENCODING 320
SWIDTH 480 0
DWIDTH 9 0
BBX 8 14 1 0
BITMAP
F0
F0
F0
F0
F0
F0
F7
F7
F7
F0
F0
F0
F0
F0
ENDCHAR
STARTCHAR 0141
ENCODING 321
SWIDTH 640 0
DWIDTH 12 0
BBX 12 13 0 0
BITMAP
3800
3900
3F00
3F00
3C00
3800
F800
F800
B800
3800
3FF0
3FF0
3FF0
ENDCHAR
STARTCHAR 0142
ENCODING 322
SWIDTH 373 0
DWIDTH 7 0
BBX 7 14 0 0
BITMAP
78
78
78
78
7C
7E
7C
78
F8
F8
F8
78
78
78
ENDCHAR
STARTCHAR 0143
ENCODING 323
SWIDTH 800 0
DWIDTH 15 0
BBX 13 17 1 0
BITMAP
01C0
0380
0700
0000
F078
F878
F878
FC78
FE78
FF78
FFF8
F7F8
F3F8
F1F8
F0F8
F0F8
F078
ENDCHAR
STARTCHAR 0144
ENCODING 324
SWIDTH 693 0
DWIDTH 13 0
BBX 11 14 1 0
BITMAP
0380
0700
0E00
0000
F780
FFC0
FFE0
F1E0
F1E0
F1E0
F1E0
F1E0
F1E0
F1E0
ENDCHAR
STARTCHAR 0145
ENCODING 325
SWIDTH 800 0
DWIDTH 15 0
BBX 13 18 1 -5
BITMAP
F078
F878
F878
FC78
FE78
FF78
FFF8
F7F8
F3F8
F1F8
F0F8
F0F8
F078
0000
0700
0700
0300
0600
ENDCHAR
STARTCHAR 0146
ENCODING 326
SWIDTH 693 0
DWIDTH 13 0
BBX 11 15 1 -5
BITMAP
F780
FFC0
FFE0
F1E0
F1E0
F1E0
F1E0
F1E0
F1E0
F1E0
0000
0E00
0E00
0600
0400
ENDCHAR
STARTCHAR 0147
ENCODING 327
SWIDTH 800 0
DWIDTH 15 0
BBX 13 17 1 0
BITMAP
18C0
0D80
0780
0000
F078
F878
F878
FC78
FE78
FF78
FFF8
F7F8
F3F8
F1F8
F0F8
F0F8
F078
ENDCHAR
STARTCHAR 0148
ENCODING 328
SWIDTH 693 0
DWIDTH 13 0
BBX 11 14 1 0
BITMAP
3980
1F00
0E00
0000
F780
FFC0
FFE0
F1E0
F1E0
F1E0
F1E0
F1E0
F1E0
F1E0
ENDCHAR
STARTCHAR 0149
ENCODING 329
SWIDTH 853 0
DWIDTH 16 0
BBX 14 13 1 0
BITMAP
C000
C000
C000
DDF0
DFF8
1FFC
1E3C
1E3C
1E3C
1E3C
1E3C
1E3C
1E3C
ENDCHAR
STARTCHAR 014A
ENCODING 330
SWIDTH 800 0
DWIDTH 15 0
BBX 13 17 1 -4
BITMAP
F078
F878
F878
FC78
FE78
FF78
FFF8
F7F8
F3F8
F1F8
F0F8
F0F8
F078
0078
07F0
0FF0
07C0
ENDCHAR
STARTCHAR 014B
ENCODING 331
SWIDTH 693 0
DWIDTH 13 0
BBX 11 14 1 -4
BITMAP
F780
FFC0
FFE0
F1E0
F1E0
F1E0
F1E0
F1E0
F1E0
F1E0
01E0
07E0
07C0
0F80
ENDCHAR
STARTCHAR 014C
ENCODING 332
SWIDTH 853 0
DWIDTH 16 0
BBX 14 16 1 0
BITMAP
1FE0
1FE0
0000
0FC0
3FF0
7FF8
F878
F03C
F03C
E03C
F03C
F03C
F878
7FF8
3FF0
0FC0
ENDCHAR
STARTCHAR 014D
ENCODING 333
SWIDTH 640 0
DWIDTH 12 0
BBX 11 13 1 0
BITMAP
7F80
7F80
0000
1F00
7F80
FFC0
F1E0
E1E0
E1E0
F1E0
FFC0
7F80
1F00
ENDCHAR
STARTCHAR 014E
ENCODING 334
SWIDTH 853 0
DWIDTH 16 0
BBX 14 17 1 0
BITMAP
1CE0
0FC0
0780
0000
0FC0
3FF0
7FF8
F878
F03C
F03C
E03C
F03C
F03C
F878
7FF8
3FF0
0FC0
ENDCHAR
STARTCHAR 014F
ENCODING 335
SWIDTH 640 0
DWIDTH 12 0
BBX 11 14 1 0
BITMAP
3180
3F00
1E00
0000
1F00
7F80
FFC0
F1E0
E1E0
E1E0
F1E0
FFC0
7F80
1F00
ENDCHAR
STARTCHAR 0150
ENCODING 336
SWIDTH 853 0
DWIDTH 16 0
BBX 14 17 1 0
BITMAP
0770
0EE0
0CE0
0000
0FC0
3FF0
7FF8
F878
F03C
F03C
E03C
F03C
F03C
F878
7FF8
3FF0
0FC0
ENDCHAR
STARTCHAR 0151
ENCODING 337
SWIDTH 640 0
DWIDTH 12 0
BBX 11 14 1 0
BITMAP
1DC0
3980
3B80
0000
1F00
7F80
FFC0
F1E0
E1E0
E1E0
F1E0
FFC0
7F80
1F00
ENDCHAR
STARTCHAR 0152
ENCODING 338
SWIDTH 1120 0
DWIDTH 21 0
BBX 20 13 1 0
BITMAP
0FFFE0
3FFFE0
7FFFE0
F87800
F07800
E07FE0
E07FE0
E07FE0
F07800
F87800
7FFFF0
3FFFF0
0FFFF0
ENDCHAR
STARTCHAR 0153
ENCODING 339
SWIDTH 1066 0
DWIDTH 20 0
BBX 18 10 1 0
BITMAP
1F1E00
7FFF80
FFFFC0
F1E1C0
E1FFC0
E1FFC0
F1E000
FFFF80
7FFFC0
1F1F00
ENDCHAR
STARTCHAR 0154
ENCODING 340
SWIDTH 746 0
DWIDTH 14 0
BBX 12 17 1 0
BITMAP
03C0
0380
0600
0000
FF80
FFE0
FFF0
F0F0
F0F0
F0F0
F0F0
FFF0
FFE0
FFC0
F1E0
F1E0
F0F0
ENDCHAR
STARTCHAR 0155
ENCODING 341
SWIDTH 426 0
DWIDTH 8 0
BBX 7 14 1 0
BITMAP
0E
1C
38
00
F6
FE
FE
F0
F0
F0
F0
F0
F0
F0
ENDCHAR
STARTCHAR 0156
ENCODING 342
SWIDTH 746 0
DWIDTH 14 0
BBX 12 18 1 -5
BITMAP
FF80
FFE0
FFF0
F0F0
F0F0
F0F0
F0F0
FFF0
FFE0
FFC0
F1E0
F1E0
F0F0
0000
0600
0700
0600
0600
ENDCHAR
STARTCHAR 0157
ENCODING 343
SWIDTH 426 0
DWIDTH 8 0
BBX 7 15 1 -5
BITMAP
F6
FE
FE
F0
F0
F0
F0
F0
F0
F0
00
60
E0
60
60
ENDCHAR
STARTCHAR 0158
ENCODING 344
SWIDTH 746 0
DWIDTH 14 0
BBX 12 17 1 0
BITMAP
39C0
1F80
0F00
0000
FF80
FFE0
FFF0
F0F0
F0F0
F0F0
F0F0
FFF0
FFE0
FFC0
F1E0
F1E0
F0F0
ENDCHAR
STARTCHAR 0159
ENCODING 345
SWIDTH 426 0
DWIDTH 8 0
BBX 7 14 1 0
BITMAP
C6
7C
38
00
F6
FE
FE
F0
F0
F0
F0
F0
F0
F0
ENDCHAR
STARTCHAR 015A
ENCODING 346
SWIDTH 640 0
DWIDTH 12 0
BBX 12 17 0 0
BITMAP
03C0
0380
0600
0000
1FC0
3FE0
7FE0
7040
7800
7F00
3FE0
0FE0
01F0
60F0
7FE0
FFE0
3F80
ENDCHAR
STARTCHAR 015B
ENCODING 347
SWIDTH 533 0
DWIDTH 10 0
BBX 9 14 1 0
BITMAP
0F00
1C00
1800
0000
3F00
FF00
FF00
E000
FE00
7F00
0780
FF80
FF00
7E00
ENDCHAR
STARTCHAR 015C
ENCODING 348
SWIDTH 640 0
DWIDTH 12 0
BBX 12 17 0 0
BITMAP
0F00
1F80
19C0
0000
1FC0
3FE0
7FE0
7040
7800
7F00
3FE0
0FE0
01F0
60F0
7FE0
FFE0
3F80
ENDCHAR
STARTCHAR 015D
ENCODING 349
SWIDTH 533 0
DWIDTH 10 0
BBX 9 14 1 0
BITMAP
3C00
7E00
E700
0000
3F00
FF00
FF00
E000
FE00
7F00
0780
FF80
FF00
7E00
ENDCHAR
STARTCHAR 015E
ENCODING 350
SWIDTH 640 0
DWIDTH 12 0
BBX 12 18 0 -5
BITMAP
1FC0
3FE0
7FE0
7040
7800
7F00
3FC0
1FE0
01F0
60F0
7FE0
FFE0
3F80
0600
0700
0300
0F00
0400
ENDCHAR
STARTCHAR 015F
ENCODING 351
SWIDTH 533 0
DWIDTH 10 0
BBX 9 15 1 -5
BITMAP
3F00
FF00
FF00
E000
FE00
7F00
0780
FF80
FF00
FE00
1800
1C00
0C00
3C00
1000
ENDCHAR
STARTCHAR 0160
ENCODING 352
SWIDTH 640 0
DWIDTH 12 0
BBX 12 17 0 0
BITMAP
39C0
1F80
0F00
0000
1FC0
3FE0
7FE0
7040
7800
7F00
3FE0
0FE0
01F0
60F0
7FE0
FFE0
3F80
ENDCHAR
STARTCHAR 0161
ENCODING 353
SWIDTH 533 0
DWIDTH 10 0
BBX 9 14 1 0
BITMAP
E700
7E00
3C00
0000
3F00
FF00
FF00
E000
FE00
7F00
0780
FF80
FF00
7E00
ENDCHAR
STARTCHAR 0162
ENCODING 354
SWIDTH 640 0
DWIDTH 12 0
BBX 12 18 0 -5
BITMAP
FFF0
FFF0
FFF0
0F00
0F00
0F00
0F00
0F00
0F00
0F00
0F00
0F00
0F00
0600
0700
0300
0F00
0400
ENDCHAR
STARTCHAR 0163
ENCODING 355
SWIDTH 426 0
DWIDTH 8 0
BBX 8 18 0 -5
BITMAP
38
38
38
FE
FE
FE
38
38
38
38
3E
3F
1F
0C
0E
06
1E
08
ENDCHAR
STARTCHAR 0164
ENCODING 356
SWIDTH 640 0
DWIDTH 12 0
BBX 12 17 0 0
BITMAP
39C0
1F80
0F00
0000
FFF0
FFF0
FFF0
0F00
0F00
0F00
0F00
0F00
0F00
0F00
0F00
0F00
0F00
ENDCHAR
STARTCHAR 0165
ENCODING 357
SWIDTH 426 0
DWIDTH 8 0
BBX 9 15 0 0
BITMAP
0380
0380
3B00
3B00
3800
FE00
FE00
FE00
3800
3800
3800
3800
3E00
3F00
1F00
ENDCHAR
STARTCHAR 0166
ENCODING 358
SWIDTH 640 0
DWIDTH 12 0
BBX 12 13 0 0
BITMAP
FFF0
FFF0
FFF0
0F00
0F00
0F00
3FC0
3FC0
0F00
0F00
0F00
0F00
0F00
ENDCHAR
STARTCHAR 0167
ENCODING 359
SWIDTH 480 0
DWIDTH 9 0
BBX 8 13 0 0
BITMAP
38
38
38
FF
FF
FF
38
FE
FE
38
3F
3F
1F
ENDCHAR
STARTCHAR 0168
ENCODING 360
SWIDTH 800 0
DWIDTH 15 0
BBX 13 17 1 0
BITMAP
0CC0
1FC0
1380
0000
F078
F078
F078
F078
F078
F078
F078
F078
F070
78F0
7FF0
3FE0
1F80
ENDCHAR
STARTCHAR 0169
ENCODING 361
SWIDTH 693 0
DWIDTH 13 0
BBX 11 14 1 0
BITMAP
1D80
3F80
2700
0000
F1E0
F1E0
F1E0
F1E0
F1E0
F1E0
F1E0
FFE0
7FE0
3DE0
ENDCHAR
STARTCHAR 016A
ENCODING 362
SWIDTH 800 0
DWIDTH 15 0
BBX 13 16 1 0
BITMAP
1FC0
1FC0
0000
F078
F078
F078
F078
F078
F078
F078
F078
F070
78F0
7FF0
3FE0
1F80
ENDCHAR
STARTCHAR 016B
ENCODING 363
SWIDTH 693 0
DWIDTH 13 0
BBX 11 14 1 0
BITMAP
3F80
3F80
0000
0000
F1E0
F1E0
F1E0
F1E0
F1E0
F1E0
F1E0
FFE0
7FE0
3DE0
ENDCHAR
STARTCHAR 016C
ENCODING 364
SWIDTH 800 0
DWIDTH 15 0
BBX 13 17 1 0
BITMAP
18C0
1FC0
0F80
0000
F078
F078
F078
F078
F078
F078
F078
F078
F070
78F0
7FF0
3FE0
1F80
ENDCHAR
STARTCHAR 016D
ENCODING 365
SWIDTH 693 0
DWIDTH 13 0
BBX 11 14 1 0
BITMAP
3180
3F80
1F00
0000
F1E0
F1E0
F1E0
F1E0
F1E0
F1E0
F1E0
FFE0
7FE0
3DE0
ENDCHAR
STARTCHAR 016E
ENCODING 366
SWIDTH 800 0
DWIDTH 15 0
BBX 13 19 1 0
BITMAP
0700
0D80
0980
0D80
0700
0000
F078
F078
F078
F078
F078
F078
F078
F078
F070
78F0
7FF0
3FE0
1F80
ENDCHAR
STARTCHAR 016F
ENCODING 367
SWIDTH 693 0
DWIDTH 13 0
BBX 11 16 1 0
BITMAP
0E00
1B00
1100
1B00
0E00
0000
F1E0
F1E0
F1E0
F1E0
F1E0
F1E0
F1E0
FFE0
7FE0
3DE0
ENDCHAR
STARTCHAR 0170
ENCODING 368
SWIDTH 800 0
DWIDTH 15 0
BBX 13 17 1 0
BITMAP
0EE0
0EE0
1DC0
0000
F078
F078
F078
F078
F078
F078
F078
F078
F070
78F0
7FF0
3FE0
1F80
ENDCHAR
STARTCHAR 0171
ENCODING 369
SWIDTH 693 0
DWIDTH 13 0
BBX 11 14 1 0
BITMAP
1DC0
1DC0
3B80
0000
F1E0
F1E0
F1E0
F1E0
F1E0
F1E0
F1E0
FFE0
7FE0
3DE0
ENDCHAR
STARTCHAR 0172
ENCODING 370
SWIDTH 800 0
DWIDTH 15 0
BBX 13 17 1 -4
BITMAP
F078
F078
F078
F078
F078
F078
F078
F078
F070
78F0
7FF0
3FE0
1F80
0600
0C00
0F80
0780
ENDCHAR
STARTCHAR 0173
ENCODING 371
SWIDTH 693 0
DWIDTH 13 0
BBX 11 14 1 -4
BITMAP
F1E0
F1E0
F1E0
F1E0
F1E0
F1E0
F1E0
FFE0
7FE0
3DE0
01C0
0180
01E0
01E0
ENDCHAR
STARTCHAR 0174
ENCODING 372
SWIDTH 1173 0
DWIDTH 22 0
BBX 22 17 0 0
BITMAP
007800
00FC00
00CE00
000000
F0783C
787838
787C38
78FC78
3CFC70
3CFE70
3DEEF0
1FCEE0
1FCFE0
1FC7E0
0F87C0
0F87C0
0F87C0
ENDCHAR
STARTCHAR 0175
ENCODING 373
SWIDTH 960 0
DWIDTH 18 0
BBX 18 14 0 0
BITMAP
01E000
03F000
073800
000000
E1E1C0
F1E380
71E380
7BF380
3BF700
3BF700
3F3F00
1F3E00
1F3E00
1E1E00
ENDCHAR
STARTCHAR 0176
ENCODING 374
SWIDTH 693 0
DWIDTH 13 0
BBX 13 17 0 0
BITMAP
0700
0F80
18C0
0000
F078
7070
78F0
3CE0
3DE0
1FC0
0F80
0F80
0700
0700
0700
0700
0700
ENDCHAR
STARTCHAR 0177
ENCODING 375
SWIDTH 640 0
DWIDTH 12 0
BBX 12 18 0 -4
BITMAP
0F00
1F00
3180
0000
F0F0
F0E0
71E0
79C0
39C0
3FC0
1F80
1F80
1F00
0F00
0E00
7E00
FC00
7800
ENDCHAR
STARTCHAR 0178
ENCODING 376
SWIDTH 693 0
DWIDTH 13 0
BBX 13 17 0 0
BITMAP
1DC0
1DC0
1DC0
0000
F078
7070
78F0
3CE0
3DE0
1FC0
0F80
0F80
0700
0700
0700
0700
0700
ENDCHAR
STARTCHAR 0179
ENCODING 377
SWIDTH 693 0
DWIDTH 13 0
BBX 11 17 1 0
BITMAP
0380
0700
0E00
0000
FFE0
FFE0
FFE0
03C0
0780
0F00
1F00
3E00
3C00
7800
FFE0
FFE0
FFE0
ENDCHAR
STARTCHAR 017A
ENCODING 378
SWIDTH 533 0
DWIDTH 10 0
BBX 9 14 1 0
BITMAP
0700
0E00
1800
0000
FF80
FF80
FF00
0F00
1E00
3C00
7800
FF80
FF80
FF80
ENDCHAR
STARTCHAR 017B
ENCODING 379
SWIDTH 693 0
DWIDTH 13 0
BBX 11 18 1 0
BITMAP
0400
0E00
0E00
0E00
0000
FFE0
FFE0
FFE0
03C0
0780
0F00
1F00
3E00
3C00
7800
FFE0
FFE0
FFE0
ENDCHAR
STARTCHAR 017C
ENCODING 380
SWIDTH 533 0
DWIDTH 10 0
BBX 9 15 1 0
BITMAP
1C00
3C00
1C00
1800
0000
FF80
FF80
FF00
0F00
1E00
3C00
7800
FF80
FF80
FF80
ENDCHAR
STARTCHAR 017D
ENCODING 381
SWIDTH 693 0
DWIDTH 13 0
BBX 11 17 1 0
BITMAP
3180
1B00
0F00
0000
FFE0
FFE0
FFE0
03C0
0780
0F00
1F00
3E00
3C00
7800
FFE0
FFE0
FFE0
ENDCHAR
STARTCHAR 017E
ENCODING 382
SWIDTH 533 0
DWIDTH 10 0
BBX 9 14 1 0
BITMAP
6700
3E00
3C00
0000
FF80
FF80
FF00
0F00
1E00
3C00
7800
FF80
FF80
FF80
ENDCHAR
STARTCHAR 017F
ENCODING 383
SWIDTH 373 0
DWIDTH 7 0
BBX 8 14 0 0
BITMAP
0F
1F
3F
38
F8
F8
F8
38
38
38
38
38
38
38
ENDCHAR
STARTCHAR 018F
ENCODING 399
SWIDTH 800 0
DWIDTH 15 0
BBX 14 13 1 0
BITMAP
1F80
3FE0
7FF0
30F8
0078
003C
FFFC
FFFC
F038
F078
7FF0
3FE0
0F80
ENDCHAR
STARTCHAR 0192
ENCODING 402
SWIDTH 480 0
DWIDTH 9 0
BBX 12 18 -2 -4
BITMAP
01F0
03E0
07E0
0700
1FE0
1FE0
1FC0
0F00
0F00
0F00
0F00
0F00
0E00
0E00
0E00
7E00
7C00
F800
ENDCHAR
STARTCHAR 01A0
ENCODING 416
SWIDTH 853 0
DWIDTH 16 0
BBX 14 16 1 0
BITMAP
000C
000C
000C
0FFC
3FF8
7FF8
F87C
F03C
F03C
E03C
F03C
F03C
F878
7FF8
3FF0
0FC0
ENDCHAR
STARTCHAR 01A1
ENCODING 417
SWIDTH 640 0
DWIDTH 12 0
BBX 11 13 1 0
BITMAP
0040
0060
00E0
1FE0
7FC0
FFC0
F1E0
E1E0
E1E0
F1E0
FFC0
7F80
1F00
ENDCHAR
STARTCHAR 01AF
ENCODING 431
SWIDTH 800 0
DWIDTH 15 0
BBX 15 16 1 0
BITMAP
0004
000E
000E
F07C
F07C
F078
F078
F078
F078
F078
F078
F070
78F0
7FF0
3FE0
1F80
ENDCHAR
STARTCHAR 01B0
ENCODING 432
SWIDTH 693 0
DWIDTH 13 0
BBX 13 13 1 0
BITMAP
0010
0038
0038
F1F0
F1E0
F1E0
F1E0
F1E0
F1E0
F1E0
FFE0
7FE0
3DE0
ENDCHAR
STARTCHAR 01B7
ENCODING 439
SWIDTH 640 0
DWIDTH 12 0
BBX 12 13 0 0
BITMAP
7FE0
7FE0
7FE0
03C0
0780
0F80
0FE0
03E0
00F0
61E0
7FE0
FFC0
3F80
ENDCHAR
STARTCHAR 01C4
ENCODING 452
SWIDTH 1440 0
DWIDTH 27 0
BBX 26 17 1 0
BITMAP
0000E700
00007E00
00003C00
00000000
FFC3FFC0
FFE3FFC0
FFFBFF80
F0780F80
F03C1F00
F03C3E00
F03C3C00
F03C7800
F03CF000
F079E000
FFFBFFC0
FFE3FFC0
FFC3FFC0
ENDCHAR
STARTCHAR 01C5
ENCODING 453
SWIDTH 1386 0
DWIDTH 26 0
BBX 24 14 1 0
BITMAP
0000E6
FFC07C
FFE03C
FFF800
F079FF
F03DFF
F03DFF
F03C1E
F03C3C
F03C78
F078F0
FFF9FF
FFE1FF
FFC1FF
ENDCHAR
STARTCHAR 01C6
ENCODING 454
SWIDTH 1226 0
DWIDTH 23 0
BBX 22 14 1 0
BITMAP
01E338
01E3F0
01E1E0
01E000
3FE7FC
7FE7FC
FFE7F8
F1E0F0
E1E0F0
E1E1E0
F1E3C0
FFE7FC
7FEFFC
3EEFFC
ENDCHAR
STARTCHAR 01C7
ENCODING 455
SWIDTH 1173 0
DWIDTH 22 0
BBX 20 13 1 0
BITMAP
F01FF0
F01FF0
F01FF0
F000F0
F000F0
F000F0
F000F0
F000F0
F000F0
F018F0
FFDFE0
FFFFE0
FFCF80
ENDCHAR
STARTCHAR 01C8
ENCODING 456
SWIDTH 906 0
DWIDTH 17 0
BBX 16 19 1 -4
BITMAP
000E
001F
F01F
F00E
F000
F00E
F00E
F00E
F00E
F00E
F00E
F00E
FFCE
FFCE
FFCE
000E
007E
007E
0078
ENDCHAR
STARTCHAR 01C9
ENCODING 457
SWIDTH 640 0
DWIDTH 12 0
BBX 10 19 1 -4
BITMAP
0380
F3C0
F3C0
F180
F000
F3C0
F3C0
F3C0
F3C0
F3C0
F3C0
F3C0
F3C0
F3C0
F3C0
03C0
0F80
1F80
1F00
ENDCHAR
STARTCHAR 01CA
ENCODING 458
SWIDTH 1386 0
DWIDTH 26 0
BBX 23 13 1 0
BITMAP
F079FE
F879FE
F879FE
FC780E
FE780E
FF780E
FFF80E
F7F80E
F3F80E
F1F99E
F0FBFE
F0FBFC
F078F8
ENDCHAR
STARTCHAR 01CB
ENCODING 459
SWIDTH 1120 0
DWIDTH 21 0
BBX 19 19 1 -4
BITMAP
0000E0
0001E0
F079E0
F878C0
F87800
FC79E0
FE79E0
FF79E0
FFF9E0
F7F9E0
F3F9E0
F1F9E0
F0F9E0
F0F9E0
F079E0
0001E0
0007E0
0007C0
000F80
ENDCHAR
STARTCHAR 01CC
ENCODING 460
SWIDTH 1013 0
DWIDTH 19 0
BBX 17 19 1 -4
BITMAP
000380
000780
000780
000300
000000
F78780
FFC780
FFE780
F1E780
F1E780
F1E780
F1E780
F1E780
F1E780
F1E780
000780
001F80
001F00
003E00
ENDCHAR
STARTCHAR 01CD
ENCODING 461
SWIDTH 800 0
DWIDTH 15 0
BBX 15 17 0 0
BITMAP
0C60
07C0
0780
0000
0780
07C0
0FC0
0FE0
0EE0
1EF0
1CF0
3C78
3FF8
7FF8
7FFC
F03C
F01E
ENDCHAR
STARTCHAR 01CE
ENCODING 462
SWIDTH 640 0
DWIDTH 12 0
BBX 10 14 1 0
BITMAP
7300
3F00
1E00
0000
7E00
FF80
7F80
03C0
3FC0
FFC0
E3C0
E7C0
FFC0
7BC0
ENDCHAR
STARTCHAR 01D3
ENCODING 467
SWIDTH 800 0
DWIDTH 15 0
BBX 13 17 1 0
BITMAP
18C0
0F80
0F00
0000
F078
F078
F078
F078
F078
F078
F078
F078
F070
78F0
7FF0
3FE0
1F80
ENDCHAR
STARTCHAR 01D4
ENCODING 468
SWIDTH 693 0
DWIDTH 13 0
BBX 11 14 1 0
BITMAP
3180
1F00
0E00
0000
F1E0
F1E0
F1E0
F1E0
F1E0
F1E0
F1E0
FFE0
7FE0
3DE0
ENDCHAR
STARTCHAR 01E4
ENCODING 484
SWIDTH 800 0
DWIDTH 15 0
BBX 14 13 1 0
BITMAP
0FC0
3FF0
7FF0
F860
F000
F000
E070
E3FC
F3FC
F870
7FF0
3FF0
0FC0
ENDCHAR
STARTCHAR 01E5
ENCODING 485
SWIDTH 693 0
DWIDTH 13 0
BBX 12 14 1 -4
BITMAP
3EE0
7FE0
FBE0
E1E0
E0E0
F1E0
FFE0
7EE0
01E0
0FF0
41E0
7FC0
FFC0
3F00
ENDCHAR
STARTCHAR 01E6
ENCODING 486
SWIDTH 746 0
DWIDTH 14 0
BBX 12 17 1 0
BITMAP
1CE0
0FC0
0780
0000
0FC0
3FF0
7FF0
F860
F000
F000
E070
F070
F070
F870
7FF0
3FF0
0FC0
ENDCHAR
STARTCHAR 01E7
ENCODING 487
SWIDTH 693 0
DWIDTH 13 0
BBX 11 18 1 -4
BITMAP
3180
1F00
0E00
0000
3EE0
7FE0
FFE0
F1E0
E0E0
E1E0
F1E0
FFE0
7FE0
1DE0
41E0
7FC0
FFC0
3F00
ENDCHAR
STARTCHAR 01E8
ENCODING 488
SWIDTH 746 0
DWIDTH 14 0
BBX 13 17 1 0
BITMAP
39C0
1F80
0F00
0000
F078
F0F0
F1E0
F3C0
F780
FF00
FF00
FF80
FBC0
F3E0
F1E0
F0F0
F078
ENDCHAR
STARTCHAR 01E9
ENCODING 489
SWIDTH 693 0
DWIDTH 13 0
BBX 14 18 -1 0
BITMAP
E600
7E00
3C00
0000
3C00
3C00
3C00
3C00
3C78
3CF0
3DE0
3FC0
3FC0
3FC0
3FE0
3CF0
3CF8
3C7C
ENDCHAR
STARTCHAR 01EA
ENCODING 490
SWIDTH 853 0
DWIDTH 16 0
BBX 14 17 1 -4
BITMAP
0FC0
3FF0
7FF8
F878
F03C
F03C
E03C
E03C
F03C
F87C
7FF8
3FF0
0FC0
0700
0600
0780
0380
ENDCHAR
STARTCHAR 01EB
ENCODING 491
SWIDTH 640 0
DWIDTH 12 0
BBX 11 14 1 -4
BITMAP
1F00
7F80
FFC0
F1E0
E1E0
E1E0
E1E0
FFC0
7FC0
3F00
0C00
1800
1E00
0F00
ENDCHAR
STARTCHAR 01EE
ENCODING 494
SWIDTH 640 0
DWIDTH 12 0
BBX 12 17 0 0
BITMAP
39C0
1F80
0F00
0000
7FE0
7FE0
7FE0
03C0
0780
0F80
0FE0
03E0
00F0
61E0
7FE0
FFC0
3F80
ENDCHAR
STARTCHAR 01EF
ENCODING 495
SWIDTH 586 0
DWIDTH 11 0
BBX 10 18 0 -4
BITMAP
7300
3F00
1E00
0000
FFC0
FFC0
FF80
0780
0F00
1E00
1F80
1FC0
03C0
01C0
43C0
FFC0
FF80
7F00
ENDCHAR
STARTCHAR 01FA
ENCODING 506
SWIDTH 800 0
DWIDTH 15 0
BBX 15 20 0 1
BITMAP
0060
03E0
06C0
04C0
06C0
0380
0000
0780
07C0
0FC0
0FE0
0EE0
1EF0
1CF0
3C78
3FF8
7FF8
7FFC
F03C
F01E
ENDCHAR
STARTCHAR 01FB
ENCODING 507
SWIDTH 640 0
DWIDTH 12 0
BBX 10 17 1 0
BITMAP
0100
0380
1F00
3200
3200
1E00
0000
7E00
FF80
7F80
03C0
3FC0
FFC0
E3C0
E7C0
FFC0
7BC0
ENDCHAR
STARTCHAR 01FC
ENCODING 508
SWIDTH 1120 0
DWIDTH 21 0
BBX 20 17 0 0
BITMAP
000E00
001C00
003000
000000
01FFF0
03FFF0
03FFF0
07F800
0F7800
0F7FE0
1E7FE0
1E7FE0
3FF800
3FF800
7FFFF0
707FF0
F07FF0
ENDCHAR
STARTCHAR 01FD
ENCODING 509
SWIDTH 1013 0
DWIDTH 19 0
BBX 17 14 1 0
BITMAP
00F000
01C000
038000
000000
7E7C00
FFFF00
7FFF80
03C380
7FFF80
FFFF80
E3C000
E7FF00
FFFF00
7C7E00
ENDCHAR
STARTCHAR 01FE
ENCODING 510
SWIDTH 853 0
DWIDTH 16 0
BBX 14 18 1 -1
BITMAP
01E0
0380
0300
0018
0FF0
3FF0
7FF8
F8F8
F1FC
F1BC
E33C
F63C
FC3C
FC78
7FF8
3FF0
7FC0
6000
ENDCHAR
STARTCHAR 01FF
ENCODING 511
SWIDTH 640 0
DWIDTH 12 0
BBX 11 15 1 -1
BITMAP
0780
0700
0CC0
0080
1F80
7FC0
FFE0
F3E0
E5E0
EDE0
F9E0
FFC0
7F80
7F00
4000
ENDCHAR
STARTCHAR 0200
ENCODING 512
SWIDTH 800 0
DWIDTH 15 0
BBX 15 17 0 0
BITMAP
3DC0
1DC0
0CC0
0000
0780
07C0
0FC0
0FE0
0EE0
1EF0
1CF0
3C78
3FF8
7FF8
7FFC
F03C
F01E
ENDCHAR
STARTCHAR 0201
ENCODING 513
SWIDTH 640 0
DWIDTH 12 0
BBX 10 14 1 0
BITMAP
EE00
7700
7700
0000
7E00
FF80
7F80
03C0
3FC0
FFC0
E3C0
E7C0
FFC0
7BC0
ENDCHAR
STARTCHAR 0202
ENCODING 514
SWIDTH 800 0
DWIDTH 15 0
BBX 15 17 0 0
BITMAP
0780
0FE0
0C60
0000
0780
07C0
0FC0
0FE0
0EE0
1EF0
1CF0
3C78
3FF8
7FF8
7FFC
F03C
F01E
ENDCHAR
STARTCHAR 0203
ENCODING 515
SWIDTH 640 0
DWIDTH 12 0
BBX 10 14 1 0
BITMAP
1E00
3F00
6300
0000
7E00
FF80
7F80
03C0
3FC0
FFC0
E3C0
E7C0
FFC0
7BC0
ENDCHAR
STARTCHAR 0204
ENCODING 516
SWIDTH 693 0
DWIDTH 13 0
BBX 11 17 1 0
BITMAP
7700
7700
3380
0000
FFE0
FFE0
FFE0
F000
F000
FFC0
FFC0
FFC0
F000
F000
FFE0
FFE0
FFE0
ENDCHAR
STARTCHAR 0205
ENCODING 517
SWIDTH 640 0
DWIDTH 12 0
BBX 11 14 1 0
BITMAP
EE00
7700
7300
0000
1F00
7F80
FFC0
E1C0
FFE0
FFE0
E000
FF80
7FC0
1F00
ENDCHAR
STARTCHAR 0206
ENCODING 518
SWIDTH 693 0
DWIDTH 13 0
BBX 11 17 1 0
BITMAP
1F00
3F80
3180
0000
FFE0
FFE0
FFE0
F000
F000
FFC0
FFC0
FFC0
F000
F000
FFE0
FFE0
FFE0
ENDCHAR
STARTCHAR 0207
ENCODING 519
SWIDTH 640 0
DWIDTH 12 0
BBX 11 14 1 0
BITMAP
1E00
3F00
7380
0000
1F00
7F80
FFC0
E1C0
FFE0
FFE0
E000
FF80
7FC0
1F00
ENDCHAR
STARTCHAR 0208
ENCODING 520
SWIDTH 320 0
DWIDTH 6 0
BBX 8 17 -2 0
BITMAP
EE
77
33
00
1E
1E
1E
1E
1E
1E
1E
1E
1E
1E
1E
1E
1E
ENDCHAR
STARTCHAR 0209
ENCODING 521
SWIDTH 320 0
DWIDTH 6 0
BBX 8 14 -2 0
BITMAP
EE
77
77
00
1E
1E
1E
1E
1E
1E
1E
1E
1E
1E
ENDCHAR
STARTCHAR 020A
ENCODING 522
SWIDTH 320 0
DWIDTH 6 0
BBX 7 17 0 0
BITMAP
78
FC
C6
00
78
78
78
78
78
78
78
78
78
78
78
78
78
ENDCHAR
STARTCHAR 020B
ENCODING 523
SWIDTH 320 0
DWIDTH 6 0
BBX 6 14 0 0
BITMAP
78
FC
CC
00
78
78
78
78
78
78
78
78
78
78
ENDCHAR
STARTCHAR 020C
ENCODING 524
SWIDTH 853 0
DWIDTH 16 0
BBX 14 17 1 0
BITMAP
3B80
1DC0
1DC0
0000
0FC0
3FF0
7FF8
F878
F03C
F03C
E03C
F03C
F03C
F878
7FF8
3FF0
0FC0
ENDCHAR
STARTCHAR 020D
ENCODING 525
SWIDTH 640 0
DWIDTH 12 0
BBX 11 14 1 0
BITMAP
EF00
7700
3300
0000
1F00
7F80
FFC0
F1E0
E1E0
E1E0
F1E0
FFC0
7F80
1F00
ENDCHAR
STARTCHAR 020E
ENCODING 526
SWIDTH 853 0
DWIDTH 16 0
BBX 14 17 1 0
BITMAP
0780
0FC0
1CC0
0000
0FC0
3FF0
7FF8
F878
F03C
F03C
E03C
F03C
F03C
F878
7FF8
3FF0
0FC0
ENDCHAR
STARTCHAR 020F
ENCODING 527
SWIDTH 640 0
DWIDTH 12 0
BBX 11 14 1 0
BITMAP
1E00
3F00
3180
0000
1F00
7F80
FFC0
F1E0
E1E0
E1E0
F1E0
FFC0
7F80
1F00
ENDCHAR
STARTCHAR 0210
ENCODING 528
SWIDTH 746 0
DWIDTH 14 0
BBX 12 17 1 0
BITMAP
7700
3B80
3980
0000
FF80
FFE0
FFF0
F0F0
F0F0
F0F0
F0F0
FFF0
FFE0
FFC0
F1E0
F1E0
F0F0
ENDCHAR
STARTCHAR 0211
ENCODING 529
SWIDTH 426 0
DWIDTH 8 0
BBX 8 14 0 0
BITMAP
EE
EE
77
00
7B
7F
7F
78
78
78
78
78
78
78
ENDCHAR
STARTCHAR 0212
ENCODING 530
SWIDTH 746 0
DWIDTH 14 0
BBX 12 17 1 0
BITMAP
0F00
1F80
39C0
0000
FF80
FFE0
FFF0
F0F0
F0F0
F0F0
F0F0
FFF0
FFE0
FFC0
F1E0
F1E0
F0F0
ENDCHAR
STARTCHAR 0213
ENCODING 531
SWIDTH 426 0
DWIDTH 8 0
BBX 7 14 1 0
BITMAP
7C
FE
C6
00
F6
FE
FE
F0
F0
F0
F0
F0
F0
F0
ENDCHAR
STARTCHAR 0214
ENCODING 532
SWIDTH 800 0
DWIDTH 15 0
BBX 13 17 1 0
BITMAP
7B80
3B80
1980
0000
F078
F078
F078
F078
F078
F078
F078
F078
F070
78F0
7FF0
3FE0
1F80
ENDCHAR
STARTCHAR 0215
ENCODING 533
SWIDTH 693 0
DWIDTH 13 0
BBX 11 14 1 0
BITMAP
7700
7700
3B80
0000
F1E0
F1E0
F1E0
F1E0
F1E0
F1E0
F1E0
FFE0
7FE0
3DE0
ENDCHAR
STARTCHAR 0216
ENCODING 534
SWIDTH 800 0
DWIDTH 15 0
BBX 13 17 1 0
BITMAP
0F80
1FC0
18C0
0000
F078
F078
F078
F078
F078
F078
F078
F078
F070
78F0
7FF0
3FE0
1F80
ENDCHAR
STARTCHAR 0217
ENCODING 535
SWIDTH 693 0
DWIDTH 13 0
BBX 11 14 1 0
BITMAP
1F00
3F80
3180
0000
F1E0
F1E0
F1E0
F1E0
F1E0
F1E0
F1E0
FFE0
7FE0
3DE0
ENDCHAR
STARTCHAR 0218
ENCODING 536
SWIDTH 640 0
DWIDTH 12 0
BBX 12 18 0 -5
BITMAP
1FC0
3FE0
7FE0
7040
7800
7F00
3FE0
0FE0
01F0
60F0
7FE0
FFE0
3F80
0000
0600
0700
0600
0600
ENDCHAR
STARTCHAR 0219
ENCODING 537
SWIDTH 533 0
DWIDTH 10 0
BBX 9 15 1 -5
BITMAP
3F00
FF00
FF00
E000
FE00
7F00
0780
FF80
FF00
7E00
0000
1800
1800
1800
1800
ENDCHAR
STARTCHAR 021A
ENCODING 538
SWIDTH 640 0
DWIDTH 12 0
BBX 12 18 0 -5
BITMAP
FFF0
FFF0
FFF0
0F00
0F00
0F00
0F00
0F00
0F00
0F00
0F00
0F00
0F00
0000
0600
0E00
0600
0600
ENDCHAR
STARTCHAR 021B
ENCODING 539
SWIDTH 426 0
DWIDTH 8 0
BBX 8 18 0 -5
BITMAP
38
38
38
FE
FE
FE
38
38
38
38
3E
3F
1F
00
0C
0C
0C
0C
ENDCHAR
STARTCHAR 021E
ENCODING 542
SWIDTH 800 0
DWIDTH 15 0
BBX 13 17 1 0
BITMAP
18C0
0D80
0780
0000
F078
F078
F078
F078
F078
FFF8
FFF8
FFF8
F078
F078
F078
F078
F078
ENDCHAR
STARTCHAR 021F
ENCODING 543
SWIDTH 693 0
DWIDTH 13 0
BBX 13 18 -1 0
BITMAP
E600
7E00
3C00
0000
3C00
3C00
3C00
3C00
3DE0
3FF0
3FF8
3C78
3C78
3C78
3C78
3C78
3C78
3C78
ENDCHAR
STARTCHAR 022A
ENCODING 554
SWIDTH 853 0
DWIDTH 16 0
BBX 14 19 1 0
BITMAP
1FE0
1FE0
0480
0DC0
0CC0
0000
0FC0
3FF0
7FF8
F878
F03C
F03C
E03C
F03C
F03C
F878
7FF8
3FF0
0FC0
ENDCHAR
STARTCHAR 022B
ENCODING 555
SWIDTH 640 0
DWIDTH 12 0
BBX 11 17 1 0
BITMAP
7F80
7F80
0000
3300
3B80
3300
0000
1F00
7F80
FFC0
F1E0
E1E0
E1E0
F1E0
FFC0
7F80
1F00
ENDCHAR
STARTCHAR 022C
ENCODING 556
SWIDTH 853 0
DWIDTH 16 0
BBX 14 19 1 0
BITMAP
1FE0
1FE0
0400
0FE0
19C0
0000
0FC0
3FF0
7FF8
F878
F03C
F03C
E03C
F03C
F03C
F878
7FF8
3FF0
0FC0
ENDCHAR
STARTCHAR 022D
ENCODING 557
SWIDTH 640 0
DWIDTH 12 0
BBX 11 17 1 0
BITMAP
7F80
7F80
0000
3980
3F80
6700
0000
1F00
7F80
FFC0
F1E0
E1E0
E1E0
F1E0
FFC0
7F80
1F00
ENDCHAR
STARTCHAR 0230
ENCODING 560
SWIDTH 853 0
DWIDTH 16 0
BBX 14 20 1 0
BITMAP
1FE0
1FE0
0000
0300
0700
0300
0000
0FC0
3FF0
7FF8
F878
F03C
F03C
E03C
F03C
F03C
F878
7FF8
3FF0
0FC0
ENDCHAR
STARTCHAR 0231
ENCODING 561
SWIDTH 640 0
DWIDTH 12 0
BBX 11 17 1 0
BITMAP
7F80
7F80
0000
0C00
0E00
0C00
0000
1F00
7F80
FFC0
F1E0
E1E0
E1E0
F1E0
FFC0
7F80
1F00
ENDCHAR
STARTCHAR 0232
ENCODING 562
SWIDTH 693 0
DWIDTH 13 0
BBX 13 16 0 0
BITMAP
1FC0
1FC0
0000
F078
7070
78F0
3CE0
3DE0
1FC0
0F80
0F80
0700
0700
0700
0700
0700
ENDCHAR
STARTCHAR 0233
ENCODING 563
SWIDTH 640 0
DWIDTH 12 0
BBX 12 18 0 -4
BITMAP
3F80
3F80
0000
0000
F0F0
F0E0
71E0
79C0
39C0
3FC0
1F80
1F80
1F00
0F00
0E00
7E00
FC00
7800
ENDCHAR
STARTCHAR 0237
ENCODING 567
SWIDTH 320 0
DWIDTH 6 0
BBX 7 14 -2 -4
BITMAP
1E
1E
1E
1E
1E
1E
1E
1E
1E
1E
1E
7E
7C
F8
ENDCHAR
STARTCHAR 0259
ENCODING 601
SWIDTH 640 0
DWIDTH 12 0
BBX 11 10 1 0
BITMAP
3E00
FF80
7FC0
01C0
FFE0
FFE0
E1C0
FFC0
7F80
3E00
ENDCHAR
STARTCHAR 0292
ENCODING 658
SWIDTH 586 0
DWIDTH 11 0
BBX 10 14 0 -4
BITMAP
FFC0
FFC0
FF80
0780
0F00
1E00
1F80
1FC0
03C0
01C0
43C0
FFC0
FF80
7F00
ENDCHAR
STARTCHAR 02B9
ENCODING 697
SWIDTH 266 0
DWIDTH 5 0
BBX 3 5 1 8
BITMAP
E0
E0
E0
E0
E0
ENDCHAR
STARTCHAR 02BA
ENCODING 698
SWIDTH 480 0
DWIDTH 9 0
BBX 7 5 1 8
BITMAP
EE
EE
EE
EE
EE
ENDCHAR
STARTCHAR 02BB
ENCODING 699
SWIDTH 320 0
DWIDTH 6 0
BBX 4 7 1 11
BITMAP
70
60
E0
E0
F0
F0
E0
ENDCHAR
STARTCHAR 02BC
ENCODING 700
SWIDTH 213 0
DWIDTH 4 0
BBX 2 5 1 8
BITMAP
C0
C0
C0
C0
C0
ENDCHAR
STARTCHAR 02BE
ENCODING 702
SWIDTH 586 0
DWIDTH 11 0
BBX 2 5 6 11
BITMAP
80
C0
40
C0
80
ENDCHAR
STARTCHAR 02BF
ENCODING 703
SWIDTH 586 0
DWIDTH 11 0
BBX 3 5 3 11
BITMAP
60
C0
C0
C0
60
ENDCHAR
STARTCHAR 02C6
ENCODING 710
SWIDTH 586 0
DWIDTH 11 0
BBX 7 3 2 11
BITMAP
3C
7C
C6
ENDCHAR
STARTCHAR 02C7
ENCODING 711
SWIDTH 586 0
DWIDTH 11 0
BBX 7 3 2 11
BITMAP
E6
7C
38
ENDCHAR
STARTCHAR 02C8
ENCODING 712
SWIDTH 213 0
DWIDTH 4 0
BBX 2 4 1 9
BITMAP
C0
C0
C0
C0
ENDCHAR
STARTCHAR 02C9
ENCODING 713
SWIDTH 586 0
DWIDTH 11 0
BBX 7 2 2 12
BITMAP
FE
FE
ENDCHAR
STARTCHAR 02CA
ENCODING 714
SWIDTH 586 0
DWIDTH 11 0
BBX 5 3 4 11
BITMAP
38
70
E0
ENDCHAR
STARTCHAR 02CB
ENCODING 715
SWIDTH 586 0
DWIDTH 11 0
BBX 5 3 2 11
BITMAP
E0
70
38
ENDCHAR
STARTCHAR 02CC
ENCODING 716
SWIDTH 213 0
DWIDTH 4 0
BBX 2 4 1 -4
BITMAP
C0
C0
C0
C0
ENDCHAR
STARTCHAR 02D8
ENCODING 728
SWIDTH 586 0
DWIDTH 11 0
BBX 7 3 2 11
BITMAP
C6
FE
7C
ENDCHAR
STARTCHAR 02D9
ENCODING 729
SWIDTH 586 0
DWIDTH 11 0
BBX 3 4 4 11
BITMAP
E0
E0
E0
60
ENDCHAR
STARTCHAR 02DA
ENCODING 730
SWIDTH 586 0
DWIDTH 11 0
BBX 5 5 3 11
BITMAP
70
D8
C8
D8
70
ENDCHAR
STARTCHAR 02DB
ENCODING 731
SWIDTH 586 0
DWIDTH 11 0
BBX 5 6 1 -5
BITMAP
30
70
E0
E0
78
30
ENDCHAR
STARTCHAR 02DC
ENCODING 732
SWIDTH 586 0
DWIDTH 11 0
BBX 7 3 2 11
BITMAP
72
FE
CC
ENDCHAR
STARTCHAR 02DD
ENCODING 733
SWIDTH 586 0
DWIDTH 11 0
BBX 8 3 2 11
BITMAP
77
77
E6
ENDCHAR
STARTCHAR 0300
ENCODING 768
SWIDTH 0 0
DWIDTH 0 0
BBX 5 3 -9 11
BITMAP
E0
70
38
ENDCHAR
STARTCHAR 0301
ENCODING 769
SWIDTH 0 0
DWIDTH 0 0
BBX 5 3 -7 11
BITMAP
38
70
E0
ENDCHAR
STARTCHAR 0302
ENCODING 770
SWIDTH 0 0
DWIDTH 0 0
BBX 7 3 -9 11
BITMAP
78
7C
C6
ENDCHAR
STARTCHAR 0303
ENCODING 771
SWIDTH 0 0
DWIDTH 0 0
BBX 7 3 -9 11
BITMAP
F6
FE
9C
ENDCHAR
STARTCHAR 0304
ENCODING 772
SWIDTH 0 0
DWIDTH 0 0
BBX 7 2 -9 12
BITMAP
FE
FE
ENDCHAR
STARTCHAR 0306
ENCODING 774
SWIDTH 0 0
DWIDTH 0 0
BBX 7 3 -9 11
BITMAP
C6
FE
7C
ENDCHAR
STARTCHAR 0307
ENCODING 775
SWIDTH 0 0
DWIDTH 0 0
BBX 3 4 -7 11
BITMAP
E0
E0
E0
C0
ENDCHAR
STARTCHAR 0308
ENCODING 776
SWIDTH 0 0
DWIDTH 0 0
BBX 7 3 -9 11
BITMAP
EC
EE
CC
ENDCHAR
STARTCHAR 0309
ENCODING 777
SWIDTH 0 0
DWIDTH 0 0
BBX 5 5 -8 11
BITMAP
70
F8
18
18
30
ENDCHAR
STARTCHAR 030A
ENCODING 778
SWIDTH 0 0
DWIDTH 0 0
BBX 5 5 -8 11
BITMAP
70
D8
98
D8
70
ENDCHAR
STARTCHAR 030B
ENCODING 779
SWIDTH 0 0
DWIDTH 0 0
BBX 8 3 -9 11
BITMAP
77
67
EE
ENDCHAR
STARTCHAR 030C
ENCODING 780
SWIDTH 0 0
DWIDTH 0 0
BBX 7 3 -9 11
BITMAP
CE
7C
38
ENDCHAR
STARTCHAR 030F
ENCODING 783
SWIDTH 0 0
DWIDTH 0 0
BBX 7 3 -10 11
BITMAP
EE
EE
66
ENDCHAR
STARTCHAR 0311
ENCODING 785
SWIDTH 0 0
DWIDTH 0 0
BBX 7 3 -9 12
BITMAP
38
FC
C6
ENDCHAR
STARTCHAR 0312
ENCODING 786
SWIDTH 0 0
DWIDTH 0 0
BBX 3 4 -7 11
BITMAP
60
C0
E0
E0
ENDCHAR
STARTCHAR 031B
ENCODING 795
SWIDTH 0 0
DWIDTH 0 0
BBX 4 5 -6 8
BITMAP
30
30
70
F0
E0
ENDCHAR
STARTCHAR 0323
ENCODING 803
SWIDTH 0 0
DWIDTH 0 0
BBX 3 3 -7 -4
BITMAP
C0
E0
E0
ENDCHAR
STARTCHAR 0324
ENCODING 804
SWIDTH 0 0
DWIDTH 0 0
BBX 7 3 -9 -4
BITMAP
4C
EE
EC
ENDCHAR
STARTCHAR 0326
ENCODING 806
SWIDTH 0 0
DWIDTH 0 0
BBX 3 4 -7 -5
BITMAP
C0
E0
60
C0
ENDCHAR
STARTCHAR 0327
ENCODING 807
SWIDTH 0 0
DWIDTH 0 0
BBX 5 5 -8 -5
BITMAP
60
70
38
F0
40
ENDCHAR
STARTCHAR 0328
ENCODING 808
SWIDTH 0 0
DWIDTH 0 0
BBX 5 6 -10 -5
BITMAP
30
60
C0
C0
F8
30
ENDCHAR
STARTCHAR 032E
ENCODING 814
SWIDTH 0 0
DWIDTH 0 0
BBX 7 3 -9 -4
BITMAP
C6
FE
7C
ENDCHAR
STARTCHAR 0331
ENCODING 817
SWIDTH 0 0
DWIDTH 0 0
BBX 7 2 -9 -4
BITMAP
FE
FE
ENDCHAR
STARTCHAR 0335
ENCODING 821
SWIDTH 0 0
DWIDTH 0 0
BBX 8 2 -10 7
BITMAP
FF
FF
ENDCHAR
STARTCHAR 0336
ENCODING 822
SWIDTH 0 0
DWIDTH 0 0
BBX 16 2 -17 7
BITMAP
FFFF
FFFF
ENDCHAR
STARTCHAR 0337
ENCODING 823
SWIDTH 0 0
DWIDTH 0 0
BBX 7 7 -9 4
BITMAP
02
06
0E
3C
70
E0
40
ENDCHAR
STARTCHAR 0338
ENCODING 824
SWIDTH 0 0
DWIDTH 0 0
BBX 10 13 -11 -1
BITMAP
00C0
0180
0100
0300
0600
0400
0C00
1800
1000
3000
2000
4000
C000
ENDCHAR
STARTCHAR 0394
ENCODING 916
SWIDTH 800 0
DWIDTH 15 0
BBX 15 13 0 0
BITMAP
0780
07C0
0FC0
0FE0
0EE0
1CF0
1C70
3C78
3878
7838
7FFC
FFFC
FFFE
ENDCHAR
STARTCHAR 03A9
ENCODING 937
SWIDTH 906 0
DWIDTH 17 0
BBX 16 13 0 0
BITMAP
07E0
1FF8
3FFC
3C3E
781E
780E
780E
780E
381E
3C3C
FE7F
FE7F
FE7F
ENDCHAR
STARTCHAR 03BC
ENCODING 956
SWIDTH 693 0
DWIDTH 13 0
BBX 11 14 1 -4
BITMAP
F1E0
F1E0
F1E0
F1E0
F1E0
F1E0
F1E0
FFE0
FFE0
FEE0
F000
F000
F000
F000
ENDCHAR
STARTCHAR 03C0
ENCODING 960
SWIDTH 746 0
DWIDTH 14 0
BBX 13 10 0 0
BITMAP
7FF8
FFF8
FFF8
CEE0
EEE0
8EE0
0EE0
1CE0
1CE0
1CE0
ENDCHAR
STARTCHAR 0400
ENCODING 1024
SWIDTH 693 0
DWIDTH 13 0
BBX 11 17 1 0
BITMAP
3800
1C00
0E00
0000
FFE0
FFE0
FFE0
F000
F000
FFC0
FFC0
FFC0
F000
F000
FFE0
FFE0
FFE0
ENDCHAR
STARTCHAR 0401
ENCODING 1025
SWIDTH 693 0
DWIDTH 13 0
BBX 11 17 1 0
BITMAP
3B80
3B80
3B80
0000
FFE0
FFE0
FFE0
F000
F000
FFC0
FFC0
FFC0
F000
F000
FFE0
FFE0
FFE0
ENDCHAR
STARTCHAR 0402
ENCODING 1026
SWIDTH 853 0
DWIDTH 16 0
BBX 16 13 0 0
BITMAP
FFF8
FFF8
FFF8
0F00
0F00
0FF8
0FFE
0FFE
0F0F
0F0F
0F3E
0F3E
0F7C
ENDCHAR
STARTCHAR 0403
ENCODING 1027
SWIDTH 586 0
DWIDTH 11 0
BBX 10 17 1 0
BITMAP
0780
0F00
0C00
0000
FFC0
FFC0
FFC0
F000
F000
F000
F000
F000
F000
F000
F000
F000
F000
ENDCHAR
STARTCHAR 0404
ENCODING 1028
SWIDTH 693 0
DWIDTH 13 0
BBX 12 13 1 0
BITMAP
0FC0
3FF0
7FF0
F860
F000
FF00
FF00
FF00
F000
F860
7FF0
3FE0
0F80
ENDCHAR
STARTCHAR 0405
ENCODING 1029
SWIDTH 640 0
DWIDTH 12 0
BBX 11 13 1 0
BITMAP
1F80
7FC0
FFC0
F000
F000
FE00
7FC0
1FE0
01E0
41E0
FFE0
FFC0
3F00
ENDCHAR
STARTCHAR 0406
ENCODING 1030
SWIDTH 320 0
DWIDTH 6 0
BBX 4 13 1 0
BITMAP
F0
F0
F0
F0
F0
F0
F0
F0
F0
F0
F0
F0
F0
ENDCHAR
STARTCHAR 0407
ENCODING 1031
SWIDTH 320 0
DWIDTH 6 0
BBX 7 17 0 0
BITMAP
CC
EE
CC
00
78
78
78
78
78
78
78
78
78
78
78
78
78
ENDCHAR
STARTCHAR 0408
ENCODING 1032
SWIDTH 586 0
DWIDTH 11 0
BBX 9 13 1 0
BITMAP
7F80
7F80
7F80
0780
0780
0780
0780
0780
0780
4780
FF00
FF00
7C00
ENDCHAR
STARTCHAR 0409
ENCODING 1033
SWIDTH 1173 0
DWIDTH 22 0
BBX 22 13 0 0
BITMAP
1FFC00
1FFC00
1FFC00
1C3C00
1C3FE0
1C3FF8
1C3FF8
1C3C3C
3C3C3C
3C3C3C
F83FF8
F83FF8
F03FE0
ENDCHAR
STARTCHAR 040A
ENCODING 1034
SWIDTH 1173 0
DWIDTH 22 0
BBX 20 13 1 0
BITMAP
F07800
F07800
F07800
F07800
F07F80
FFFFE0
FFFFF0
FFF8F0
F07870
F078F0
F07FF0
F07FE0
F07FC0
ENDCHAR
STARTCHAR 040B
ENCODING 1035
SWIDTH 853 0
DWIDTH 16 0
BBX 16 13 0 0
BITMAP
FFF0
FFF0
FFF0
0F00
0F00
0FF8
0FFE
0FFE
0F1E
0F0F
0F0F
0F0F
0F0F
ENDCHAR
STARTCHAR 040C
ENCODING 1036
SWIDTH 746 0
DWIDTH 14 0
BBX 13 17 1 0
BITMAP
01C0
0380
0700
0000
F070
F0F0
F1E0
F1E0
F3C0
FF80
FF80
FF80
F3C0
F1E0
F1E0
F0F0
F0F8
ENDCHAR
STARTCHAR 040D
ENCODING 1037
SWIDTH 800 0
DWIDTH 15 0
BBX 13 17 1 0
BITMAP
1C00
0E00
0700
0000
F078
F0F8
F0F8
F1F8
F3F8
F3F8
F7F8
FF78
FE78
FC78
FC78
F878
F078
ENDCHAR
STARTCHAR 040E
ENCODING 1038
SWIDTH 746 0
DWIDTH 14 0
BBX 14 17 0 0
BITMAP
1CE0
1FC0
0FC0
0000
F03C
7878
3870
3CF0
1CE0
1FE0
0FC0
0FC0
0780
0780
3F00
3E00
7C00
ENDCHAR
STARTCHAR 040F
ENCODING 1039
SWIDTH 800 0
DWIDTH 15 0
BBX 13 16 1 -3
BITMAP
F078
F078
F078
F078
F078
F078
F078
F078
F078
F078
FFF8
FFF8
FFF8
0700
0700
0700
ENDCHAR
STARTCHAR 0410
ENCODING 1040
SWIDTH 800 0
DWIDTH 15 0
BBX 15 13 0 0
BITMAP
03C0
07C0
07E0
0FE0
0EF0
1EF0
1E70
1C78
3FF8
3FFC
7FFC
781E
F01E
ENDCHAR
STARTCHAR 0411
ENCODING 1041
SWIDTH 746 0
DWIDTH 14 0
BBX 12 13 1 0
BITMAP
FFE0
FFE0
FFE0
F000
F000
FFC0
FFF0
FFF0
F070
F070
FFF0
FFE0
FFC0
ENDCHAR
STARTCHAR 0412
ENCODING 1042
SWIDTH 746 0
DWIDTH 14 0
BBX 12 13 1 0
BITMAP
FFC0
FFE0
FFF0
F0F0
F0F0
FFE0
FFE0
FFF0
F070
F070
FFF0
FFF0
FFC0
ENDCHAR
STARTCHAR 0413
ENCODING 1043
SWIDTH 586 0
DWIDTH 11 0
BBX 10 13 1 0
BITMAP
FFC0
FFC0
FFC0
F000
F000
F000
F000
F000
F000
F000
F000
F000
F000
ENDCHAR
STARTCHAR 0414
ENCODING 1044
SWIDTH 853 0
DWIDTH 16 0
BBX 16 16 0 -3
BITMAP
1FFC
1FFC
1FFC
1C3C
1C3C
1C3C
1C3C
1C3C
3C3C
383C
FFFF
FFFF
FFFF
F00F
F00F
F00F
ENDCHAR
STARTCHAR 0415
ENCODING 1045
SWIDTH 693 0
DWIDTH 13 0
BBX 11 13 1 0
BITMAP
FFE0
FFE0
FFE0
F000
F000
FFC0
FFC0
FFC0
F000
F000
FFE0
FFE0
FFE0
ENDCHAR
STARTCHAR 0416
ENCODING 1046
SWIDTH 1120 0
DWIDTH 21 0
BBX 20 13 0 0
BITMAP
7870F0
7870F0
3C71E0
3C71C0
1E73C0
0FFF80
0FFF80
1FFFC0
1E73C0
3C71E0
3C71E0
7870F0
F870F0
ENDCHAR
STARTCHAR 0417
ENCODING 1047
SWIDTH 640 0
DWIDTH 12 0
BBX 12 13 0 0
BITMAP
3F00
7FC0
7FE0
01E0
01E0
1FE0
1FC0
1FE0
00F0
40F0
7FF0
FFE0
3F80
ENDCHAR
STARTCHAR 0418
ENCODING 1048
SWIDTH 800 0
DWIDTH 15 0
BBX 13 13 1 0
BITMAP
F078
F0F8
F0F8
F1F8
F3F8
F3F8
F7F8
FF78
FE78
FC78
FC78
F878
F078
ENDCHAR
STARTCHAR 0419
ENCODING 1049
SWIDTH 800 0
DWIDTH 15 0
BBX 13 17 1 0
BITMAP
18E0
1FC0
0F80
0000
F078
F0F8
F0F8
F1F8
F3F8
F3F8
F7F8
FF78
FE78
FC78
FC78
F878
F078
ENDCHAR
STARTCHAR 041A
ENCODING 1050
SWIDTH 746 0
DWIDTH 14 0
BBX 13 13 1 0
BITMAP
F070
F0F0
F1E0
F1E0
F3C0
FF80
FF80
FF80
F3C0
F1E0
F1E0
F0F0
F0F8
ENDCHAR
STARTCHAR 041B
ENCODING 1051
SWIDTH 800 0
DWIDTH 15 0
BBX 14 13 0 0
BITMAP
1FFC
1FFC
1FFC
1C3C
1C3C
1C3C
1C3C
1C3C
3C3C
3C3C
F83C
F83C
F03C
ENDCHAR
STARTCHAR 041C
ENCODING 1052
SWIDTH 960 0
DWIDTH 18 0
BBX 16 13 1 0
BITMAP
F00F
F00F
F81F
FC3F
FC3F
FE7F
FE7F
F7EF
F7EF
F3CF
F3CF
F18F
F00F
ENDCHAR
STARTCHAR 041D
ENCODING 1053
SWIDTH 800 0
DWIDTH 15 0
BBX 13 13 1 0
BITMAP
F078
F078
F078
F078
F078
FFF8
FFF8
FFF8
F078
F078
F078
F078
F078
ENDCHAR
STARTCHAR 041E
ENCODING 1054
SWIDTH 853 0
DWIDTH 16 0
BBX 14 13 1 0
BITMAP
0FC0
3FF0
7FF8
F878
F03C
E03C
E03C
E03C
F03C
F878
7FF8
3FF0
0FC0
ENDCHAR
STARTCHAR 041F
ENCODING 1055
SWIDTH 800 0
DWIDTH 15 0
BBX 13 13 1 0
BITMAP
FFF8
FFF8
FFF8
F078
F078
F078
F078
F078
F078
F078
F078
F078
F078
ENDCHAR
STARTCHAR 0420
ENCODING 1056
SWIDTH 746 0
DWIDTH 14 0
BBX 12 13 1 0
BITMAP
FF80
FFE0
FFF0
F0F0
F0F0
F0F0
F0F0
FFF0
FFE0
FF80
F000
F000
F000
ENDCHAR
STARTCHAR 0421
ENCODING 1057
SWIDTH 746 0
DWIDTH 14 0
BBX 12 13 1 0
BITMAP
0FC0
3FF0
7FF0
F860
F000
E000
E000
E000
F000
F860
7FF0
3FE0
0FC0
ENDCHAR
STARTCHAR 0422
ENCODING 1058
SWIDTH 640 0
DWIDTH 12 0
BBX 12 13 0 0
BITMAP
FFF0
FFF0
FFF0
0F00
0F00
0F00
0F00
0F00
0F00
0F00
0F00
0F00
0F00
ENDCHAR
STARTCHAR 0423
ENCODING 1059
SWIDTH 746 0
DWIDTH 14 0
BBX 14 13 0 0
BITMAP
F03C
7878
3870
3CF0
1CE0
1FE0
0FC0
0FC0
0780
0780
3F00
3E00
7C00
ENDCHAR
STARTCHAR 0424
ENCODING 1060
SWIDTH 960 0
DWIDTH 18 0
BBX 17 14 1 0
BITMAP
03C000
07E000
3FFC00
7FFE00
FBDF00
F3CF00
E3C780
E3C780
E3C700
F3CF00
7FFF00
3FFC00
0FF000
03C000
ENDCHAR
STARTCHAR 0425
ENCODING 1061
SWIDTH 746 0
DWIDTH 14 0
BBX 14 13 0 0
BITMAP
7878
7CF8
3CF0
1FE0
1FE0
0FC0
07C0
0FC0
1FE0
1FF0
3CF0
7878
F87C
ENDCHAR
STARTCHAR 0426
ENCODING 1062
SWIDTH 853 0
DWIDTH 16 0
BBX 15 16 1 -3
BITMAP
F078
F078
F078
F078
F078
F078
F078
F078
F078
F078
FFFE
FFFE
FFFE
001E
001E
001E
ENDCHAR
STARTCHAR 0427
ENCODING 1063
SWIDTH 746 0
DWIDTH 14 0
BBX 12 13 1 0
BITMAP
E0F0
E0F0
E0F0
E0F0
E0F0
F0F0
FFF0
7FF0
3FF0
00F0
00F0
00F0
00F0
ENDCHAR
STARTCHAR 0428
ENCODING 1064
SWIDTH 1120 0
DWIDTH 21 0
BBX 18 13 1 0
BITMAP
F1E1C0
F1E1C0
F1E1C0
F1E1C0
F1E1C0
F1E1C0
F1E1C0
F1E1C0
F1E1C0
F1E1C0
FFFFC0
FFFFC0
FFFFC0
ENDCHAR
STARTCHAR 0429
ENCODING 1065
SWIDTH 1120 0
DWIDTH 21 0
BBX 20 16 1 -3
BITMAP
F1E1C0
F1E1C0
F1E1C0
F1E1C0
F1E1C0
F1E1C0
F1E1C0
F1E1C0
F1E1C0
F1E1C0
FFFFF0
FFFFF0
FFFFF0
0000F0
0000F0
0000F0
ENDCHAR
STARTCHAR 042A
ENCODING 1066
SWIDTH 853 0
DWIDTH 16 0
BBX 16 13 0 0
BITMAP
FE00
FE00
FE00
0E00
0FF8
0FFE
0FFE
0E0F
0E0F
0E0E
0FFE
0FFC
0FF8
ENDCHAR
STARTCHAR 042B
ENCODING 1067
SWIDTH 1066 0
DWIDTH 20 0
BBX 17 13 1 0
BITMAP
F00380
F00380
F00380
F00380
FFC380
FFE380
FFF380
F0F380
F0F380
F0F380
FFF380
FFE380
FF8380
ENDCHAR
STARTCHAR 042C
ENCODING 1068
SWIDTH 746 0
DWIDTH 14 0
BBX 12 13 1 0
BITMAP
F000
F000
F000
F000
FFC0
FFE0
FFF0
F0F0
F0F0
F0F0
FFF0
FFE0
FF80
ENDCHAR
STARTCHAR 042D
ENCODING 1069
SWIDTH 693 0
DWIDTH 13 0
BBX 13 13 0 0
BITMAP
1F80
7FC0
FFE0
30F0
0078
0FF8
0FF8
0FF8
0078
70F0
FFE0
7FC0
1F80
ENDCHAR
STARTCHAR 042E
ENCODING 1070
SWIDTH 1120 0
DWIDTH 21 0
BBX 19 13 1 0
BITMAP
F03E00
F0FF80
F1FFC0
F3E3E0
F3C1E0
FF80E0
FF80E0
FF80E0
F3C1E0
F3E3E0
F1FFC0
F0FF80
F03E00
ENDCHAR
STARTCHAR 042F
ENCODING 1071
SWIDTH 746 0
DWIDTH 14 0
BBX 11 13 1 0
BITMAP
1FE0
7FE0
FFE0
F0E0
E0E0
E0E0
F0E0
FFE0
7FE0
3FE0
78E0
78E0
F0E0
ENDCHAR
STARTCHAR 0430
ENCODING 1072
SWIDTH 586 0
DWIDTH 11 0
BBX 11 10 0 0
BITMAP
3F00
7FC0
3FC0
01C0
3FE0
7FE0
F1E0
F3E0
7FE0
3DE0
ENDCHAR
STARTCHAR 0431
ENCODING 1073
SWIDTH 693 0
DWIDTH 13 0
BBX 11 15 1 0
BITMAP
00C0
1FC0
3FE0
7F00
F000
E200
FFC0
FFE0
F1E0
F0E0
E0E0
F1E0
7FE0
7FC0
1F00
ENDCHAR
STARTCHAR 0432
ENCODING 1074
SWIDTH 640 0
DWIDTH 12 0
BBX 10 10 1 0
BITMAP
FF00
FFC0
E3C0
E3C0
FF80
FFC0
E1C0
E1C0
FFC0
FF80
ENDCHAR
STARTCHAR 0433
ENCODING 1075
SWIDTH 533 0
DWIDTH 10 0
BBX 9 10 1 0
BITMAP
FF80
FF80
FF80
F000
F000
F000
F000
F000
F000
F000
ENDCHAR
STARTCHAR 0434
ENCODING 1076
SWIDTH 746 0
DWIDTH 14 0
BBX 13 12 0 -2
BITMAP
3FF0
3FF0
3FF0
38F0
38F0
38F0
38F0
FFF8
FFF8
FFF8
F038
F038
ENDCHAR
STARTCHAR 0435
ENCODING 1077
SWIDTH 640 0
DWIDTH 12 0
BBX 11 10 0 0
BITMAP
0F80
3FC0
7FE0
70E0
FFE0
FFE0
7000
7FC0
3FE0
0F80
ENDCHAR
STARTCHAR 0436
ENCODING 1078
SWIDTH 960 0
DWIDTH 18 0
BBX 17 10 0 0
BITMAP
71E380
79E780
39E700
3DEF00
1FFE00
1FFE00
3FFF00
3DEF00
79E780
F9E780
ENDCHAR
STARTCHAR 0437
ENCODING 1079
SWIDTH 586 0
DWIDTH 11 0
BBX 9 10 1 0
BITMAP
7E00
FF00
FF80
0780
3F00
3F80
0380
FF80
FF80
FE00
ENDCHAR
STARTCHAR 0438
ENCODING 1080
SWIDTH 693 0
DWIDTH 13 0
BBX 11 10 1 0
BITMAP
F0E0
F1E0
F3E0
F7E0
FFE0
FEE0
FCE0
FCE0
F8E0
F0E0
ENDCHAR
STARTCHAR 0439
ENCODING 1081
SWIDTH 693 0
DWIDTH 13 0
BBX 11 14 1 0
BITMAP
3180
3F80
1F00
0000
F0E0
F1E0
F3E0
F7E0
FFE0
FEE0
FCE0
FCE0
F8E0
F0E0
ENDCHAR
STARTCHAR 043A
ENCODING 1082
SWIDTH 693 0
DWIDTH 13 0
BBX 11 10 1 0
BITMAP
F1E0
F1C0
F3C0
F780
FF00
FF00
FF80
F7C0
F3C0
F1E0
ENDCHAR
STARTCHAR 043B
ENCODING 1083
SWIDTH 693 0
DWIDTH 13 0
BBX 12 10 0 0
BITMAP
3FF0
3FF0
3FF0
38F0
38F0
38F0
38F0
F8F0
F0F0
F0F0
ENDCHAR
STARTCHAR 043C
ENCODING 1084
SWIDTH 800 0
DWIDTH 15 0
BBX 13 10 1 0
BITMAP
F038
F878
F8F8
FCF8
FDF8
EFF8
EFB8
E738
E338
E038
ENDCHAR
STARTCHAR 043D
ENCODING 1085
SWIDTH 693 0
DWIDTH 13 0
BBX 11 10 1 0
BITMAP
F1E0
F1E0
F1E0
F1E0
FFE0
FFE0
FFE0
F1E0
F1E0
F1E0
ENDCHAR
STARTCHAR 043E
ENCODING 1086
SWIDTH 640 0
DWIDTH 12 0
BBX 12 10 0 0
BITMAP
0F80
3FC0
7FE0
78F0
F0F0
F0F0
78F0
7FE0
3FC0
0F80
ENDCHAR
STARTCHAR 043F
ENCODING 1087
SWIDTH 693 0
DWIDTH 13 0
BBX 11 10 1 0
BITMAP
FFE0
FFE0
FFE0
F1E0
F1E0
F1E0
F1E0
F1E0
F1E0
F1E0
ENDCHAR
STARTCHAR 0440
ENCODING 1088
SWIDTH 693 0
DWIDTH 13 0
BBX 12 14 1 -4
BITMAP
FF80
FFC0
FFE0
F1E0
F0F0
F0F0
F1E0
FFE0
FFC0
FF80
F000
F000
F000
F000
ENDCHAR
STARTCHAR 0441
ENCODING 1089
SWIDTH 586 0
DWIDTH 11 0
BBX 11 10 0 0
BITMAP
0F80
3FC0
7FE0
78C0
F000
F000
7880
7FE0
3FC0
0F80
ENDCHAR
STARTCHAR 0442
ENCODING 1090
SWIDTH 533 0
DWIDTH 10 0
BBX 10 10 0 0
BITMAP
FFC0
FFC0
FFC0
1E00
1E00
1E00
1E00
1E00
1E00
1E00
ENDCHAR
STARTCHAR 0443
ENCODING 1091
SWIDTH 640 0
DWIDTH 12 0
BBX 12 14 0 -4
BITMAP
F0F0
70E0
78E0
79E0
39C0
3FC0
1F80
1F80
0F80
0F00
0F00
7E00
FE00
7800
ENDCHAR
STARTCHAR 0444
ENCODING 1092
SWIDTH 853 0
DWIDTH 16 0
BBX 16 18 0 -4
BITMAP
01C0
01C0
01C0
01C0
0FF0
3FFC
7DFE
71CF
F1C7
F1CF
71CF
7DFE
3FFC
0FF0
01C0
01C0
01C0
01C0
ENDCHAR
STARTCHAR 0445
ENCODING 1093
SWIDTH 640 0
DWIDTH 12 0
BBX 11 10 0 0
BITMAP
F1E0
79C0
3FC0
1F80
1F00
1F00
1F80
3FC0
79E0
F1E0
ENDCHAR
STARTCHAR 0446
ENCODING 1094
SWIDTH 693 0
DWIDTH 13 0
BBX 12 12 1 -2
BITMAP
F1E0
F1E0
F1E0
F1E0
F1E0
F1E0
F1E0
FFF0
FFF0
FFF0
0070
0070
ENDCHAR
STARTCHAR 0447
ENCODING 1095
SWIDTH 640 0
DWIDTH 12 0
BBX 10 10 1 0
BITMAP
E3C0
E3C0
E3C0
E3C0
FFC0
FFC0
7FC0
03C0
03C0
03C0
ENDCHAR
STARTCHAR 0448
ENCODING 1096
SWIDTH 1013 0
DWIDTH 19 0
BBX 16 10 1 0
BITMAP
F3C7
F3C7
F3C7
F3C7
F3C7
F3C7
F3C7
FFFF
FFFF
FFFF
ENDCHAR
STARTCHAR 0449
ENCODING 1097
SWIDTH 1013 0
DWIDTH 19 0
BBX 18 12 1 -2
BITMAP
F3C700
F3C700
F3C700
F3C700
F3C700
F3C700
F3C700
FFFFC0
FFFFC0
FFFFC0
0003C0
0003C0
ENDCHAR
STARTCHAR 044A
ENCODING 1098
SWIDTH 693 0
DWIDTH 13 0
BBX 13 10 0 0
BITMAP
FE00
FE00
FE00
1E00
1FF0
1FF8
1E78
1E78
1FF0
1FE0
ENDCHAR
STARTCHAR 044B
ENCODING 1099
SWIDTH 906 0
DWIDTH 17 0
BBX 14 10 1 0
BITMAP
F01C
F01C
F01C
FF1C
FFDC
F3DC
F1DC
F3DC
FF9C
FF1C
ENDCHAR
STARTCHAR 044C
ENCODING 1100
SWIDTH 640 0
DWIDTH 12 0
BBX 10 10 1 0
BITMAP
F000
F000
F000
FF80
FFC0
F3C0
F1C0
F3C0
FFC0
FF00
ENDCHAR
STARTCHAR 044D
ENCODING 1101
SWIDTH 586 0
DWIDTH 11 0
BBX 10 10 1 0
BITMAP
7E00
FF00
FF80
03C0
3FC0
3FC0
03C0
FF80
FF00
7E00
ENDCHAR
STARTCHAR 044E
ENCODING 1102
SWIDTH 906 0
DWIDTH 17 0
BBX 16 10 1 0
BITMAP
F0F8
F3FC
F7FE
FF8E
FF0F
FF0F
F78E
F7FE
F3FC
F0F8
ENDCHAR
STARTCHAR 044F
ENCODING 1103
SWIDTH 640 0
DWIDTH 12 0
BBX 10 10 1 0
BITMAP
3FC0
FFC0
FFC0
E1C0
E1C0
FFC0
7FC0
79C0
F1C0
F1C0
ENDCHAR
STARTCHAR 0450
ENCODING 1104
SWIDTH 640 0
DWIDTH 12 0
BBX 11 14 0 0
BITMAP
3C00
0E00
0600
0000
0F80
3FC0
7FE0
70E0
FFE0
FFE0
7000
7FC0
3FE0
0F80
ENDCHAR
STARTCHAR 0451
ENCODING 1105
SWIDTH 640 0
DWIDTH 12 0
BBX 11 14 0 0
BITMAP
1980
1B80
1980
0000
0F80
3FC0
7FE0
70E0
FFE0
FFE0
7000
7FC0
3FE0
0F80
ENDCHAR
STARTCHAR 0452
ENCODING 1106
SWIDTH 693 0
DWIDTH 13 0
BBX 13 18 -1 -4
BITMAP
3C00
FFC0
FFC0
3C00
3DE0
3FF0
3FF8
3C78
3C78
3C78
3C78
3C78
3C78
3C78
0078
01F8
01F0
03E0
ENDCHAR
STARTCHAR 0453
ENCODING 1107
SWIDTH 533 0
DWIDTH 10 0
BBX 9 14 1 0
BITMAP
0700
0E00
1C00
0000
FF80
FF80
FF80
F000
F000
F000
F000
F000
F000
F000
ENDCHAR
STARTCHAR 0454
ENCODING 1108
SWIDTH 586 0
DWIDTH 11 0
BBX 11 10 0 0
BITMAP
0F80
3FE0
7FC0
7000
7F00
FF00
7000
7FC0
3FE0
0F80
ENDCHAR
STARTCHAR 0455
ENCODING 1109
SWIDTH 533 0
DWIDTH 10 0
BBX 9 10 1 0
BITMAP
3F00
FF00
FF00
E000
FE00
7F80
0780
FF80
FF00
7E00
ENDCHAR
STARTCHAR 0456
ENCODING 1110
SWIDTH 320 0
DWIDTH 6 0
BBX 4 15 1 0
BITMAP
F0
F0
F0
60
00
F0
F0
F0
F0
F0
F0
F0
F0
F0
F0
ENDCHAR
STARTCHAR 0457
ENCODING 1111
SWIDTH 320 0
DWIDTH 6 0
BBX 6 14 0 0
BITMAP
CC
FC
CC
00
78
78
78
78
78
78
78
78
78
78
ENDCHAR
STARTCHAR 0458
ENCODING 1112
SWIDTH 320 0
DWIDTH 6 0
BBX 7 19 -2 -4
BITMAP
1E
1E
1E
0C
00
1E
1E
1E
1E
1E
1E
1E
1E
1E
1E
1E
7E
7C
F8
ENDCHAR
STARTCHAR 0459
ENCODING 1113
SWIDTH 960 0
DWIDTH 18 0
BBX 18 10 0 0
BITMAP
3FF000
3FF000
3FF000
38F000
38FF80
38FFC0
38F3C0
F8F3C0
F8FF80
F0FF00
ENDCHAR
STARTCHAR 045A
ENCODING 1114
SWIDTH 960 0
DWIDTH 18 0
BBX 17 10 1 0
BITMAP
F1E000
F1E000
F1E000
FFFE00
FFFF80
FFEF80
F1E780
F1E780
F1FF00
F1FE00
ENDCHAR
STARTCHAR 045B
ENCODING 1115
SWIDTH 693 0
DWIDTH 13 0
BBX 13 14 -1 0
BITMAP
3C00
FF80
FF80
3C00
3DE0
3FF0
3FF8
3C78
3C78
3C78
3C78
3C78
3C78
3C78
ENDCHAR
STARTCHAR 045C
ENCODING 1116
SWIDTH 693 0
DWIDTH 13 0
BBX 11 14 1 0
BITMAP
0380
0700
0E00
0000
F1E0
F1C0
F3C0
F780
FF00
FF00
FF80
F7C0
F3C0
F1E0
ENDCHAR
STARTCHAR 045D
ENCODING 1117
SWIDTH 693 0
DWIDTH 13 0
BBX 11 14 1 0
BITMAP
3800
1C00
0E00
0000
F0E0
F1E0
F3E0
F7E0
FFE0
FEE0
FCE0
FCE0
F8E0
F0E0
ENDCHAR
STARTCHAR 045E
ENCODING 1118
SWIDTH 640 0
DWIDTH 12 0
BBX 12 18 0 -4
BITMAP
3980
1F80
1F00
0000
F0F0
70E0
78E0
79E0
39C0
3FC0
1F80
1F80
0F80
0F00
0F00
7E00
FE00
7800
ENDCHAR
STARTCHAR 045F
ENCODING 1119
SWIDTH 693 0
DWIDTH 13 0
BBX 10 12 1 -2
BITMAP
F1C0
F1C0
F1C0
F1C0
F1C0
F1C0
F1C0
FFC0
FFC0
FFC0
0E00
0E00
ENDCHAR
STARTCHAR 0462
ENCODING 1122
SWIDTH 853 0
DWIDTH 16 0
BBX 15 14 0 0
BITMAP
1E00
1E00
FFE0
FFE0
1E00
1FF8
1FFC
1FFE
1E1E
1E0E
1E1E
1FFE
1FFC
1FF8
ENDCHAR
STARTCHAR 0463
ENCODING 1123
SWIDTH 693 0
DWIDTH 13 0
BBX 12 14 0 0
BITMAP
3C00
3C00
3C00
FF80
FF80
3C00
3C00
3FC0
3FF0
3CF0
3C70
3CF0
3FF0
3FC0
ENDCHAR
STARTCHAR 046A
ENCODING 1130
SWIDTH 960 0
DWIDTH 18 0
BBX 18 13 0 0
BITMAP
3FFF00
3FFF00
3FFF00
1E1E00
0F3C00
07F800
0FFE00
1FFF00
3DEF00
79E780
79E780
71E380
F1E3C0
ENDCHAR
STARTCHAR 046B
ENCODING 1131
SWIDTH 800 0
DWIDTH 15 0
BBX 15 10 0 0
BITMAP
3FFC
3FFC
3C38
1E70
0FE0
3FF8
7FFC
739C
739E
F38E
ENDCHAR
STARTCHAR 0472
ENCODING 1138
SWIDTH 853 0
DWIDTH 16 0
BBX 14 13 1 0
BITMAP
0FC0
3FF0
7FF8
F878
F03C
F03C
FFFC
FFFC
F03C
F878
7FF8
3FF0
0FC0
ENDCHAR
STARTCHAR 0473
ENCODING 1139
SWIDTH 693 0
DWIDTH 13 0
BBX 12 10 0 0
BITMAP
0F80
3FE0
7DE0
70F0
FFF0
FFF0
70F0
7FE0
3FC0
0F80
ENDCHAR
STARTCHAR 0474
ENCODING 1140
SWIDTH 800 0
DWIDTH 15 0
BBX 15 13 0 0
BITMAP
F01E
783E
787E
387E
3C70
3CF0
1EF0
1EE0
0FE0
0FC0
0FC0
07C0
0780
ENDCHAR
STARTCHAR 0475
ENCODING 1141
SWIDTH 693 0
DWIDTH 13 0
BBX 13 10 0 0
BITMAP
F078
70F0
79F0
39E0
3DC0
3FC0
1F80
1F80
0F80
0F00
ENDCHAR
STARTCHAR 048A
ENCODING 1162
SWIDTH 853 0
DWIDTH 16 0
BBX 15 20 1 -3
BITMAP
18E0
1FC0
0F80
0000
F078
F0F8
F0F8
F1F8
F3F8
F3F8
F7F8
FF78
FE78
FC78
FC7E
F87C
F07C
001C
001C
0038
ENDCHAR
STARTCHAR 048B
ENCODING 1163
SWIDTH 746 0
DWIDTH 14 0
BBX 13 16 1 -2
BITMAP
3180
3F80
1F00
0000
F0E0
F1E0
F3E0
F7E0
FFE0
FEE0
FCE0
FCF8
F8F0
F0F0
0070
0070
ENDCHAR
STARTCHAR 048C
ENCODING 1164
SWIDTH 746 0
DWIDTH 14 0
BBX 14 14 0 0
BITMAP
3C00
3C00
FFC0
FFC0
3C00
3FF0
3FF8
3FF8
3C3C
3C3C
3C3C
3FF8
3FF8
3FE0
ENDCHAR
STARTCHAR 048D
ENCODING 1165
SWIDTH 640 0
DWIDTH 12 0
BBX 12 10 0 0
BITMAP
3C00
FF80
FF80
3C00
3FE0
3FF0
3CF0
3CF0
3FF0
3FC0
ENDCHAR
STARTCHAR 048E
ENCODING 1166
SWIDTH 746 0
DWIDTH 14 0
BBX 12 13 1 0
BITMAP
FF80
FFE0
FFF0
F0F0
F0F0
F6F0
F3F0
FFF0
FFE0
FFC0
F060
F000
F000
ENDCHAR
STARTCHAR 048F
ENCODING 1167
SWIDTH 693 0
DWIDTH 13 0
BBX 12 14 1 -4
BITMAP
F780
FFC0
FFE0
F0E0
F0F0
F2F0
F3E0
FFE0
FFC0
F7E0
F040
F000
F000
F000
ENDCHAR
STARTCHAR 0490
ENCODING 1168
SWIDTH 586 0
DWIDTH 11 0
BBX 10 16 1 0
BITMAP
01C0
01C0
01C0
FFC0
FFC0
FFC0
F000
F000
F000
F000
F000
F000
F000
F000
F000
F000
ENDCHAR
STARTCHAR 0491
ENCODING 1169
SWIDTH 533 0
DWIDTH 10 0
BBX 9 12 1 0
BITMAP
0780
0780
FF80
FF80
FF80
F000
F000
F000
F000
F000
F000
F000
ENDCHAR
STARTCHAR 0492
ENCODING 1170
SWIDTH 640 0
DWIDTH 12 0
BBX 12 13 0 0
BITMAP
3FF0
3FF0
3FF0
3C00
3C00
3C00
FFE0
FFE0
3C00
3C00
3C00
3C00
3C00
ENDCHAR
STARTCHAR 0493
ENCODING 1171
SWIDTH 586 0
DWIDTH 11 0
BBX 10 10 0 0
BITMAP
3FC0
3FC0
3FC0
3800
3800
FF80
FF80
3800
3800
3800
ENDCHAR
STARTCHAR 0494
ENCODING 1172
SWIDTH 693 0
DWIDTH 13 0
BBX 12 16 1 -3
BITMAP
FFC0
FFC0
FFC0
F000
F000
F000
FF80
FFE0
FFE0
F0F0
F0F0
F0F0
F0E0
07E0
07C0
0780
ENDCHAR
STARTCHAR 0495
ENCODING 1173
SWIDTH 640 0
DWIDTH 12 0
BBX 11 14 1 -4
BITMAP
FF80
FF80
FF80
F000
FF00
FFC0
FFC0
F1E0
F1E0
F1E0
01E0
0FC0
0F80
0F00
ENDCHAR
STARTCHAR 0496
ENCODING 1174
SWIDTH 1120 0
DWIDTH 21 0
BBX 21 16 0 -3
BITMAP
7870F0
7870F0
3C71E0
3C71C0
1E73C0
0FFF80
0FFF80
1FFFC0
1E73C0
3C71E0
3C71F8
7870F8
F870F8
000038
000038
000038
ENDCHAR
STARTCHAR 0497
ENCODING 1175
SWIDTH 960 0
DWIDTH 18 0
BBX 18 12 0 -2
BITMAP
71E780
79E780
3DEF00
1FFE00
1FFE00
3FFE00
3DEF00
79EFC0
79E7C0
F1E7C0
0001C0
0001C0
ENDCHAR
STARTCHAR 0498
ENCODING 1176
SWIDTH 640 0
DWIDTH 12 0
BBX 11 15 1 -2
BITMAP
7E00
FF80
FFC0
03C0
01C0
3FC0
3F80
3FC0
01E0
81E0
FFE0
FFC0
7F00
1C00
1C00
ENDCHAR
STARTCHAR 0499
ENCODING 1177
SWIDTH 586 0
DWIDTH 11 0
BBX 9 12 1 -2
BITMAP
7E00
FF00
FF80
0780
3F00
3F00
0380
C780
FF80
FE00
3C00
3C00
ENDCHAR
STARTCHAR 049A
ENCODING 1178
SWIDTH 800 0
DWIDTH 15 0
BBX 13 16 1 -3
BITMAP
F070
F0F0
F1E0
F1E0
F3C0
FF80
FF80
FF80
F3C0
F1E0
F1F8
F0F8
F0F8
0038
0038
0038
ENDCHAR
STARTCHAR 049B
ENCODING 1179
SWIDTH 693 0
DWIDTH 13 0
BBX 12 12 1 -2
BITMAP
F1E0
F3C0
F380
FF80
FF00
FF80
F780
F3F0
F3F0
F1F0
0070
0070
ENDCHAR
STARTCHAR 049C
ENCODING 1180
SWIDTH 800 0
DWIDTH 15 0
BBX 13 13 1 0
BITMAP
F078
F078
F0F0
F6E0
F7E0
FFC0
FFC0
FFE0
F7E0
F6F0
F0F0
F078
F078
ENDCHAR
STARTCHAR 049D
ENCODING 1181
SWIDTH 693 0
DWIDTH 13 0
BBX 11 10 1 0
BITMAP
F0E0
F1E0
FDC0
FFC0
FF80
FF80
FFC0
FFC0
F1E0
F1E0
ENDCHAR
STARTCHAR 049E
ENCODING 1182
SWIDTH 800 0
DWIDTH 15 0
BBX 14 13 0 0
BITMAP
383C
FF78
FF78
38F0
38E0
3FE0
3FC0
3FE0
39F0
38F0
3878
3878
383C
ENDCHAR
STARTCHAR 049F
ENCODING 1183
SWIDTH 640 0
DWIDTH 12 0
BBX 12 14 0 0
BITMAP
7800
FE00
FE00
7800
78F0
78E0
79E0
7BC0
7F80
7F80
7FC0
7BE0
79E0
78F0
ENDCHAR
STARTCHAR 04A0
ENCODING 1184
SWIDTH 906 0
DWIDTH 17 0
BBX 16 13 0 0
BITMAP
FE0F
FE1E
FE1E
0E3C
0E38
0FF8
0FF0
0FF8
0E7C
0E3C
0E1E
0E1E
0E0F
ENDCHAR
STARTCHAR 04A1
ENCODING 1185
SWIDTH 746 0
DWIDTH 14 0
BBX 14 10 0 0
BITMAP
FE3C
FE78
FE70
1EF0
1FE0
1FE0
1FF0
1EF0
1E78
1E3C
ENDCHAR
STARTCHAR 04A2
ENCODING 1186
SWIDTH 853 0
DWIDTH 16 0
BBX 15 16 1 -3
BITMAP
F078
F078
F078
F078
F078
FFF8
FFF8
FFF8
F078
F078
F07E
F07E
F07E
001E
001E
001E
ENDCHAR
STARTCHAR 04A3
ENCODING 1187
SWIDTH 746 0
DWIDTH 14 0
BBX 12 12 1 -2
BITMAP
F1E0
F1E0
F1E0
FFE0
FFE0
FFE0
F1E0
F1F0
F1F0
F1F0
0070
0070
ENDCHAR
STARTCHAR 04A4
ENCODING 1188
SWIDTH 1066 0
DWIDTH 20 0
BBX 19 13 1 0
BITMAP
F07FE0
F07FE0
F07FE0
F07800
F07800
FFF800
FFF800
FFF800
F07800
F07800
F07800
F07800
F07800
ENDCHAR
STARTCHAR 04A5
ENCODING 1189
SWIDTH 906 0
DWIDTH 17 0
BBX 16 10 1 0
BITMAP
F1FF
F1FF
F1FF
F1E0
FFE0
FFE0
FFE0
F1E0
F1E0
F1E0
ENDCHAR
STARTCHAR 04A6
ENCODING 1190
SWIDTH 1173 0
DWIDTH 22 0
BBX 20 16 1 -3
BITMAP
FFF800
FFF800
FFF800
F07800
F07800
F07800
F07FC0
F07FE0
F07FF0
F078F0
F07870
F07870
F078F0
0003F0
0003E0
000380
ENDCHAR
STARTCHAR 04A7
ENCODING 1191
SWIDTH 1013 0
DWIDTH 19 0
BBX 18 14 1 -4
BITMAP
FFE000
FFE000
FFE000
F1E000
F1FE00
F1FF00
F1FF80
F1E7C0
F1E3C0
F1E3C0
000780
001F80
001F00
001E00
ENDCHAR
STARTCHAR 04A8
ENCODING 1192
SWIDTH 960 0
DWIDTH 18 0
BBX 17 13 1 0
BITMAP
207C00
79FE00
FBFF00
F38700
F38700
E38700
E38700
F38700
F3CE00
79CE00
7FFD00
3FFF00
0FFF80
ENDCHAR
STARTCHAR 04A9
ENCODING 1193
SWIDTH 853 0
DWIDTH 16 0
BBX 14 10 1 0
BITMAP
61F0
F3F8
F7FC
E71C
E71C
E71C
F7B8
FBF8
7FFC
1FFC
ENDCHAR
STARTCHAR 04AA
ENCODING 1194
SWIDTH 746 0
DWIDTH 14 0
BBX 12 15 1 -2
BITMAP
0FC0
3FF0
7FF0
F860
F000
E000
E000
E000
F000
F860
7FF0
3FF0
1FC0
0700
0700
ENDCHAR
STARTCHAR 04AB
ENCODING 1195
SWIDTH 586 0
DWIDTH 11 0
BBX 11 12 0 -2
BITMAP
0F80
3FC0
7FE0
78C0
7000
F000
7080
7FE0
3FC0
1F80
0F00
0F00
ENDCHAR
STARTCHAR 04AC
ENCODING 1196
SWIDTH 640 0
DWIDTH 12 0
BBX 12 16 0 -3
BITMAP
FFF0
FFF0
FFF0
0F00
0F00
0F00
0F00
0F00
0F00
0F00
0FC0
0FC0
0FC0
03C0
03C0
03C0
ENDCHAR
STARTCHAR 04AD
ENCODING 1197
SWIDTH 533 0
DWIDTH 10 0
BBX 10 12 0 -2
BITMAP
FFC0
FFC0
FFC0
1E00
1E00
1E00
1E00
1F00
1F00
1F00
0700
0700
ENDCHAR
STARTCHAR 04AE
ENCODING 1198
SWIDTH 746 0
DWIDTH 14 0
BBX 13 13 0 0
BITMAP
F038
7878
3870
3CF0
1FE0
1FC0
0FC0
0780
0780
0780
0780
0780
0780
ENDCHAR
STARTCHAR 04AF
ENCODING 1199
SWIDTH 640 0
DWIDTH 12 0
BBX 12 14 0 -4
BITMAP
F0F0
70E0
78E0
79E0
39C0
3FC0
1F80
1F80
1F80
0F00
0F00
0F00
0F00
0F00
ENDCHAR
STARTCHAR 04B0
ENCODING 1200
SWIDTH 746 0
DWIDTH 14 0
BBX 13 13 0 0
BITMAP
F038
7878
3870
3CF0
1FE0
1FC0
0FC0
1FE0
1FE0
0780
0780
0780
0780
ENDCHAR
STARTCHAR 04B1
ENCODING 1201
SWIDTH 640 0
DWIDTH 12 0
BBX 12 14 0 -4
BITMAP
F0F0
70E0
78E0
79E0
39C0
3FC0
1F80
1F80
1F00
7FE0
7FE0
0F00
0F00
0F00
ENDCHAR
STARTCHAR 04B2
ENCODING 1202
SWIDTH 800 0
DWIDTH 15 0
BBX 14 16 0 -3
BITMAP
7878
7CF8
3CF0
1FE0
1FE0
0FC0
07C0
0FC0
1FE0
1FF0
3CFC
787C
F87C
001C
001C
001C
ENDCHAR
STARTCHAR 04B3
ENCODING 1203
SWIDTH 640 0
DWIDTH 12 0
BBX 12 12 0 -2
BITMAP
F1E0
79C0
3FC0
1F80
0F00
1F00
1F80
3FF0
79F0
F1F0
0070
0070
ENDCHAR
STARTCHAR 04B4
ENCODING 1204
SWIDTH 1013 0
DWIDTH 19 0
BBX 18 16 0 -3
BITMAP
FFE780
FFE780
FFE780
0F0780
0F0780
0F0780
0F0780
0F0780
0F0780
0F0780
0FFFC0
0FFFC0
0FFFC0
0001C0
0001C0
0001C0
ENDCHAR
STARTCHAR 04B5
ENCODING 1205
SWIDTH 800 0
DWIDTH 15 0
BBX 15 12 0 -2
BITMAP
FFBC
FFBC
FFBC
1E3C
1E3C
1E3C
1E3C
1FFE
1FFE
1FFE
000E
000E
ENDCHAR
STARTCHAR 04B6
ENCODING 1206
SWIDTH 800 0
DWIDTH 15 0
BBX 14 16 1 -3
BITMAP
E0F0
E0F0
E0F0
E0F0
E0F0
F0F0
FFF0
7FF0
3FF0
00F0
00FC
00FC
00FC
003C
003C
003C
ENDCHAR
STARTCHAR 04B7
ENCODING 1207
SWIDTH 693 0
DWIDTH 13 0
BBX 11 12 1 -2
BITMAP
E3C0
E3C0
E3C0
E3C0
FFC0
FFC0
7FC0
03E0
03E0
03E0
00E0
00E0
ENDCHAR
STARTCHAR 04B8
ENCODING 1208
SWIDTH 746 0
DWIDTH 14 0
BBX 12 13 1 0
BITMAP
E0F0
E0F0
E0F0
E0F0
E6F0
F6F0
FFF0
7FF0
3FF0
06F0
06F0
00F0
00F0
ENDCHAR
STARTCHAR 04B9
ENCODING 1209
SWIDTH 640 0
DWIDTH 12 0
BBX 10 10 1 0
BITMAP
E3C0
E3C0
E3C0
EBC0
FFC0
FFC0
7FC0
0BC0
03C0
03C0
ENDCHAR
STARTCHAR 04BA
ENCODING 1210
SWIDTH 746 0
DWIDTH 14 0
BBX 13 13 1 0
BITMAP
F000
F000
F000
F000
FFC0
FFE0
FFF0
F0F0
F070
F078
F078
F078
F078
ENDCHAR
STARTCHAR 04BB
ENCODING 1211
SWIDTH 693 0
DWIDTH 13 0
BBX 11 14 1 0
BITMAP
F000
F000
F000
F000
F780
FFC0
FFE0
F1E0
F1E0
F1E0
F1E0
F1E0
F1E0
F1E0
ENDCHAR
STARTCHAR 04BC
ENCODING 1212
SWIDTH 1013 0
DWIDTH 19 0
BBX 19 13 0 0
BITMAP
007E00
01FF00
43FF80
F3C3C0
E781E0
FF81E0
7FFFE0
3FFFE0
078000
07C300
03FFC0
01FF80
007E00
ENDCHAR
STARTCHAR 04BD
ENCODING 1213
SWIDTH 853 0
DWIDTH 16 0
BBX 15 10 0 0
BITMAP
01F0
03FC
E7FE
EF0E
7FFE
3FFE
0F00
07FC
03FC
01F8
ENDCHAR
STARTCHAR 04BE
ENCODING 1214
SWIDTH 1013 0
DWIDTH 19 0
BBX 19 15 0 -2
BITMAP
007E00
01FF00
43FF80
F3C3C0
E781E0
FF81E0
7FFFE0
3FFFE0
078000
07C300
03FFC0
01FF80
007E00
003C00
003C00
ENDCHAR
STARTCHAR 04BF
ENCODING 1215
SWIDTH 853 0
DWIDTH 16 0
BBX 15 12 0 -2
BITMAP
01F0
03FC
E7FE
EF0E
FFFE
7FFE
0F00
07F8
07FE
01F8
00E0
00E0
ENDCHAR
STARTCHAR 04C0
ENCODING 1216
SWIDTH 373 0
DWIDTH 7 0
BBX 4 13 1 0
BITMAP
F0
F0
F0
F0
F0
F0
F0
F0
F0
F0
F0
F0
F0
ENDCHAR
STARTCHAR 04C1
ENCODING 1217
SWIDTH 1120 0
DWIDTH 21 0
BBX 20 17 0 0
BITMAP
018C00
01FC00
00F800
000000
7870F0
7870F0
3C71E0
3C71C0
1E73C0
0FFF80
0FFF80
1FFFC0
1E73C0
3C71E0
3C71E0
7870F0
F870F0
ENDCHAR
STARTCHAR 04C2
ENCODING 1218
SWIDTH 960 0
DWIDTH 18 0
BBX 17 14 0 0
BITMAP
073000
03F000
03E000
000000
71E380
79E780
39E700
3DEF00
1FFE00
1FFE00
3FFF00
3DEF00
79E780
F9E780
ENDCHAR
STARTCHAR 04C3
ENCODING 1219
SWIDTH 746 0
DWIDTH 14 0
BBX 13 17 1 -4
BITMAP
F078
F0F0
F1E0
F1E0
F3C0
FF80
FF80
FFC0
F3E0
F1F0
F0F0
F0F8
F078
0078
01F8
01F0
03E0
ENDCHAR
STARTCHAR 04C4
ENCODING 1220
SWIDTH 693 0
DWIDTH 13 0
BBX 11 14 1 -4
BITMAP
F1E0
F1C0
F3C0
F780
FF00
FF80
FF80
F3C0
F1E0
F0E0
00E0
07E0
07E0
07C0
ENDCHAR
STARTCHAR 04C6
ENCODING 1222
SWIDTH 693 0
DWIDTH 13 0
BBX 13 12 0 -2
BITMAP
3FF0
3FF0
3FF0
38F0
38F0
38F0
38F0
F8F8
F0F8
F0F0
0070
0070
ENDCHAR
STARTCHAR 04C7
ENCODING 1223
SWIDTH 800 0
DWIDTH 15 0
BBX 13 17 1 -4
BITMAP
F078
F078
F078
F078
F078
FFF8
FFF8
FFF8
F078
F078
F078
F078
F078
0078
01F8
03F0
03E0
ENDCHAR
STARTCHAR 04C8
ENCODING 1224
SWIDTH 693 0
DWIDTH 13 0
BBX 11 14 1 -4
BITMAP
F1E0
F1E0
F1E0
F1E0
FFE0
FFE0
FFE0
F1E0
F1E0
F1E0
01E0
07E0
07C0
0F80
ENDCHAR
STARTCHAR 04C9
ENCODING 1225
SWIDTH 853 0
DWIDTH 16 0
BBX 15 16 1 -3
BITMAP
F078
F078
F078
F078
F078
FFF8
FFF8
FFF8
F078
F078
F07E
F07C
F07C
001C
003C
0038
ENDCHAR
STARTCHAR 04CA
ENCODING 1226
SWIDTH 746 0
DWIDTH 14 0
BBX 12 12 1 -2
BITMAP
F1E0
F1E0
F1E0
FFE0
FFE0
FFE0
F1E0
F1F0
F1F0
F1F0
0070
00E0
ENDCHAR
STARTCHAR 04CB
ENCODING 1227
SWIDTH 746 0
DWIDTH 14 0
BBX 12 16 1 -3
BITMAP
E0F0
E0F0
E0F0
E0F0
F0F0
FFF0
7FF0
3FF0
00F0
00F0
03F0
03F0
03F0
0380
0380
0380
ENDCHAR
STARTCHAR 04CC
ENCODING 1228
SWIDTH 640 0
DWIDTH 12 0
BBX 11 12 0 -2
BITMAP
F1E0
F1E0
F1E0
F1E0
7FE0
7FE0
1DE0
03E0
03E0
03E0
0380
0380
ENDCHAR
STARTCHAR 04CD
ENCODING 1229
SWIDTH 1013 0
DWIDTH 19 0
BBX 18 16 1 -3
BITMAP
F00F00
F00F00
F81F00
FC3F00
FC3F00
FE7F00
FE7F00
F7EF00
F7EF00
F3CF00
F3CFC0
F18FC0
F00F80
000380
000380
000700
ENDCHAR
STARTCHAR 04CE
ENCODING 1230
SWIDTH 853 0
DWIDTH 16 0
BBX 15 12 1 -2
BITMAP
F038
F878
F8F8
FCF8
FDF8
EFF8
EFB8
E73E
E33E
E03C
001C
001C
ENDCHAR
STARTCHAR 04CF
ENCODING 1231
SWIDTH 320 0
DWIDTH 6 0
BBX 4 14 1 0
BITMAP
F0
F0
F0
F0
F0
F0
F0
F0
F0
F0
F0
F0
F0
F0
ENDCHAR
STARTCHAR 04D0
ENCODING 1232
SWIDTH 800 0
DWIDTH 15 0
BBX 15 17 0 0
BITMAP
0C70
0FE0
07C0
0000
03C0
07C0
07E0
0FE0
0EF0
1EF0
1E70
1C78
3FF8
3FFC
7FFC
781E
F01E
ENDCHAR
STARTCHAR 04D1
ENCODING 1233
SWIDTH 586 0
DWIDTH 11 0
BBX 11 14 0 0
BITMAP
3980
3F80
1F00
0000
3F00
7FC0
3FC0
01C0
3FE0
7FE0
F1E0
F3E0
7FE0
3DE0
ENDCHAR
STARTCHAR 04D2
ENCODING 1234
SWIDTH 800 0
DWIDTH 15 0
BBX 15 17 0 0
BITMAP
0660
0EE0
0660
0000
03C0
07C0
07E0
0FE0
0EF0
1EF0
1E70
1C78
3FF8
3FFC
7FFC
781E
F01E
ENDCHAR
STARTCHAR 04D3
ENCODING 1235
SWIDTH 586 0
DWIDTH 11 0
BBX 11 14 0 0
BITMAP
1980
3B80
1980
0000
3F00
7FC0
3FC0
01C0
3FE0
7FE0
F1E0
F3E0
7FE0
3DE0
ENDCHAR
STARTCHAR 04D4
ENCODING 1236
SWIDTH 1120 0
DWIDTH 21 0
BBX 20 13 0 0
BITMAP
01FFF0
03FFF0
03FFF0
07B800
073800
0F3FE0
0E3FE0
1E3FE0
1FF800
3FF800
7FFFF0
783FF0
F03FF0
ENDCHAR
STARTCHAR 04D5
ENCODING 1237
SWIDTH 1013 0
DWIDTH 19 0
BBX 18 10 0 0
BITMAP
3F3E00
7FFF80
3FFF80
01E3C0
3FFFC0
7FFFC0
F1E000
F3FF00
7FFF80
3E3F00
ENDCHAR
STARTCHAR 04D6
ENCODING 1238
SWIDTH 693 0
DWIDTH 13 0
BBX 11 17 1 0
BITMAP
3180
3F80
1F00
0000
FFE0
FFE0
FFE0
F000
F000
FFC0
FFC0
FFC0
F000
F000
FFE0
FFE0
FFE0
ENDCHAR
STARTCHAR 04D7
ENCODING 1239
SWIDTH 640 0
DWIDTH 12 0
BBX 11 14 0 0
BITMAP
39C0
1F80
0F00
0000
0F80
3FC0
7FE0
70E0
FFE0
FFE0
7000
7FC0
3FE0
0F80
ENDCHAR
STARTCHAR 04D8
ENCODING 1240
SWIDTH 800 0
DWIDTH 15 0
BBX 14 13 1 0
BITMAP
1F80
3FE0
7FF0
30F8
0038
FFFC
FFFC
E03C
F078
F8F8
7FF0
3FE0
0F80
ENDCHAR
STARTCHAR 04D9
ENCODING 1241
SWIDTH 640 0
DWIDTH 12 0
BBX 11 10 1 0
BITMAP
3E00
7F80
7FC0
01C0
FFE0
FFE0
E1C0
FFC0
7F80
1F00
ENDCHAR
STARTCHAR 04DA
ENCODING 1242
SWIDTH 800 0
DWIDTH 15 0
BBX 14 17 1 0
BITMAP
0CC0
1DC0
0CC0
0000
1F80
7FE0
7FF0
30F8
0038
FFFC
FFFC
E03C
F078
F8F8
7FF0
3FE0
0F80
ENDCHAR
STARTCHAR 04DB
ENCODING 1243
SWIDTH 640 0
DWIDTH 12 0
BBX 11 14 1 0
BITMAP
3300
3B80
3300
0000
3E00
7F80
7FC0
01C0
FFE0
FFE0
E1C0
FFC0
7F80
1F00
ENDCHAR
STARTCHAR 04DC
ENCODING 1244
SWIDTH 1120 0
DWIDTH 21 0
BBX 20 17 0 0
BITMAP
01DC00
01DC00
01DC00
000000
7870F0
7870F0
3C71E0
3C71C0
1E73C0
0FFF80
0FFF80
1FFFC0
1E73C0
3C71E0
3C71E0
7870F0
F870F0
ENDCHAR
STARTCHAR 04DD
ENCODING 1245
SWIDTH 960 0
DWIDTH 18 0
BBX 17 14 0 0
BITMAP
033000
077000
033000
000000
71E380
79E780
39E700
3DEF00
1FFE00
1FFE00
3FFF00
3DEF00
79E780
F9E780
ENDCHAR
STARTCHAR 04DE
ENCODING 1246
SWIDTH 640 0
DWIDTH 12 0
BBX 12 17 0 0
BITMAP
1980
1DC0
1980
0000
3F00
7FC0
7FE0
01E0
01E0
1FE0
1FC0
1FE0
00F0
40F0
7FF0
FFE0
3F80
ENDCHAR
STARTCHAR 04DF
ENCODING 1247
SWIDTH 586 0
DWIDTH 11 0
BBX 9 14 1 0
BITMAP
6600
7700
6600
0000
7E00
FF00
FF80
0780
3F00
3F80
0380
FF80
FF80
FE00
ENDCHAR
STARTCHAR 04E0
ENCODING 1248
SWIDTH 640 0
DWIDTH 12 0
BBX 12 13 0 0
BITMAP
7FE0
7FE0
7FE0
03C0
0780
0F80
0FE0
03E0
00F0
61E0
7FE0
FFC0
3F80
ENDCHAR
STARTCHAR 04E1
ENCODING 1249
SWIDTH 586 0
DWIDTH 11 0
BBX 10 14 0 -4
BITMAP
FFC0
FFC0
FF80
0780
0F00
1E00
1F80
1FC0
03C0
01C0
43C0
FFC0
FF80
7F00
ENDCHAR
STARTCHAR 04E2
ENCODING 1250
SWIDTH 800 0
DWIDTH 15 0
BBX 13 16 1 0
BITMAP
1FC0
1FC0
0000
F078
F0F8
F0F8
F1F8
F3F8
F3F8
F7F8
FF78
FE78
FC78
FC78
F878
F078
ENDCHAR
STARTCHAR 04E3
ENCODING 1251
SWIDTH 693 0
DWIDTH 13 0
BBX 11 14 1 0
BITMAP
3F80
3F80
0000
0000
F0E0
F1E0
F3E0
F7E0
FFE0
FEE0
FCE0
FCE0
F8E0
F0E0
ENDCHAR
STARTCHAR 04E4
ENCODING 1252
SWIDTH 800 0
DWIDTH 15 0
BBX 13 17 1 0
BITMAP
0CC0
1DC0
0CC0
0000
F078
F0F8
F0F8
F1F8
F3F8
F3F8
F7F8
FF78
FE78
FC78
FC78
F878
F078
ENDCHAR
STARTCHAR 04E5
ENCODING 1253
SWIDTH 693 0
DWIDTH 13 0
BBX 11 14 1 0
BITMAP
3B80
3B80
3B80
0000
F0E0
F1E0
F3E0
F7E0
FFE0
FEE0
FCE0
FCE0
F8E0
F0E0
ENDCHAR
STARTCHAR 04E6
ENCODING 1254
SWIDTH 853 0
DWIDTH 16 0
BBX 14 17 1 0
BITMAP
0CC0
1DC0
0CC0
0000
0FC0
3FF0
7FF8
F878
F03C
E03C
E03C
E03C
F03C
F878
7FF8
3FF0
0FC0
ENDCHAR
STARTCHAR 04E7
ENCODING 1255
SWIDTH 640 0
DWIDTH 12 0
BBX 12 14 0 0
BITMAP
1980
1DC0
1980
0000
0F80
3FC0
7FE0
78F0
F0F0
F0F0
78F0
7FE0
3FC0
0F80
ENDCHAR
STARTCHAR 04E8
ENCODING 1256
SWIDTH 853 0
DWIDTH 16 0
BBX 14 13 1 0
BITMAP
0FC0
3FF0
7FF8
F878
F03C
F03C
FFFC
FFFC
F03C
F878
7FF8
3FF0
0FC0
ENDCHAR
STARTCHAR 04E9
ENCODING 1257
SWIDTH 693 0
DWIDTH 13 0
BBX 12 10 0 0
BITMAP
0F80
3FE0
7DE0
70F0
FFF0
FFF0
70F0
7FE0
3FC0
0F80
ENDCHAR
STARTCHAR 04EA
ENCODING 1258
SWIDTH 853 0
DWIDTH 16 0
BBX 14 17 1 0
BITMAP
0CC0
1DC0
0CC0
0000
0FC0
3FF0
7FF8
F878
F03C
F03C
FFFC
FFFC
F03C
F878
7FF8
3FF0
0FC0
ENDCHAR
STARTCHAR 04EB
ENCODING 1259
SWIDTH 693 0
DWIDTH 13 0
BBX 12 14 0 0
BITMAP
1980
1DC0
1980
0000
0F80
3FE0
7DE0
70F0
FFF0
FFF0
70F0
7FE0
3FC0
0F80
ENDCHAR
STARTCHAR 04EC
ENCODING 1260
SWIDTH 693 0
DWIDTH 13 0
BBX 13 17 0 0
BITMAP
1980
1DC0
1980
0000
3F80
7FC0
7FE0
30F0
0078
0FF8
0FF8
0FF8
0078
70F0
FFE0
7FC0
1F80
ENDCHAR
STARTCHAR 04ED
ENCODING 1261
SWIDTH 586 0
DWIDTH 11 0
BBX 10 14 1 0
BITMAP
6600
7700
7600
0000
7E00
FF00
FF80
03C0
3FC0
3FC0
03C0
FF80
FF00
7E00
ENDCHAR
STARTCHAR 04EE
ENCODING 1262
SWIDTH 746 0
DWIDTH 14 0
BBX 14 16 0 0
BITMAP
1FE0
1FE0
0000
F03C
7878
3870
3CF0
1CE0
1FE0
0FC0
0FC0
0780
0780
3F00
3E00
7C00
ENDCHAR
STARTCHAR 04EF
ENCODING 1263
SWIDTH 640 0
DWIDTH 12 0
BBX 12 18 0 -4
BITMAP
3FC0
3FC0
0000
0000
F0F0
70E0
78E0
79E0
39C0
3FC0
1F80
1F80
0F80
0F00
0F00
7E00
FE00
7800
ENDCHAR
STARTCHAR 04F0
ENCODING 1264
SWIDTH 746 0
DWIDTH 14 0
BBX 14 17 0 0
BITMAP
0CC0
1DC0
0CC0
0000
F03C
7878
3870
3CF0
1CE0
1FE0
0FC0
0FC0
0780
0780
3F00
3E00
7C00
ENDCHAR
STARTCHAR 04F1
ENCODING 1265
SWIDTH 640 0
DWIDTH 12 0
BBX 12 18 0 -4
BITMAP
1980
3B80
1980
0000
F0F0
70E0
78E0
79E0
39C0
3FC0
1F80
1F80
0F80
0F00
0F00
7E00
FE00
7800
ENDCHAR
STARTCHAR 04F2
ENCODING 1266
SWIDTH 746 0
DWIDTH 14 0
BBX 14 17 0 0
BITMAP
0770
0EE0
0CE0
0000
F03C
7878
3870
3CF0
1CE0
1FE0
0FC0
0FC0
0780
0780
3F00
3E00
7C00
ENDCHAR
STARTCHAR 04F3
ENCODING 1267
SWIDTH 640 0
DWIDTH 12 0
BBX 12 18 0 -4
BITMAP
1EE0
1DC0
1980
0000
F0F0
70E0
78E0
79E0
39C0
3FC0
1F80
1F80
0F80
0F00
0F00
7E00
FE00
7800
ENDCHAR
STARTCHAR 04F4
ENCODING 1268
SWIDTH 746 0
DWIDTH 14 0
BBX 12 17 1 0
BITMAP
1980
3B80
1980
0000
E0F0
E0F0
E0F0
E0F0
E0F0
F0F0
FFF0
7FF0
3FF0
00F0
00F0
00F0
00F0
ENDCHAR
STARTCHAR 04F5
ENCODING 1269
SWIDTH 640 0
DWIDTH 12 0
BBX 10 14 1 0
BITMAP
3300
7700
3300
0000
E3C0
E3C0
E3C0
E3C0
FFC0
FFC0
7FC0
03C0
03C0
03C0
ENDCHAR
STARTCHAR 04F6
ENCODING 1270
SWIDTH 586 0
DWIDTH 11 0
BBX 10 16 1 -3
BITMAP
FFC0
FFC0
FFC0
F000
F000
F000
F000
F000
F000
F000
FC00
FC00
FC00
3C00
3C00
3C00
ENDCHAR
STARTCHAR 04F7
ENCODING 1271
SWIDTH 533 0
DWIDTH 10 0
BBX 9 12 1 -2
BITMAP
FF80
FF80
FF80
F000
F000
F000
F000
F800
F800
F800
3800
3800
ENDCHAR
STARTCHAR 04F8
ENCODING 1272
SWIDTH 1066 0
DWIDTH 20 0
BBX 17 17 1 0
BITMAP
033000
077000
033000
000000
F00380
F00380
F00380
F00380
FFC380
FFE380
FFF380
F0F380
F0F380
F0F380
FFF380
FFE380
FF8380
ENDCHAR
STARTCHAR 04F9
ENCODING 1273
SWIDTH 906 0
DWIDTH 17 0
BBX 14 14 1 0
BITMAP
0EC0
0EE0
0EC0
0000
F01C
F01C
F01C
FF1C
FFDC
F3DC
F1DC
F3DC
FF9C
FF1C
ENDCHAR
STARTCHAR 04FA
ENCODING 1274
SWIDTH 640 0
DWIDTH 12 0
BBX 12 17 0 -4
BITMAP
3FF0
3FF0
3FF0
3C00
3C00
3C00
FFE0
FFE0
3C00
3C00
3C00
3E00
3E00
0E00
7E00
7E00
7800
ENDCHAR
STARTCHAR 04FB
ENCODING 1275
SWIDTH 533 0
DWIDTH 10 0
BBX 10 14 0 -4
BITMAP
3FC0
3FC0
3FC0
3800
FF80
FF80
3800
3800
3E00
3E00
1E00
7E00
7C00
F800
ENDCHAR
STARTCHAR 04FC
ENCODING 1276
SWIDTH 746 0
DWIDTH 14 0
BBX 14 17 0 -4
BITMAP
7878
7C78
3CF0
1FE0
1FC0
0FC0
07C0
0FC0
1FE0
1FF0
3CF8
7878
F87C
007C
01F8
01F8
01F0
ENDCHAR
STARTCHAR 04FD
ENCODING 1277
SWIDTH 640 0
DWIDTH 12 0
BBX 12 14 0 -4
BITMAP
79E0
79C0
3FC0
1F80
0F00
1F80
1FC0
3FC0
79E0
F0E0
00F0
03E0
07E0
07C0
ENDCHAR
STARTCHAR 04FE
ENCODING 1278
SWIDTH 746 0
DWIDTH 14 0
BBX 14 13 0 0
BITMAP
7878
3CF8
3CF0
1FE0
0FC0
3FF8
3FF8
0FC0
1FE0
1FF0
3CF0
7878
F87C
ENDCHAR
STARTCHAR 04FF
ENCODING 1279
SWIDTH 640 0
DWIDTH 12 0
BBX 11 10 0 0
BITMAP
78E0
79C0
3FC0
1F80
7FE0
7FE0
1F80
3FC0
79E0
F1E0
ENDCHAR
STARTCHAR 0510
ENCODING 1296
SWIDTH 640 0
DWIDTH 12 0
BBX 11 13 1 0
BITMAP
1F80
7FE0
FFC0
F040
F000
7F80
7F80
FF80
E000
F040
FFE0
7FE0
1F80
ENDCHAR
STARTCHAR 0511
ENCODING 1297
SWIDTH 586 0
DWIDTH 11 0
BBX 9 10 1 0
BITMAP
3F00
FF80
FF80
E000
7E00
FE00
E000
FF80
FF80
3F00
ENDCHAR
STARTCHAR 0512
ENCODING 1298
SWIDTH 800 0
DWIDTH 15 0
BBX 14 17 0 -4
BITMAP
1FFC
1FFC
1FFC
1C3C
1C3C
1C3C
1C3C
1C3C
3C3C
3C3C
F83C
F83C
F03C
003C
00F8
01F8
01F0
ENDCHAR
STARTCHAR 0513
ENCODING 1299
SWIDTH 693 0
DWIDTH 13 0
BBX 12 14 0 -4
BITMAP
3FF0
3FF0
3FF0
38F0
38F0
38F0
38F0
F8F0
F0F0
F0F0
00E0
03E0
07E0
07C0
ENDCHAR
STARTCHAR 051A
ENCODING 1306
SWIDTH 853 0
DWIDTH 16 0
BBX 15 16 1 -3
BITMAP
0FC0
3FF0
7FF8
F878
F03C
E03C
E03C
E03C
F03C
F878
7FF8
3FF0
0FC0
03FC
01FE
0078
ENDCHAR
STARTCHAR 051B
ENCODING 1307
SWIDTH 693 0
DWIDTH 13 0
BBX 11 14 1 -4
BITMAP
3FE0
7FE0
FFE0
F1E0
E1E0
E1E0
F1E0
FFE0
7FE0
3FE0
01E0
01E0
01E0
01E0
ENDCHAR
STARTCHAR 051C
ENCODING 1308
SWIDTH 1173 0
DWIDTH 22 0
BBX 21 13 0 0
BITMAP
F07838
707878
78F878
78FC70
38FCF0
3DFCF0
3DDEE0
1DCFE0
1FCFE0
1F8FC0
0F8FC0
0F87C0
0F0780
ENDCHAR
STARTCHAR 051D
ENCODING 1309
SWIDTH 1013 0
DWIDTH 19 0
BBX 18 10 0 0
BITMAP
F0E1C0
71F1C0
71F3C0
7BF380
3BFB80
3FBF00
3FBF00
1F3F00
1F1E00
0F1E00
ENDCHAR
STARTCHAR 0524
ENCODING 1316
SWIDTH 853 0
DWIDTH 16 0
BBX 14 16 1 -3
BITMAP
FFF8
FFF8
FFF8
F078
F078
F078
F078
F078
F078
F078
F07C
F07C
F07C
001C
001C
001C
ENDCHAR
STARTCHAR 0525
ENCODING 1317
SWIDTH 693 0
DWIDTH 13 0
BBX 12 12 1 -2
BITMAP
FFE0
FFE0
FFE0
F1E0
F1E0
F1E0
F1E0
F1F0
F1F0
F1F0
0070
0070
ENDCHAR
STARTCHAR 0526
ENCODING 1318
SWIDTH 853 0
DWIDTH 16 0
BBX 14 16 1 -3
BITMAP
F000
F000
F000
F000
FFC0
FFE0
FFF0
F0F0
F070
F078
F07C
F07C
F07C
001C
001C
001C
ENDCHAR
STARTCHAR 0527
ENCODING 1319
SWIDTH 746 0
DWIDTH 14 0
BBX 13 16 1 -2
BITMAP
F000
F000
F000
F000
F780
FFC0
FFE0
F1E0
F1E0
F1E0
F1E0
F1F8
F1F8
F1F8
0078
0078
ENDCHAR
STARTCHAR 0528
ENCODING 1320
SWIDTH 800 0
DWIDTH 15 0
BBX 15 17 -1 -4
BITMAP
3C1E
3C1E
3C1E
3C1E
3C1E
3FFE
3FFE
3FFE
3C1E
3C1E
3C1E
3C1E
3C1E
3C00
FC00
F800
F000
ENDCHAR
STARTCHAR 0529
ENCODING 1321
SWIDTH 693 0
DWIDTH 13 0
BBX 14 14 -2 -4
BITMAP
1E3C
1E3C
1E3C
1E3C
1FFC
1FFC
1FFC
1E3C
1E3C
1E3C
1E00
7E00
7C00
F800
ENDCHAR
STARTCHAR 052E
ENCODING 1326
SWIDTH 853 0
DWIDTH 16 0
BBX 15 16 0 -3
BITMAP
1FFC
1FFC
1FFC
1C3C
1C3C
1C3C
1C3C
1C3C
3C3C
3C3C
F83E
F83E
F03E
000E
000E
000E
ENDCHAR
STARTCHAR 052F
ENCODING 1327
SWIDTH 693 0
DWIDTH 13 0
BBX 13 12 0 -2
BITMAP
3FF0
3FF0
3FF0
38F0
38F0
38F0
38F0
F8F8
F0F8
F0F8
0038
0038
ENDCHAR
STARTCHAR 1E08
ENCODING 7688
SWIDTH 746 0
DWIDTH 14 0
BBX 12 22 1 -5
BITMAP
01E0
0380
0700
0000
0FC0
3FF0
7FF0
F860
F000
F000
E000
F000
F000
F860
7FF0
3FF0
0FC0
0600
0700
0180
0F00
0400
ENDCHAR
STARTCHAR 1E09
ENCODING 7689
SWIDTH 586 0
DWIDTH 11 0
BBX 10 19 1 -5
BITMAP
0780
0E00
1C00
0000
1F00
7F80
FFC0
F180
E000
E000
E100
FFC0
7F80
3F00
0C00
0E00
0600
1E00
0800
ENDCHAR
STARTCHAR 1E0C
ENCODING 7692
SWIDTH 800 0
DWIDTH 15 0
BBX 14 17 1 -4
BITMAP
FFC0
FFE0
FFF8
F078
F03C
F03C
F03C
F03C
F03C
F078
FFF8
FFE0
FFC0
0000
0600
0E00
0600
ENDCHAR
STARTCHAR 1E0D
ENCODING 7693
SWIDTH 693 0
DWIDTH 13 0
BBX 11 18 1 -4
BITMAP
01E0
01E0
01E0
01E0
3FE0
7FE0
FFE0
F1E0
E1E0
E1E0
F1E0
FFE0
7FE0
3EE0
0000
0600
0E00
0600
ENDCHAR
STARTCHAR 1E0E
ENCODING 7694
SWIDTH 800 0
DWIDTH 15 0
BBX 14 17 1 -4
BITMAP
FFC0
FFE0
FFF8
F078
F03C
F03C
F03C
F03C
F03C
F078
FFF8
FFE0
FFC0
0000
0000
3FC0
3FC0
ENDCHAR
STARTCHAR 1E0F
ENCODING 7695
SWIDTH 693 0
DWIDTH 13 0
BBX 11 17 1 -3
BITMAP
01E0
01E0
01E0
01E0
3FE0
7FE0
FFE0
F1E0
E1E0
E1E0
F1E0
FFE0
7FE0
3EE0
0000
3FC0
3FC0
ENDCHAR
STARTCHAR 1E14
ENCODING 7700
SWIDTH 693 0
DWIDTH 13 0
BBX 11 19 1 0
BITMAP
3C00
0E00
0000
3F80
3F80
0000
FFE0
FFE0
FFE0
F000
F000
FFC0
FFC0
FFC0
F000
F000
FFE0
FFE0
FFE0
ENDCHAR
STARTCHAR 1E15
ENCODING 7701
SWIDTH 640 0
DWIDTH 12 0
BBX 11 16 1 0
BITMAP
3C00
0C00
0000
7F80
7F80
0000
1F00
7F80
FFC0
E1C0
FFE0
FFE0
E000
FF80
7FC0
1F00
ENDCHAR
STARTCHAR 1E16
ENCODING 7702
SWIDTH 693 0
DWIDTH 13 0
BBX 11 19 1 0
BITMAP
0780
0E00
0000
3F80
3F80
0000
FFE0
FFE0
FFE0
F000
F000
FFC0
FFC0
FFC0
F000
F000
FFE0
FFE0
FFE0
ENDCHAR
STARTCHAR 1E17
ENCODING 7703
SWIDTH 640 0
DWIDTH 12 0
BBX 11 16 1 0
BITMAP
0700
0C00
0000
7F80
7F80
0000
1F00
7F80
FFC0
E1C0
FFE0
FFE0
E000
FF80
7FC0
1F00
ENDCHAR
STARTCHAR 1E1C
ENCODING 7708
SWIDTH 693 0
DWIDTH 13 0
BBX 11 22 1 -5
BITMAP
3180
3F80
1F00
0000
FFE0
FFE0
FFE0
F000
F000
FFC0
FFC0
FFC0
F000
F000
FFE0
FFE0
FFE0
0C00
0E00
0300
1F00
0C00
ENDCHAR
STARTCHAR 1E1D
ENCODING 7709
SWIDTH 640 0
DWIDTH 12 0
BBX 11 19 1 -5
BITMAP
7380
3F00
1E00
0000
1F00
7F80
FFC0
E1C0
FFE0
FFE0
E000
FF80
7FC0
3F00
0C00
0E00
0600
1E00
0800
ENDCHAR
STARTCHAR 1E20
ENCODING 7712
SWIDTH 746 0
DWIDTH 14 0
BBX 12 16 1 0
BITMAP
1FE0
1FE0
0000
0FC0
3FF0
7FF0
F860
F000
F000
E070
F070
F070
F870
7FF0
3FF0
0FC0
ENDCHAR
STARTCHAR 1E21
ENCODING 7713
SWIDTH 693 0
DWIDTH 13 0
BBX 11 18 1 -4
BITMAP
3F80
3F80
0000
0000
3EE0
7FE0
FFE0
F1E0
E0E0
E1E0
F1E0
FFE0
7FE0
1DE0
41E0
7FC0
FFC0
3F00
ENDCHAR
STARTCHAR 1E24
ENCODING 7716
SWIDTH 800 0
DWIDTH 15 0
BBX 13 17 1 -4
BITMAP
F078
F078
F078
F078
F078
FFF8
FFF8
FFF8
F078
F078
F078
F078
F078
0000
0700
0700
0700
ENDCHAR
STARTCHAR 1E25
ENCODING 7717
SWIDTH 693 0
DWIDTH 13 0
BBX 11 18 1 -4
BITMAP
F000
F000
F000
F000
F780
FFC0
FFE0
F1E0
F1E0
F1E0
F1E0
F1E0
F1E0
F1E0
0000
0600
0E00
0E00
ENDCHAR
STARTCHAR 1E2A
ENCODING 7722
SWIDTH 800 0
DWIDTH 15 0
BBX 13 17 1 -4
BITMAP
F078
F078
F078
F078
F078
FFF8
FFF8
FFF8
F078
F078
F078
F078
F078
0000
18C0
1FC0
0F80
ENDCHAR
STARTCHAR 1E2B
ENCODING 7723
SWIDTH 693 0
DWIDTH 13 0
BBX 11 18 1 -4
BITMAP
F000
F000
F000
F000
F780
FFC0
FFE0
F1E0
F1E0
F1E0
F1E0
F1E0
F1E0
F1E0
0000
3180
3F80
1F00
ENDCHAR
STARTCHAR 1E2E
ENCODING 7726
SWIDTH 320 0
DWIDTH 6 0
BBX 6 19 0 0
BITMAP
1C
30
CC
EC
CC
00
78
78
78
78
78
78
78
78
78
78
78
78
78
ENDCHAR
STARTCHAR 1E2F
ENCODING 7727
SWIDTH 320 0
DWIDTH 6 0
BBX 6 17 0 0
BITMAP
1C
38
00
CC
DC
CC
00
78
78
78
78
78
78
78
78
78
78
ENDCHAR
STARTCHAR 1E36
ENCODING 7734
SWIDTH 586 0
DWIDTH 11 0
BBX 10 17 1 -4
BITMAP
F000
F000
F000
F000
F000
F000
F000
F000
F000
F000
FFC0
FFC0
FFC0
0000
0E00
0E00
0E00
ENDCHAR
STARTCHAR 1E37
ENCODING 7735
SWIDTH 320 0
DWIDTH 6 0
BBX 4 18 1 -4
BITMAP
F0
F0
F0
F0
F0
F0
F0
F0
F0
F0
F0
F0
F0
F0
00
60
E0
60
ENDCHAR
STARTCHAR 1E3A
ENCODING 7738
SWIDTH 586 0
DWIDTH 11 0
BBX 10 17 1 -4
BITMAP
F000
F000
F000
F000
F000
F000
F000
F000
F000
F000
FFC0
FFC0
FFC0
0000
0000
3F80
3F80
ENDCHAR
STARTCHAR 1E3B
ENCODING 7739
SWIDTH 320 0
DWIDTH 6 0
BBX 8 18 -1 -4
BITMAP
3C
3C
3C
3C
3C
3C
3C
3C
3C
3C
3C
3C
3C
3C
00
00
FF
FF
ENDCHAR
STARTCHAR 1E42
ENCODING 7746
SWIDTH 960 0
DWIDTH 18 0
BBX 16 17 1 -4
BITMAP
F00F
F00F
F81F
FC3F
FC3F
FE7F
FE7F
FFEF
F7EF
F3CF
F38F
F18F
F00F
0000
0180
0380
0180
ENDCHAR
STARTCHAR 1E43
ENCODING 7747
SWIDTH 1066 0
DWIDTH 20 0
BBX 17 14 1 -4
BITMAP
FF9F00
FFFF80
FFFF80
F1E780
F1E380
F1E380
F1E380
F1E380
F1E380
F1E380
000000
00C000
01C000
00C000
ENDCHAR
STARTCHAR 1E44
ENCODING 7748
SWIDTH 800 0
DWIDTH 15 0
BBX 13 18 1 0
BITMAP
0200
0700
0700
0700
0000
F078
F878
F878
FC78
FE78
FF78
FFF8
F7F8
F3F8
F1F8
F0F8
F0F8
F078
ENDCHAR
STARTCHAR 1E45
ENCODING 7749
SWIDTH 693 0
DWIDTH 13 0
BBX 11 15 1 0
BITMAP
0E00
0E00
0E00
0400
0000
F780
FFC0
FFE0
F1E0
F1E0
F1E0
F1E0
F1E0
F1E0
F1E0
ENDCHAR
STARTCHAR 1E46
ENCODING 7750
SWIDTH 800 0
DWIDTH 15 0
BBX 13 17 1 -4
BITMAP
F078
F878
F878
FC78
FE78
FF78
FFF8
F7F8
F3F8
F1F8
F0F8
F0F8
F078
0000
0700
0700
0700
ENDCHAR
STARTCHAR 1E47
ENCODING 7751
SWIDTH 693 0
DWIDTH 13 0
BBX 11 14 1 -4
BITMAP
F780
FFC0
FFE0
F1E0
F1E0
F1E0
F1E0
F1E0
F1E0
F1E0
0000
0600
0E00
0E00
ENDCHAR
STARTCHAR 1E48
ENCODING 7752
SWIDTH 800 0
DWIDTH 15 0
BBX 13 17 1 -4
BITMAP
F078
F878
F878
FC78
FE78
FF78
FFF8
F7F8
F3F8
F1F8
F0F8
F0F8
F078
0000
0000
1FC0
1FC0
ENDCHAR
STARTCHAR 1E49
ENCODING 7753
SWIDTH 693 0
DWIDTH 13 0
BBX 11 14 1 -4
BITMAP
F780
FFC0
FFE0
F1E0
F1E0
F1E0
F1E0
F1E0
F1E0
F1E0
0000
0000
3F80
3F80
ENDCHAR
STARTCHAR 1E4C
ENCODING 7756
SWIDTH 853 0
DWIDTH 16 0
BBX 14 19 1 0
BITMAP
03C0
0300
0000
0FE0
19C0
0000
0FC0
3FF0
7FF8
F878
F03C
F03C
E03C
F03C
F03C
F878
7FF8
3FF0
0FC0
ENDCHAR
STARTCHAR 1E4D
ENCODING 7757
SWIDTH 640 0
DWIDTH 12 0
BBX 11 17 1 0
BITMAP
0700
0E00
0000
3980
3F80
6700
0000
1F00
7F80
FFC0
F1E0
E1E0
E1E0
F1E0
FFC0
7F80
1F00
ENDCHAR
STARTCHAR 1E4E
ENCODING 7758
SWIDTH 853 0
DWIDTH 16 0
BBX 14 20 1 0
BITMAP
0CC0
0DC0
0CC0
0000
0FE0
19C0
0000
0FC0
3FF0
7FF8
F878
F03C
F03C
E03C
F03C
F03C
F878
7FF8
3FF0
0FC0
ENDCHAR
STARTCHAR 1E4F
ENCODING 7759
SWIDTH 640 0
DWIDTH 12 0
BBX 11 18 1 0
BITMAP
3300
3B80
3300
0000
3980
3F80
6700
0000
1F00
7F80
FFC0
F1E0
E1E0
E1E0
F1E0
FFC0
7F80
1F00
ENDCHAR
STARTCHAR 1E50
ENCODING 7760
SWIDTH 853 0
DWIDTH 16 0
BBX 14 19 1 0
BITMAP
0E00
0300
0000
1FE0
1FE0
0000
0FC0
3FF0
7FF8
F878
F03C
F03C
E03C
F03C
F03C
F878
7FF8
3FF0
0FC0
ENDCHAR
STARTCHAR 1E51
ENCODING 7761
SWIDTH 640 0
DWIDTH 12 0
BBX 11 16 1 0
BITMAP
3C00
0E00
0000
7F80
7F80
0000
1F00
7F80
FFC0
F1E0
E1E0
E1E0
F1E0
FFC0
7F80
1F00
ENDCHAR
STARTCHAR 1E52
ENCODING 7762
SWIDTH 853 0
DWIDTH 16 0
BBX 14 19 1 0
BITMAP
03C0
0300
0000
1FE0
1FE0
0000
0FC0
3FF0
7FF8
F878
F03C
F03C
E03C
F03C
F03C
F878
7FF8
3FF0
0FC0
ENDCHAR
STARTCHAR 1E53
ENCODING 7763
SWIDTH 640 0
DWIDTH 12 0
BBX 11 16 1 0
BITMAP
0700
0E00
0000
7F80
7F80
0000
1F00
7F80
FFC0
F1E0
E1E0
E1E0
F1E0
FFC0
7F80
1F00
ENDCHAR
STARTCHAR 1E5A
ENCODING 7770
SWIDTH 746 0
DWIDTH 14 0
BBX 12 17 1 -4
BITMAP
FF80
FFE0
FFF0
F0F0
F0F0
F0F0
F0F0
FFF0
FFE0
FFC0
F1E0
F1E0
F0F0
0000
0600
0700
0600
ENDCHAR
STARTCHAR 1E5B
ENCODING 7771
SWIDTH 426 0
DWIDTH 8 0
BBX 7 14 1 -4
BITMAP
F6
FE
FE
F0
F0
F0
F0
F0
F0
F0
00
60
E0
60
ENDCHAR
STARTCHAR 1E5E
ENCODING 7774
SWIDTH 746 0
DWIDTH 14 0
BBX 12 17 1 -4
BITMAP
FF80
FFE0
FFF0
F0F0
F0F0
F0F0
F0F0
FFF0
FFE0
FFC0
F1E0
F1E0
F0F0
0000
0000
3FC0
3FC0
ENDCHAR
STARTCHAR 1E5F
ENCODING 7775
SWIDTH 426 0
DWIDTH 8 0
BBX 9 14 -1 -4
BITMAP
3D80
3F80
3F80
3C00
3C00
3C00
3C00
3C00
3C00
3C00
0000
0000
FF00
FF00
ENDCHAR
STARTCHAR 1E60
ENCODING 7776
SWIDTH 640 0
DWIDTH 12 0
BBX 12 18 0 0
BITMAP
0600
0F00
0F00
0600
0000
1FC0
3FE0
7FE0
7040
7800
7F00
3FE0
0FE0
01F0
60F0
7FE0
FFE0
3F80
ENDCHAR
STARTCHAR 1E61
ENCODING 7777
SWIDTH 533 0
DWIDTH 10 0
BBX 9 15 1 0
BITMAP
1800
3C00
3C00
1800
0000
3F00
FF00
FF00
E000
FE00
7F00
0780
FF80
FF00
7E00
ENDCHAR
STARTCHAR 1E62
ENCODING 7778
SWIDTH 640 0
DWIDTH 12 0
BBX 12 17 0 -4
BITMAP
1FC0
3FE0
7FE0
7040
7800
7F00
3FE0
0FE0
01F0
60F0
7FE0
FFE0
3F80
0000
0600
0700
0600
ENDCHAR
STARTCHAR 1E63
ENCODING 7779
SWIDTH 533 0
DWIDTH 10 0
BBX 9 14 1 -4
BITMAP
3F00
FF00
FF00
E000
FE00
7F00
0780
FF80
FF00
7E00
0000
1800
1800
1800
ENDCHAR
STARTCHAR 1E64
ENCODING 7780
SWIDTH 640 0
DWIDTH 12 0
BBX 12 20 0 0
BITMAP
0600
0700
0600
0000
0380
0700
0000
1FC0
3FE0
7FE0
7040
7800
7F00
3FE0
0FE0
01F0
60F0
7FE0
FFE0
3F80
ENDCHAR
STARTCHAR 1E65
ENCODING 7781
SWIDTH 533 0
DWIDTH 10 0
BBX 9 17 1 0
BITMAP
1800
1800
1800
0000
0E00
1800
0000
3F00
FF00
FF00
E000
FE00
7F00
0780
FF80
FF00
7E00
ENDCHAR
STARTCHAR 1E66
ENCODING 7782
SWIDTH 640 0
DWIDTH 12 0
BBX 12 20 0 0
BITMAP
0600
0700
0600
0000
19C0
0F00
0000
1FC0
3FE0
7FE0
7040
7800
7F00
3FE0
0FE0
01F0
60F0
7FE0
FFE0
3F80
ENDCHAR
STARTCHAR 1E67
ENCODING 7783
SWIDTH 533 0
DWIDTH 10 0
BBX 9 17 1 0
BITMAP
1800
1800
1800
0000
7E00
3C00
0000
3F00
FF00
FF00
E000
FE00
7F00
0780
FF80
FF00
7E00
ENDCHAR
STARTCHAR 1E68
ENCODING 7784
SWIDTH 640 0
DWIDTH 12 0
BBX 12 22 0 -4
BITMAP
0600
0F00
0F00
0600
0000
1FC0
3FE0
7FE0
7040
7800
7F00
3FE0
0FE0
01F0
60F0
7FE0
FFE0
3F80
0000
0600
0700
0600
ENDCHAR
STARTCHAR 1E69
ENCODING 7785
SWIDTH 533 0
DWIDTH 10 0
BBX 9 19 1 -4
BITMAP
1800
3C00
3C00
1800
0000
3F00
FF00
FF00
E000
FE00
7F00
0780
FF80
FF00
7E00
0000
1800
1800
1800
ENDCHAR
STARTCHAR 1E6C
ENCODING 7788
SWIDTH 640 0
DWIDTH 12 0
BBX 12 17 0 -4
BITMAP
FFF0
FFF0
FFF0
0F00
0F00
0F00
0F00
0F00
0F00
0F00
0F00
0F00
0F00
0000
0600
0E00
0600
ENDCHAR
STARTCHAR 1E6D
ENCODING 7789
SWIDTH 426 0
DWIDTH 8 0
BBX 8 17 0 -4
BITMAP
38
38
38
FE
FE
FE
38
38
38
38
3E
3F
1F
00
0C
0C
0C
ENDCHAR
STARTCHAR 1E6E
ENCODING 7790
SWIDTH 640 0
DWIDTH 12 0
BBX 12 17 0 -4
BITMAP
FFF0
FFF0
FFF0
0F00
0F00
0F00
0F00
0F00
0F00
0F00
0F00
0F00
0F00
0000
0000
3FC0
3FC0
ENDCHAR
STARTCHAR 1E6F
ENCODING 7791
SWIDTH 426 0
DWIDTH 8 0
BBX 9 16 0 -3
BITMAP
3800
3800
3800
FE00
FE00
FE00
3800
3800
3800
3800
3E00
3F00
1F00
0000
7F80
7F80
ENDCHAR
STARTCHAR 1E78
ENCODING 7800
SWIDTH 800 0
DWIDTH 15 0
BBX 13 19 1 0
BITMAP
0380
0700
0C00
1FC0
1B80
0000
F078
F078
F078
F078
F078
F078
F078
F078
F070
78F0
7FF0
3FE0
1F80
ENDCHAR
STARTCHAR 1E79
ENCODING 7801
SWIDTH 693 0
DWIDTH 13 0
BBX 11 17 1 0
BITMAP
0780
0E00
0000
1D80
3F80
2300
0000
F1E0
F1E0
F1E0
F1E0
F1E0
F1E0
F1E0
FFE0
7FE0
3DE0
ENDCHAR
STARTCHAR 1E7A
ENCODING 7802
SWIDTH 800 0
DWIDTH 15 0
BBX 13 20 1 0
BITMAP
1D80
1DC0
0980
0000
1FC0
1FC0
0000
F078
F078
F078
F078
F078
F078
F078
F078
F070
78F0
7FF0
3FE0
1F80
ENDCHAR
STARTCHAR 1E7B
ENCODING 7803
SWIDTH 693 0
DWIDTH 13 0
BBX 11 17 1 0
BITMAP
3B00
3B80
1300
0000
3F80
3F80
0000
F1E0
F1E0
F1E0
F1E0
F1E0
F1E0
F1E0
FFE0
7FE0
3DE0
ENDCHAR
STARTCHAR 1E80
ENCODING 7808
SWIDTH 1173 0
DWIDTH 22 0
BBX 22 17 0 0
BITMAP
01E000
007000
003000
000000
F0783C
787838
787C38
78FC78
3CFC70
3CFE70
3DEEF0
1FCEE0
1FCFE0
1FC7E0
0F87C0
0F87C0
0F87C0
ENDCHAR
STARTCHAR 1E81
ENCODING 7809
SWIDTH 960 0
DWIDTH 18 0
BBX 18 14 0 0
BITMAP
078000
01C000
00C000
000000
E1E1C0
F1E380
71E380
7BF380
3BF700
3BF700
3F3F00
1F3E00
1F3E00
1E1E00
ENDCHAR
STARTCHAR 1E82
ENCODING 7810
SWIDTH 1173 0
DWIDTH 22 0
BBX 22 17 0 0
BITMAP
001E00
001C00
003000
000000
F0783C
787838
787C38
78FC78
3CFC70
3CFE70
3DEEF0
1FCEE0
1FCFE0
1FC7E0
0F87C0
0F87C0
0F87C0
ENDCHAR
STARTCHAR 1E83
ENCODING 7811
SWIDTH 960 0
DWIDTH 18 0
BBX 18 14 0 0
BITMAP
007800
00E000
01C000
000000
E1E1C0
F1E380
71E380
7BF380
3BF700
3BF700
3F3F00
1F3E00
1F3E00
1E1E00
ENDCHAR
STARTCHAR 1E84
ENCODING 7812
SWIDTH 1173 0
DWIDTH 22 0
BBX 22 17 0 0
BITMAP
00CC00
00EE00
00CC00
000000
F0783C
787838
787C38
78FC78
3CFC70
3CFE70
3DEEF0
1FCEE0
1FCFE0
1FC7E0
0F87C0
0F87C0
0F87C0
ENDCHAR
STARTCHAR 1E85
ENCODING 7813
SWIDTH 960 0
DWIDTH 18 0
BBX 18 14 0 0
BITMAP
033000
077000
033000
000000
E1E1C0
F1E380
71E380
7BF380
3BF700
3BF700
3F3F00
1F3E00
1F3E00
1E1E00
ENDCHAR
STARTCHAR 1E8E
ENCODING 7822
SWIDTH 693 0
DWIDTH 13 0
BBX 13 18 0 0
BITMAP
0200
0700
0700
0700
0000
F078
7070
78F0
3CE0
3DE0
1FC0
0F80
0F80
0700
0700
0700
0700
0700
ENDCHAR
STARTCHAR 1E8F
ENCODING 7823
SWIDTH 640 0
DWIDTH 12 0
BBX 12 19 0 -4
BITMAP
0E00
0E00
0E00
0600
0000
F0F0
F0E0
71E0
79C0
39C0
3FC0
1F80
1F80
1F00
0F00
0E00
7E00
FC00
7800
ENDCHAR
STARTCHAR 1E92
ENCODING 7826
SWIDTH 693 0
DWIDTH 13 0
BBX 11 17 1 -4
BITMAP
FFE0
FFE0
FFE0
03C0
0780
0F00
1F00
3E00
3C00
7800
FFE0
FFE0
FFE0
0000
0600
0E00
0E00
ENDCHAR
STARTCHAR 1E93
ENCODING 7827
SWIDTH 533 0
DWIDTH 10 0
BBX 9 14 1 -4
BITMAP
FF80
FF80
FF00
0F00
1E00
3C00
7800
FF80
FF80
FF80
0000
1800
1C00
1800
ENDCHAR
STARTCHAR 1E97
ENCODING 7831
SWIDTH 426 0
DWIDTH 8 0
BBX 8 17 0 0
BITMAP
CC
EE
CC
00
38
38
38
FE
FE
FE
38
38
38
38
3E
3F
1F
ENDCHAR
STARTCHAR 1E9E
ENCODING 7838
SWIDTH 800 0
DWIDTH 15 0
BBX 13 13 1 0
BITMAP
0FC0
3FF0
7FF0
78F0
F1E0
F3C0
F3F0
F3F8
F078
F078
F3F8
F7F0
F7E0
ENDCHAR
STARTCHAR 1EA0
ENCODING 7840
SWIDTH 800 0
DWIDTH 15 0
BBX 15 17 0 -4
BITMAP
0780
07C0
0FC0
0FE0
0EE0
1EF0
1CF0
3C78
3FF8
7FF8
7FFC
F03C
F01E
0000
0300
0380
0380
ENDCHAR
STARTCHAR 1EA1
ENCODING 7841
SWIDTH 640 0
DWIDTH 12 0
BBX 10 14 1 -4
BITMAP
7E00
FF80
7F80
03C0
3FC0
FFC0
E3C0
E7C0
FFC0
7BC0
0000
1C00
1C00
1C00
ENDCHAR
STARTCHAR 1EA2
ENCODING 7842
SWIDTH 800 0
DWIDTH 15 0
BBX 15 19 0 0
BITMAP
0380
07C0
00C0
00C0
0180
0000
0780
07C0
0FC0
0FE0
0EE0
1EF0
1CF0
3C78
3FF8
7FF8
7FFC
F03C
F01E
ENDCHAR
STARTCHAR 1EA3
ENCODING 7843
SWIDTH 640 0
DWIDTH 12 0
BBX 10 16 1 0
BITMAP
0C00
1E00
0600
0600
0400
0000
7E00
FF80
7F80
03C0
3FC0
FFC0
E3C0
E7C0
FFC0
7BC0
ENDCHAR
STARTCHAR 1EA4
ENCODING 7844
SWIDTH 800 0
DWIDTH 15 0
BBX 15 18 0 0
BITMAP
001E
0038
07C0
0CE0
0000
0780
07C0
0FC0
0FE0
0EE0
1EF0
1CF0
3C78
3FF8
7FF8
7FFC
F03C
F01E
ENDCHAR
STARTCHAR 1EA5
ENCODING 7845
SWIDTH 640 0
DWIDTH 12 0
BBX 12 15 1 0
BITMAP
0070
00C0
1E00
7300
0000
7E00
FF80
7F80
03C0
3FC0
FFC0
E3C0
E7C0
FFC0
7BC0
ENDCHAR
STARTCHAR 1EA6
ENCODING 7846
SWIDTH 800 0
DWIDTH 15 0
BBX 15 18 0 0
BITMAP
0070
0038
07C0
0CE0
0000
0780
07C0
0FC0
0FE0
0EE0
1EF0
1CF0
3C78
3FF8
7FF8
7FFC
F03C
F01E
ENDCHAR
STARTCHAR 1EA7
ENCODING 7847
SWIDTH 640 0
DWIDTH 12 0
BBX 10 15 1 0
BITMAP
03C0
00C0
1E00
7300
0000
7E00
FF80
7F80
03C0
3FC0
FFC0
E3C0
E7C0
FFC0
7BC0
ENDCHAR
STARTCHAR 1EA8
ENCODING 7848
SWIDTH 800 0
DWIDTH 15 0
BBX 15 19 0 0
BITMAP
0070
0010
0010
07C0
0CE0
0000
0780
07C0
0FC0
0FE0
0EE0
1EF0
1CF0
3C78
3FF8
7FF8
7FFC
F03C
F01E
ENDCHAR
STARTCHAR 1EA9
ENCODING 7849
SWIDTH 640 0
DWIDTH 12 0
BBX 10 16 1 0
BITMAP
0380
00C0
00C0
1E00
7300
0000
7E00
FF80
7F80
03C0
3FC0
FFC0
E3C0
E7C0
FFC0
7BC0
ENDCHAR
STARTCHAR 1EAA
ENCODING 7850
SWIDTH 800 0
DWIDTH 15 0
BBX 15 20 0 0
BITMAP
0460
0FE0
0DC0
0000
07C0
0CE0
0000
0780
07C0
0FC0
0FE0
0EE0
1EF0
1CF0
3C78
3FF8
7FF8
7FFC
F03C
F01E
ENDCHAR
STARTCHAR 1EAB
ENCODING 7851
SWIDTH 640 0
DWIDTH 12 0
BBX 10 17 1 0
BITMAP
1180
7F00
6700
0000
1E00
7300
0000
7E00
FF80
7F80
03C0
3FC0
FFC0
E3C0
E7C0
FFC0
7BC0
ENDCHAR
STARTCHAR 1EAC
ENCODING 7852
SWIDTH 800 0
DWIDTH 15 0
BBX 15 21 0 -4
BITMAP
0380
07C0
0CE0
0000
0780
07C0
0FC0
0FE0
0EE0
1EF0
1CF0
3C78
3FF8
7FF8
7FFC
F03C
F01E
0000
0300
0380
0380
ENDCHAR
STARTCHAR 1EAD
ENCODING 7853
SWIDTH 640 0
DWIDTH 12 0
BBX 10 18 1 -4
BITMAP
1E00
3F00
7380
0000
7E00
FF80
7F80
03C0
3FC0
FFC0
E3C0
E7C0
FFC0
7BC0
0000
1C00
1C00
1C00
ENDCHAR
STARTCHAR 1EAE
ENCODING 7854
SWIDTH 800 0
DWIDTH 15 0
BBX 15 19 0 0
BITMAP
01C0
0380
0000
0FE0
07C0
0000
0780
07C0
0FC0
0FE0
0EE0
1EF0
1CF0
3C78
3FF8
7FF8
7FFC
F03C
F01E
ENDCHAR
STARTCHAR 1EAF
ENCODING 7855
SWIDTH 640 0
DWIDTH 12 0
BBX 10 16 1 0
BITMAP
0F00
0C00
0000
7F00
1E00
0000
7E00
FF80
7F80
03C0
3FC0
FFC0
E3C0
E7C0
FFC0
7BC0
ENDCHAR
STARTCHAR 1EB0
ENCODING 7856
SWIDTH 800 0
DWIDTH 15 0
BBX 15 19 0 0
BITMAP
0F00
0380
0000
0FE0
07C0
0000
0780
07C0
0FC0
0FE0
0EE0
1EF0
1CF0
3C78
3FF8
7FF8
7FFC
F03C
F01E
ENDCHAR
STARTCHAR 1EB1
ENCODING 7857
SWIDTH 640 0
DWIDTH 12 0
BBX 10 16 1 0
BITMAP
3800
0C00
0000
7F00
1E00
0000
7E00
FF80
7F80
03C0
3FC0
FFC0
E3C0
E7C0
FFC0
7BC0
ENDCHAR
STARTCHAR 1EB2
ENCODING 7858
SWIDTH 800 0
DWIDTH 15 0
BBX 15 20 0 0
BITMAP
0380
0080
0180
0C60
0FE0
07C0
0000
0780
07C0
0FC0
0FE0
0EE0
1EF0
1CF0
3C78
3FF8
7FF8
7FFC
F03C
F01E
ENDCHAR
STARTCHAR 1EB3
ENCODING 7859
SWIDTH 640 0
DWIDTH 12 0
BBX 10 17 1 0
BITMAP
1C00
0600
0600
6380
7F00
1E00
0000
7E00
FF80
7F80
03C0
3FC0
FFC0
E3C0
E7C0
FFC0
7BC0
ENDCHAR
STARTCHAR 1EB4
ENCODING 7860
SWIDTH 800 0
DWIDTH 15 0
BBX 15 20 0 0
BITMAP
0460
0FE0
0DC0
0000
0FE0
07C0
0000
0780
07C0
0FC0
0FE0
0EE0
1EF0
1CF0
3C78
3FF8
7FF8
7FFC
F03C
F01E
ENDCHAR
STARTCHAR 1EB5
ENCODING 7861
SWIDTH 640 0
DWIDTH 12 0
BBX 10 17 1 0
BITMAP
1180
7F00
6700
0000
7F00
1E00
0000
7E00
FF80
7F80
03C0
3FC0
FFC0
E3C0
E7C0
FFC0
7BC0
ENDCHAR
STARTCHAR 1EB6
ENCODING 7862
SWIDTH 800 0
DWIDTH 15 0
BBX 15 21 0 -4
BITMAP
0C60
0FE0
0780
0000
0780
07C0
0FC0
0FE0
0EE0
1EF0
1CF0
3C78
3FF8
7FF8
7FFC
F03C
F01E
0000
0300
0380
0380
ENDCHAR
STARTCHAR 1EB7
ENCODING 7863
SWIDTH 640 0
DWIDTH 12 0
BBX 10 18 1 -4
BITMAP
6300
3F00
1E00
0000
7E00
FF80
7F80
03C0
3FC0
FFC0
E3C0
E7C0
FFC0
7BC0
0000
1C00
1C00
1C00
ENDCHAR
STARTCHAR 1EB8
ENCODING 7864
SWIDTH 693 0
DWIDTH 13 0
BBX 11 17 1 -4
BITMAP
FFE0
FFE0
FFE0
F000
F000
FFC0
FFC0
FFC0
F000
F000
FFE0
FFE0
FFE0
0000
0E00
0E00
0E00
ENDCHAR
STARTCHAR 1EB9
ENCODING 7865
SWIDTH 640 0
DWIDTH 12 0
BBX 11 14 1 -4
BITMAP
1F00
7F80
FFC0
E1C0
FFE0
FFE0
E000
FF80
7FC0
1F00
0000
0C00
0C00
0C00
ENDCHAR
STARTCHAR 1EBA
ENCODING 7866
SWIDTH 693 0
DWIDTH 13 0
BBX 11 19 1 0
BITMAP
0E00
0F00
0300
0300
0200
0000
FFE0
FFE0
FFE0
F000
F000
FFC0
FFC0
FFC0
F000
F000
FFE0
FFE0
FFE0
ENDCHAR
STARTCHAR 1EBB
ENCODING 7867
SWIDTH 640 0
DWIDTH 12 0
BBX 11 16 1 0
BITMAP
0C00
1E00
0700
0600
0600
0000
1F00
7F80
FFC0
E1C0
FFE0
FFE0
E000
FF80
7FC0
1F00
ENDCHAR
STARTCHAR 1EBC
ENCODING 7868
SWIDTH 693 0
DWIDTH 13 0
BBX 11 17 1 0
BITMAP
1D80
3F80
2700
0000
FFE0
FFE0
FFE0
F000
F000
FFC0
FFC0
FFC0
F000
F000
FFE0
FFE0
FFE0
ENDCHAR
STARTCHAR 1EBD
ENCODING 7869
SWIDTH 640 0
DWIDTH 12 0
BBX 11 14 1 0
BITMAP
3980
7F80
6700
0000
1F00
7F80
FFC0
E1C0
FFE0
FFE0
E000
FF80
7FC0
1F00
ENDCHAR
STARTCHAR 1EBE
ENCODING 7870
SWIDTH 693 0
DWIDTH 13 0
BBX 13 18 1 0
BITMAP
0078
00E0
1F00
3B80
0000
FFE0
FFE0
FFE0
F000
F000
FFC0
FFC0
FFC0
F000
F000
FFE0
FFE0
FFE0
ENDCHAR
STARTCHAR 1EBF
ENCODING 7871
SWIDTH 640 0
DWIDTH 12 0
BBX 12 15 1 0
BITMAP
0070
00E0
1E00
3300
0000
1F00
7F80
FFC0
E1C0
FFE0
FFE0
E000
FF80
7FC0
1F00
ENDCHAR
STARTCHAR 1EC0
ENCODING 7872
SWIDTH 693 0
DWIDTH 13 0
BBX 11 18 1 0
BITMAP
01C0
00E0
1F00
3B80
0000
FFE0
FFE0
FFE0
F000
F000
FFC0
FFC0
FFC0
F000
F000
FFE0
FFE0
FFE0
ENDCHAR
STARTCHAR 1EC1
ENCODING 7873
SWIDTH 640 0
DWIDTH 12 0
BBX 11 15 1 0
BITMAP
03C0
00E0
1E00
3300
0000
1F00
7F80
FFC0
E1C0
FFE0
FFE0
E000
FF80
7FC0
1F00
ENDCHAR
STARTCHAR 1EC2
ENCODING 7874
SWIDTH 693 0
DWIDTH 13 0
BBX 11 19 1 0
BITMAP
01C0
0060
0040
1F00
3B80
0000
FFE0
FFE0
FFE0
F000
F000
FFC0
FFC0
FFC0
F000
F000
FFE0
FFE0
FFE0
ENDCHAR
STARTCHAR 1EC3
ENCODING 7875
SWIDTH 640 0
DWIDTH 12 0
BBX 11 16 1 0
BITMAP
01C0
00C0
00C0
1E00
3300
0000
1F00
7F80
FFC0
E1C0
FFE0
FFE0
E000
FF80
7FC0
1F00
ENDCHAR
STARTCHAR 1EC4
ENCODING 7876
SWIDTH 693 0
DWIDTH 13 0
BBX 11 20 1 0
BITMAP
0980
3F80
3700
0000
1F00
3B80
0000
FFE0
FFE0
FFE0
F000
F000
FFC0
FFC0
FFC0
F000
F000
FFE0
FFE0
FFE0
ENDCHAR
STARTCHAR 1EC5
ENCODING 7877
SWIDTH 640 0
DWIDTH 12 0
BBX 11 17 1 0
BITMAP
1180
3F80
6700
0000
1E00
3300
0000
1F00
7F80
FFC0
E1C0
FFE0
FFE0
E000
FF80
7FC0
1F00
ENDCHAR
STARTCHAR 1EC6
ENCODING 7878
SWIDTH 693 0
DWIDTH 13 0
BBX 11 21 1 -4
BITMAP
0E00
1F00
3180
0000
FFE0
FFE0
FFE0
F000
F000
FFC0
FFC0
FFC0
F000
F000
FFE0
FFE0
FFE0
0000
0E00
0E00
0E00
ENDCHAR
STARTCHAR 1EC7
ENCODING 7879
SWIDTH 640 0
DWIDTH 12 0
BBX 11 18 1 -4
BITMAP
1E00
3F00
7380
0000
1F00
7F80
FFC0
E1C0
FFE0
FFE0
E000
FF80
7FC0
1F00
0000
0C00
0C00
0C00
ENDCHAR
STARTCHAR 1EC8
ENCODING 7880
SWIDTH 320 0
DWIDTH 6 0
BBX 5 19 1 0
BITMAP
60
F0
18
30
30
00
F0
F0
F0
F0
F0
F0
F0
F0
F0
F0
F0
F0
F0
ENDCHAR
STARTCHAR 1EC9
ENCODING 7881
SWIDTH 320 0
DWIDTH 6 0
BBX 4 16 1 0
BITMAP
60
F0
30
30
20
00
F0
F0
F0
F0
F0
F0
F0
F0
F0
F0
ENDCHAR
STARTCHAR 1ECA
ENCODING 7882
SWIDTH 320 0
DWIDTH 6 0
BBX 4 17 1 -4
BITMAP
F0
F0
F0
F0
F0
F0
F0
F0
F0
F0
F0
F0
F0
00
60
70
60
ENDCHAR
STARTCHAR 1ECB
ENCODING 7883
SWIDTH 320 0
DWIDTH 6 0
BBX 4 19 1 -4
BITMAP
E0
F0
F0
60
00
F0
F0
F0
F0
F0
F0
F0
F0
F0
F0
00
60
E0
60
ENDCHAR
STARTCHAR 1ECC
ENCODING 7884
SWIDTH 853 0
DWIDTH 16 0
BBX 14 17 1 -4
BITMAP
0FC0
3FF0
7FF8
F878
F03C
F03C
E03C
F03C
F03C
F878
7FF8
3FF0
0FC0
0000
0300
0700
0300
ENDCHAR
STARTCHAR 1ECD
ENCODING 7885
SWIDTH 640 0
DWIDTH 12 0
BBX 11 14 1 -4
BITMAP
1F00
7F80
FFC0
F1E0
E1E0
E1E0
F1E0
FFC0
7F80
1F00
0000
0C00
0E00
0C00
ENDCHAR
STARTCHAR 1ECE
ENCODING 7886
SWIDTH 853 0
DWIDTH 16 0
BBX 14 18 1 0
BITMAP
0780
0780
0180
0180
0000
0FC0
3FF0
7FF8
F878
F03C
F03C
E03C
F03C
F03C
F878
7FF8
3FF0
0FC0
ENDCHAR
STARTCHAR 1ECF
ENCODING 7887
SWIDTH 640 0
DWIDTH 12 0
BBX 11 16 1 0
BITMAP
0C00
1E00
0300
0700
0600
0000
1F00
7F80
FFC0
F1E0
E1E0
E1E0
F1E0
FFC0
7F80
1F00
ENDCHAR
STARTCHAR 1ED0
ENCODING 7888
SWIDTH 853 0
DWIDTH 16 0
BBX 14 18 1 0
BITMAP
001C
0038
0780
0DC0
1000
0FC0
3FF0
7FF8
F878
F03C
F03C
E03C
F03C
F03C
F878
7FF8
3FF0
0FC0
ENDCHAR
STARTCHAR 1ED1
ENCODING 7889
SWIDTH 640 0
DWIDTH 12 0
BBX 13 15 1 0
BITMAP
0078
00E0
1F00
3380
0000
1F00
7F80
FFC0
F1E0
E1E0
E1E0
F1E0
FFC0
7F80
1F00
ENDCHAR
STARTCHAR 1ED2
ENCODING 7890
SWIDTH 853 0
DWIDTH 16 0
BBX 14 18 1 0
BITMAP
00E0
0070
0780
0DC0
1000
0FC0
3FF0
7FF8
F878
F03C
F03C
E03C
F03C
F03C
F878
7FF8
3FF0
0FC0
ENDCHAR
STARTCHAR 1ED3
ENCODING 7891
SWIDTH 640 0
DWIDTH 12 0
BBX 11 15 1 0
BITMAP
03C0
00E0
1F00
3380
0000
1F00
7F80
FFC0
F1E0
E1E0
E1E0
F1E0
FFC0
7F80
1F00
ENDCHAR
STARTCHAR 1ED4
ENCODING 7892
SWIDTH 853 0
DWIDTH 16 0
BBX 14 18 1 0
BITMAP
0070
0030
07A0
0DC0
1000
0FC0
3FF0
7FF8
F878
F03C
F03C
E03C
F03C
F03C
F878
7FF8
3FF0
0FC0
ENDCHAR
STARTCHAR 1ED5
ENCODING 7893
SWIDTH 640 0
DWIDTH 12 0
BBX 11 16 1 0
BITMAP
01C0
0040
00C0
1F00
3380
0000
1F00
7F80
FFC0
F1E0
E1E0
E1E0
F1E0
FFC0
7F80
1F00
ENDCHAR
STARTCHAR 1ED6
ENCODING 7894
SWIDTH 853 0
DWIDTH 16 0
BBX 14 20 1 0
BITMAP
0460
0FE0
19C0
0000
0780
0DC0
1000
0FC0
3FF0
7FF8
F878
F03C
F03C
E03C
F03C
F03C
F878
7FF8
3FF0
0FC0
ENDCHAR
STARTCHAR 1ED7
ENCODING 7895
SWIDTH 640 0
DWIDTH 12 0
BBX 11 17 1 0
BITMAP
1180
3F80
6700
0000
1F00
3380
0000
1F00
7F80
FFC0
F1E0
E1E0
E1E0
F1E0
FFC0
7F80
1F00
ENDCHAR
STARTCHAR 1ED8
ENCODING 7896
SWIDTH 853 0
DWIDTH 16 0
BBX 14 21 1 -4
BITMAP
0780
0FC0
1CC0
0000
0FC0
3FF0
7FF8
F878
F03C
F03C
E03C
F03C
F03C
F878
7FF8
3FF0
0FC0
0000
0300
0700
0300
ENDCHAR
STARTCHAR 1ED9
ENCODING 7897
SWIDTH 640 0
DWIDTH 12 0
BBX 11 18 1 -4
BITMAP
1E00
3F00
3380
0000
1F00
7F80
FFC0
F1E0
E1E0
E1E0
F1E0
FFC0
7F80
1F00
0000
0C00
0E00
0C00
ENDCHAR
STARTCHAR 1EDA
ENCODING 7898
SWIDTH 853 0
DWIDTH 16 0
BBX 14 17 1 0
BITMAP
01E0
038C
030C
000C
0FFC
3FF8
7FF8
F87C
F03C
F03C
E03C
F03C
F03C
F878
7FF8
3FF0
0FC0
ENDCHAR
STARTCHAR 1EDB
ENCODING 7899
SWIDTH 640 0
DWIDTH 12 0
BBX 11 14 1 0
BITMAP
0780
0740
0C60
00E0
1FE0
7FC0
FFC0
F1E0
E1E0
E1E0
F1E0
FFC0
7F80
1F00
ENDCHAR
STARTCHAR 1EDC
ENCODING 7900
SWIDTH 853 0
DWIDTH 16 0
BBX 14 17 1 0
BITMAP
1E00
0E0C
030C
000C
0FFC
3FF8
7FF8
F87C
F03C
F03C
E03C
F03C
F03C
F878
7FF8
3FF0
0FC0
ENDCHAR
STARTCHAR 1EDD
ENCODING 7901
SWIDTH 640 0
DWIDTH 12 0
BBX 11 14 1 0
BITMAP
3800
1C40
0E60
00E0
1FE0
7FC0
FFC0
F1E0
E1E0
E1E0
F1E0
FFC0
7F80
1F00
ENDCHAR
STARTCHAR 1EDE
ENCODING 7902
SWIDTH 853 0
DWIDTH 16 0
BBX 14 18 1 0
BITMAP
0780
0780
0184
018C
000C
0FFC
3FF8
7FF8
F87C
F03C
F03C
E03C
F03C
F03C
F878
7FF8
3FF0
0FC0
ENDCHAR
STARTCHAR 1EDF
ENCODING 7903
SWIDTH 640 0
DWIDTH 12 0
BBX 11 16 1 0
BITMAP
0C00
1F00
0300
0760
0660
00E0
1FC0
7FC0
FFC0
F1E0
E1E0
E1E0
F1E0
FFC0
7F80
1F00
ENDCHAR
STARTCHAR 1EE0
ENCODING 7904
SWIDTH 853 0
DWIDTH 16 0
BBX 14 17 1 0
BITMAP
0E60
1FEC
19CC
000C
0FFC
3FF8
7FF8
F87C
F03C
F03C
E03C
F03C
F03C
F878
7FF8
3FF0
0FC0
ENDCHAR
STARTCHAR 1EE1
ENCODING 7905
SWIDTH 640 0
DWIDTH 12 0
BBX 11 14 1 0
BITMAP
1900
3F40
2660
00E0
1FE0
7FC0
FFC0
F1E0
E1E0
E1E0
F1E0
FFC0
7F80
1F00
ENDCHAR
STARTCHAR 1EE2
ENCODING 7906
SWIDTH 853 0
DWIDTH 16 0
BBX 14 20 1 -4
BITMAP
000C
000C
000C
0FFC
3FF8
7FF8
F87C
F03C
F03C
E03C
F03C
F03C
F878
7FF8
3FF0
0FC0
0000
0300
0700
0300
ENDCHAR
STARTCHAR 1EE3
ENCODING 7907
SWIDTH 640 0
DWIDTH 12 0
BBX 11 17 1 -4
BITMAP
0040
0060
00E0
1FE0
7FC0
FFC0
F1E0
E1E0
E1E0
F1E0
FFC0
7F80
1F00
0000
0C00
0E00
0C00
ENDCHAR
STARTCHAR 1EE4
ENCODING 7908
SWIDTH 800 0
DWIDTH 15 0
BBX 13 17 1 -4
BITMAP
F078
F078
F078
F078
F078
F078
F078
F078
F070
78F0
7FF0
3FE0
1F80
0000
0700
0700
0700
ENDCHAR
STARTCHAR 1EE5
ENCODING 7909
SWIDTH 693 0
DWIDTH 13 0
BBX 11 14 1 -4
BITMAP
F1E0
F1E0
F1E0
F1E0
F1E0
F1E0
F1E0
FFE0
7FE0
3DE0
0000
0E00
0E00
0E00
ENDCHAR
STARTCHAR 1EE6
ENCODING 7910
SWIDTH 800 0
DWIDTH 15 0
BBX 13 19 1 0
BITMAP
0700
0780
0180
0180
0300
0000
F078
F078
F078
F078
F078
F078
F078
F078
F070
78F0
7FF0
3FE0
1F80
ENDCHAR
STARTCHAR 1EE7
ENCODING 7911
SWIDTH 693 0
DWIDTH 13 0
BBX 11 16 1 0
BITMAP
0E00
0F00
0300
0300
0200
0000
F1E0
F1E0
F1E0
F1E0
F1E0
F1E0
F1E0
FFE0
7FE0
3DE0
ENDCHAR
STARTCHAR 1EE8
ENCODING 7912
SWIDTH 800 0
DWIDTH 15 0
BBX 15 17 1 0
BITMAP
01C0
0384
070E
000E
F07C
F07C
F078
F078
F078
F078
F078
F078
F070
78F0
7FF0
3FE0
1F80
ENDCHAR
STARTCHAR 1EE9
ENCODING 7913
SWIDTH 693 0
DWIDTH 13 0
BBX 13 14 1 0
BITMAP
0380
0710
0E38
0038
F1F0
F1E0
F1E0
F1E0
F1E0
F1E0
F1E0
FFE0
7FE0
3DE0
ENDCHAR
STARTCHAR 1EEA
ENCODING 7914
SWIDTH 800 0
DWIDTH 15 0
BBX 15 17 1 0
BITMAP
1C00
0E04
070E
000E
F07C
F07C
F078
F078
F078
F078
F078
F078
F070
78F0
7FF0
3FE0
1F80
ENDCHAR
STARTCHAR 1EEB
ENCODING 7915
SWIDTH 693 0
DWIDTH 13 0
BBX 13 14 1 0
BITMAP
3800
1C10
0E38
0038
F1F0
F1E0
F1E0
F1E0
F1E0
F1E0
F1E0
FFE0
7FE0
3DE0
ENDCHAR
STARTCHAR 1EEC
ENCODING 7916
SWIDTH 800 0
DWIDTH 15 0
BBX 15 19 1 0
BITMAP
0700
0780
0180
018C
030E
000E
F07C
F07C
F078
F078
F078
F078
F078
F078
F070
78F0
7FF0
3FE0
1F80
ENDCHAR
STARTCHAR 1EED
ENCODING 7917
SWIDTH 693 0
DWIDTH 13 0
BBX 13 16 1 0
BITMAP
0E00
0F00
0300
0310
0238
0038
F1F0
F1E0
F1E0
F1E0
F1E0
F1E0
F1E0
FFE0
7FE0
3DE0
ENDCHAR
STARTCHAR 1EEE
ENCODING 7918
SWIDTH 800 0
DWIDTH 15 0
BBX 15 17 1 0
BITMAP
0CC0
1FC4
138E
000E
F07C
F07C
F078
F078
F078
F078
F078
F078
F070
78F0
7FF0
3FE0
1F80
ENDCHAR
STARTCHAR 1EEF
ENCODING 7919
SWIDTH 693 0
DWIDTH 13 0
BBX 13 14 1 0
BITMAP
1D80
3F90
2738
0038
F1F0
F1E0
F1E0
F1E0
F1E0
F1E0
F1E0
FFE0
7FE0
3DE0
ENDCHAR
STARTCHAR 1EF0
ENCODING 7920
SWIDTH 800 0
DWIDTH 15 0
BBX 15 20 1 -4
BITMAP
0004
000E
000E
F07C
F07C
F078
F078
F078
F078
F078
F078
F070
78F0
7FF0
3FE0
1F80
0000
0700
0700
0700
ENDCHAR
STARTCHAR 1EF1
ENCODING 7921
SWIDTH 693 0
DWIDTH 13 0
BBX 13 17 1 -4
BITMAP
0010
0038
0038
F1F0
F1E0
F1E0
F1E0
F1E0
F1E0
F1E0
FFE0
7FE0
3DE0
0000
0E00
0E00
0E00
ENDCHAR
STARTCHAR 1EF2
ENCODING 7922
SWIDTH 693 0
DWIDTH 13 0
BBX 13 17 0 0
BITMAP
1C00
0E00
0700
0000
F078
7070
78F0
3CE0
3DE0
1FC0
0F80
0F80
0700
0700
0700
0700
0700
ENDCHAR
STARTCHAR 1EF3
ENCODING 7923
SWIDTH 640 0
DWIDTH 12 0
BBX 12 18 0 -4
BITMAP
3800
1C00
0E00
0000
F0F0
F0E0
71E0
79C0
39C0
3FC0
1F80
1F80
1F00
0F00
0E00
7E00
FC00
7800
ENDCHAR
STARTCHAR 1EF4
ENCODING 7924
SWIDTH 693 0
DWIDTH 13 0
BBX 13 17 0 -4
BITMAP
F078
7070
78F0
3CE0
3DE0
1FC0
0F80
0F80
0700
0700
0700
0700
0700
0000
0700
0700
0700
ENDCHAR
STARTCHAR 1EF5
ENCODING 7925
SWIDTH 640 0
DWIDTH 12 0
BBX 12 14 0 -4
BITMAP
F0F0
F0E0
71E0
79C0
39C0
3FC0
1F80
1F80
1F00
0F00
0E00
7EC0
FCE0
78C0
ENDCHAR
STARTCHAR 1EF6
ENCODING 7926
SWIDTH 693 0
DWIDTH 13 0
BBX 13 19 0 0
BITMAP
0700
0780
0180
0180
0100
0000
F078
7070
78F0
3CE0
3DE0
1FC0
0F80
0F80
0700
0700
0700
0700
0700
ENDCHAR
STARTCHAR 1EF7
ENCODING 7927
SWIDTH 640 0
DWIDTH 12 0
BBX 12 20 0 -4
BITMAP
0E00
0F00
0300
0300
0200
0000
F0F0
F0E0
71E0
79C0
39C0
3FC0
1F80
1F80
1F00
0F00
0E00
7E00
FC00
7800
ENDCHAR
STARTCHAR 1EF8
ENCODING 7928
SWIDTH 693 0
DWIDTH 13 0
BBX 13 17 0 0
BITMAP
0EC0
1FC0
1380
0000
F078
7070
78F0
3CE0
3DE0
1FC0
0F80
0F80
0700
0700
0700
0700
0700
ENDCHAR
STARTCHAR 1EF9
ENCODING 7929
SWIDTH 640 0
DWIDTH 12 0
BBX 12 18 0 -4
BITMAP
1C80
3F80
3300
0000
F0F0
F0E0
71E0
79C0
39C0
3FC0
1F80
1F80
1F00
0F00
0E00
7E00
FC00
7800
ENDCHAR
STARTCHAR 2007
ENCODING 8199
SWIDTH 693 0
DWIDTH 13 0
BBX 0 0 0 0
BITMAP
ENDCHAR
STARTCHAR 2008
ENCODING 8200
SWIDTH 266 0
DWIDTH 5 0
BBX 0 0 0 0
BITMAP
ENDCHAR
STARTCHAR 2009
ENCODING 8201
SWIDTH 160 0
DWIDTH 3 0
BBX 0 0 0 0
BITMAP
ENDCHAR
STARTCHAR 200A
ENCODING 8202
SWIDTH 106 0
DWIDTH 2 0
BBX 0 0 0 0
BITMAP
ENDCHAR
STARTCHAR 200B
ENCODING 8203
SWIDTH 0 0
DWIDTH 0 0
BBX 0 0 0 0
BITMAP
ENDCHAR
STARTCHAR 2010
ENCODING 8208
SWIDTH 373 0
DWIDTH 7 0
BBX 5 3 1 4
BITMAP
F8
F8
F8
ENDCHAR
STARTCHAR 2012
ENCODING 8210
SWIDTH 693 0
DWIDTH 13 0
BBX 11 2 1 6
BITMAP
FFE0
FFE0
ENDCHAR
STARTCHAR 2013
ENCODING 8211
SWIDTH 480 0
DWIDTH 9 0
BBX 9 2 0 4
BITMAP
FF80
FF80
ENDCHAR
STARTCHAR 2014
ENCODING 8212
SWIDTH 1013 0
DWIDTH 19 0
BBX 19 2 0 4
BITMAP
FFFFE0
FFFFE0
ENDCHAR
STARTCHAR 2015
ENCODING 8213
SWIDTH 1013 0
DWIDTH 19 0
BBX 19 2 0 4
BITMAP
FFFFE0
FFFFE0
ENDCHAR
STARTCHAR 2018
ENCODING 8216
SWIDTH 266 0
DWIDTH 5 0
BBX 4 7 1 7
BITMAP
60
60
E0
E0
F0
F0
E0
ENDCHAR
STARTCHAR 2019
ENCODING 8217
SWIDTH 266 0
DWIDTH 5 0
BBX 4 7 1 7
BITMAP
E0
F0
F0
E0
E0
E0
C0
ENDCHAR
STARTCHAR 201A
ENCODING 8218
SWIDTH 266 0
DWIDTH 5 0
BBX 4 7 1 -3
BITMAP
E0
F0
F0
E0
E0
E0
C0
ENDCHAR
STARTCHAR 201C
ENCODING 8220
SWIDTH 533 0
DWIDTH 10 0
BBX 9 7 1 7
BITMAP
6300
6300
E700
E700
FF80
FF80
E700
ENDCHAR
STARTCHAR 201D
ENCODING 8221
SWIDTH 533 0
DWIDTH 10 0
BBX 9 7 1 7
BITMAP
E700
F780
FF80
E700
E700
E700
C600
ENDCHAR
STARTCHAR 201E
ENCODING 8222
SWIDTH 533 0
DWIDTH 10 0
BBX 9 7 1 -3
BITMAP
E700
F780
FF80
E700
E700
E700
C600
ENDCHAR
STARTCHAR 2020
ENCODING 8224
SWIDTH 586 0
DWIDTH 11 0
BBX 10 17 1 -4
BITMAP
1C00
1C00
1C00
1C00
FFC0
FFC0
FFC0
1C00
1C00
1C00
1C00
1C00
1C00
1C00
1C00
1C00
1C00
ENDCHAR
STARTCHAR 2021
ENCODING 8225
SWIDTH 586 0
DWIDTH 11 0
BBX 10 17 1 -4
BITMAP
1C00
1C00
1C00
1C00
FFC0
FFC0
FFC0
1C00
1C00
1C00
FFC0
FFC0
FFC0
1C00
1C00
1C00
1C00
ENDCHAR
STARTCHAR 2022
ENCODING 8226
SWIDTH 373 0
DWIDTH 7 0
BBX 5 5 1 3
BITMAP
70
F8
F8
F8
78
ENDCHAR
STARTCHAR 2026
ENCODING 8230
SWIDTH 853 0
DWIDTH 16 0
BBX 15 4 1 0
BITMAP
E79C
F7BE
F7BC
E31C
ENDCHAR
STARTCHAR 2030
ENCODING 8240
SWIDTH 1280 0
DWIDTH 24 0
BBX 24 13 0 0
BITMAP
3C1C00
7E3800
663000
E67000
66E000
7EC000
3DDE3C
03BF7E
033367
073367
0E3367
0C3F7E
1C1E3C
ENDCHAR
STARTCHAR 2032
ENCODING 8242
SWIDTH 266 0
DWIDTH 5 0
BBX 3 5 1 8
BITMAP
E0
E0
E0
E0
E0
ENDCHAR
STARTCHAR 2033
ENCODING 8243
SWIDTH 480 0
DWIDTH 9 0
BBX 7 5 1 8
BITMAP
EE
EE
EE
EE
EE
ENDCHAR
STARTCHAR 2039
ENCODING 8249
SWIDTH 373 0
DWIDTH 7 0
BBX 5 7 1 2
BITMAP
38
70
F0
E0
E0
70
38
ENDCHAR
STARTCHAR 203A
ENCODING 8250
SWIDTH 373 0
DWIDTH 7 0
BBX 5 7 1 2
BITMAP
E0
F0
70
38
78
70
E0
ENDCHAR
STARTCHAR 2044
ENCODING 8260
SWIDTH 213 0
DWIDTH 4 0
BBX 11 13 -4 0
BITMAP
0060
00E0
01C0
0180
0380
0700
0E00
0C00
1C00
3800
3000
7000
E000
ENDCHAR
STARTCHAR 2052
ENCODING 8274
SWIDTH 640 0
DWIDTH 12 0
BBX 10 13 1 0
BITMAP
E300
E700
E700
4600
0E00
0E00
0C00
1C00
1800
3880
3BC0
33C0
7180
ENDCHAR
STARTCHAR 2070
ENCODING 8304
SWIDTH 426 0
DWIDTH 8 0
BBX 8 8 0 6
BITMAP
3C
7E
E7
E7
E7
E7
7E
3C
ENDCHAR
STARTCHAR 2074
ENCODING 8308
SWIDTH 426 0
DWIDTH 8 0
BBX 8 7 0 7
BITMAP
1C
38
30
66
FF
FF
0E
ENDCHAR
STARTCHAR 2075
ENCODING 8309
SWIDTH 426 0
DWIDTH 8 0
BBX 6 8 1 6
BITMAP
FC
FC
C0
F8
FC
0C
FC
F8
ENDCHAR
STARTCHAR 2076
ENCODING 8310
SWIDTH 426 0
DWIDTH 8 0
BBX 8 8 0 6
BITMAP
1F
7E
60
FE
FF
E7
7E
3C
ENDCHAR
STARTCHAR 2077
ENCODING 8311
SWIDTH 426 0
DWIDTH 8 0
BBX 8 8 0 6
BITMAP
FF
FF
EE
0E
1C
1C
38
38
ENDCHAR
STARTCHAR 2078
ENCODING 8312
SWIDTH 426 0
DWIDTH 8 0
BBX 8 8 0 6
BITMAP
3C
7E
67
7E
7E
E7
7F
3C
ENDCHAR
STARTCHAR 2079
ENCODING 8313
SWIDTH 426 0
DWIDTH 8 0
BBX 8 8 0 6
BITMAP
3C
7E
E7
FF
7F
06
7E
78
ENDCHAR
STARTCHAR 2080
ENCODING 8320
SWIDTH 426 0
DWIDTH 8 0
BBX 8 8 0 -2
BITMAP
3C
7E
E7
E7
E7
E7
7E
3C
ENDCHAR
STARTCHAR 2081
ENCODING 8321
SWIDTH 426 0
DWIDTH 8 0
BBX 6 8 1 -2
BITMAP
F8
F8
38
38
38
38
FC
FC
ENDCHAR
STARTCHAR 2082
ENCODING 8322
SWIDTH 426 0
DWIDTH 8 0
BBX 7 8 0 -2
BITMAP
3C
FE
06
0E
1C
38
7E
7E
ENDCHAR
STARTCHAR 2083
ENCODING 8323
SWIDTH 426 0
DWIDTH 8 0
BBX 7 8 1 -2
BITMAP
FC
FC
18
38
3C
0E
FC
F8
ENDCHAR
STARTCHAR 2084
ENCODING 8324
SWIDTH 426 0
DWIDTH 8 0
BBX 8 8 0 -2
BITMAP
1C
18
38
70
66
FF
FF
0E
ENDCHAR
STARTCHAR 2085
ENCODING 8325
SWIDTH 426 0
DWIDTH 8 0
BBX 6 8 1 -2
BITMAP
FC
FC
C0
F8
FC
0C
FC
F8
ENDCHAR
STARTCHAR 2086
ENCODING 8326
SWIDTH 426 0
DWIDTH 8 0
BBX 8 8 0 -2
BITMAP
1F
7E
60
FE
FF
E7
7E
3C
ENDCHAR
STARTCHAR 2087
ENCODING 8327
SWIDTH 426 0
DWIDTH 8 0
BBX 8 8 0 -2
BITMAP
FF
FF
EE
0E
1C
1C
38
38
ENDCHAR
STARTCHAR 2088
ENCODING 8328
SWIDTH 426 0
DWIDTH 8 0
BBX 8 8 0 -2
BITMAP
3C
7E
66
7E
7E
E7
7F
3C
ENDCHAR
STARTCHAR 2089
ENCODING 8329
SWIDTH 426 0
DWIDTH 8 0
BBX 8 8 0 -2
BITMAP
3C
7E
E7
FF
7F
06
7E
78
ENDCHAR
STARTCHAR 20A1
ENCODING 8353
SWIDTH 746 0
DWIDTH 14 0
BBX 12 17 1 -2
BITMAP
0360
0360
0FE0
3FF0
7FF0
F860
F000
E000
E000
F000
F000
F860
7FF0
3FF0
3FC0
3600
3600
ENDCHAR
STARTCHAR 20A3
ENCODING 8355
SWIDTH 693 0
DWIDTH 13 0
BBX 12 13 1 0
BITMAP
7FF0
7FF0
7FF0
7800
7800
7800
7FE0
7FE0
7FE0
7800
FF80
FF80
7800
ENDCHAR
STARTCHAR 20A4
ENCODING 8356
SWIDTH 693 0
DWIDTH 13 0
BBX 11 13 1 0
BITMAP
07E0
1FE0
3FE0
3C00
FF80
FF80
7800
FF80
FF80
7800
FFE0
FFE0
FFE0
ENDCHAR
STARTCHAR 20A6
ENCODING 8358
SWIDTH 906 0
DWIDTH 17 0
BBX 16 13 1 0
BITMAP
783C
7C3C
7C3C
7E3C
FF3F
FFBF
7FFC
FBFF
F9FF
78FC
787C
783C
783C
ENDCHAR
STARTCHAR 20A7
ENCODING 8359
SWIDTH 1760 0
DWIDTH 33 0
BBX 31 13 1 0
BITMAP
FF800000
FFE3C000
FFF3C000
F0F3C0FC
F0F7F1FE
F0F7F3FC
F0F3C380
FFF3C3FC
FFE3C1FE
FF83C01E
F001F3FE
F001FBFE
F000F9F8
ENDCHAR
STARTCHAR 20A9
ENCODING 8361
SWIDTH 1280 0
DWIDTH 24 0
BBX 22 13 1 0
BITMAP
F0783C
F0783C
787C38
78FC78
F8FC7C
F9FE7C
3DCEF0
FDCEFC
FFCFFC
1F87E0
1F87E0
0F87C0
0F03C0
ENDCHAR
STARTCHAR 20AB
ENCODING 8363
SWIDTH 693 0
DWIDTH 13 0
BBX 12 17 1 -3
BITMAP
01E0
0FF0
0FF0
01E0
3FE0
7FE0
FFE0
F1E0
E1E0
E1E0
F1E0
FFE0
7FE0
3EE0
0000
FFE0
FFE0
ENDCHAR
STARTCHAR 20AC
ENCODING 8364
SWIDTH 853 0
DWIDTH 16 0
BBX 14 13 1 0
BITMAP
03F0
0FFC
1FFC
3E18
FFC0
FFC0
7800
FFC0
FFC0
3E18
1FFC
0FF8
03E0
ENDCHAR
STARTCHAR 20AD
ENCODING 8365
SWIDTH 800 0
DWIDTH 15 0
BBX 14 13 1 0
BITMAP
787C
7878
78F0
79E0
7BE0
7BC0
FFF8
FFF8
7BC0
79E0
78F0
78F8
787C
ENDCHAR
STARTCHAR 20AE
ENCODING 8366
SWIDTH 693 0
DWIDTH 13 0
BBX 12 13 1 0
BITMAP
FFF0
FFF0
FFF0
0F00
0FC0
0FC0
0F40
3FC0
2F80
1F00
3F00
2F00
0F00
ENDCHAR
STARTCHAR 20B1
ENCODING 8369
SWIDTH 906 0
DWIDTH 17 0
BBX 15 13 1 0
BITMAP
7FC0
7FF0
7FF0
F87E
F87E
7878
F87E
FFFE
7FF0
7FE0
7800
7800
7800
ENDCHAR
STARTCHAR 20B2
ENCODING 8370
SWIDTH 746 0
DWIDTH 14 0
BBX 12 17 1 -2
BITMAP
0300
0300
0FC0
3FF0
7FF0
F860
F000
E000
E070
F070
F070
F870
7FF0
3FF0
0FC0
0300
0300
ENDCHAR
STARTCHAR 20B4
ENCODING 8372
SWIDTH 853 0
DWIDTH 16 0
BBX 13 13 1 0
BITMAP
1F80
3FE0
3FF0
0070
FFF8
FFF8
0000
FFF8
FFF8
7810
3FF0
3FF0
0FE0
ENDCHAR
STARTCHAR 20B5
ENCODING 8373
SWIDTH 746 0
DWIDTH 14 0
BBX 12 17 1 -2
BITMAP
0300
0300
0FC0
3FF0
7FF0
F860
F000
F000
E000
E000
F000
F860
7FF0
3FF0
0FC0
0300
0300
ENDCHAR
STARTCHAR 20B8
ENCODING 8376
SWIDTH 746 0
DWIDTH 14 0
BBX 12 13 1 0
BITMAP
FFF0
FFF0
0000
FFF0
FFF0
0F00
0F00
0F00
0F00
0F00
0F00
0F00
0F00
ENDCHAR
STARTCHAR 20B9
ENCODING 8377
SWIDTH 746 0
DWIDTH 14 0
BBX 12 13 1 0
BITMAP
FFF0
FFF0
03C0
FFF0
FFF0
03C0
FFC0
FF80
FF00
0F00
0780
03C0
03C0
ENDCHAR
STARTCHAR 20BA
ENCODING 8378
SWIDTH 800 0
DWIDTH 15 0
BBX 13 13 1 0
BITMAP
7800
7980
7F80
7E80
7B80
FF00
FC78
F878
F878
78F0
7FF0
7FC0
7F00
ENDCHAR
STARTCHAR 20BC
ENCODING 8380
SWIDTH 906 0
DWIDTH 17 0
BBX 15 15 1 0
BITMAP
0380
0380
0FE0
1FF0
3FF8
7FFC
739C
F39E
F39E
F39E
F39E
F39E
F39E
F01E
F01E
ENDCHAR
STARTCHAR 20BD
ENCODING 8381
SWIDTH 800 0
DWIDTH 15 0
BBX 13 13 1 0
BITMAP
7FC0
7FF0
7FF8
7878
7878
7878
7FF8
7FF0
7FC0
7800
FF80
FF80
7800
ENDCHAR
STARTCHAR 2113
ENCODING 8467
SWIDTH 480 0
DWIDTH 9 0
BBX 8 13 0 0
BITMAP
0F
1F
19
1B
3B
36
3E
3C
70
F0
F3
3E
3C
ENDCHAR
STARTCHAR 2116
ENCODING 8470
SWIDTH 1226 0
DWIDTH 23 0
BBX 21 13 1 0
BITMAP
F078F0
F87BF8
F87B18
FC7B18
FE7BF8
FF78F0
FFF800
F7FBF8
F3FBF8
F1F800
F0F800
F0F800
F07800
ENDCHAR
STARTCHAR 2122
ENCODING 8482
SWIDTH 1066 0
DWIDTH 20 0
BBX 18 8 0 5
BITMAP
FF60C0
FF71C0
1871C0
187BC0
187FC0
186EC0
1864C0
1860C0
ENDCHAR
STARTCHAR 2126
ENCODING 8486
SWIDTH 906 0
DWIDTH 17 0
BBX 16 13 0 0
BITMAP
07E0
1FF8
3FFC
3C3E
781E
780E
780E
780E
381E
3C3C
FE7F
FE7F
FE7F
ENDCHAR
STARTCHAR 212A
ENCODING 8490
SWIDTH 746 0
DWIDTH 14 0
BBX 13 13 1 0
BITMAP
F078
F0F0
F1E0
F3C0
F780
FF00
FF00
FF80
FBC0
F3E0
F1E0
F0F0
F078
ENDCHAR
STARTCHAR 212B
ENCODING 8491
SWIDTH 800 0
DWIDTH 15 0
BBX 15 19 0 0
BITMAP
0380
06C0
04C0
06C0
0380
0000
0780
07C0
0FC0
0FE0
0EE0
1EF0
1CF0
3C78
3FF8
7FF8
7FFC
F03C
F01E
ENDCHAR
STARTCHAR 212E
ENCODING 8494
SWIDTH 853 0
DWIDTH 16 0
BBX 14 13 1 0
BITMAP
0FC0
3030
4008
C00C
C00C
C00C
FFF0
C000
C000
4000
4008
2030
1FC0
ENDCHAR
STARTCHAR 2153
ENCODING 8531
SWIDTH 1066 0
DWIDTH 20 0
BBX 18 13 1 0
BITMAP
F80C00
F81C00
383800
383000
387000
38FFC0
FCDFC0
FD8380
038780
0707C0
0600C0
0E1FC0
1C0F80
ENDCHAR
STARTCHAR 2154
ENCODING 8532
SWIDTH 1066 0
DWIDTH 20 0
BBX 19 13 0 0
BITMAP
3C0600
FE0E00
061C00
0E1800
1C3800
387FE0
7E6FE0
7EC1C0
01C3C0
0383E0
030060
070FE0
0E07C0
ENDCHAR
STARTCHAR 215B
ENCODING 8539
SWIDTH 1066 0
DWIDTH 20 0
BBX 18 13 1 0
BITMAP
F80C00
F81C00
383800
383000
387000
38EF80
FCDFC0
FD9CC0
038FC0
071FC0
0618C0
0E1FC0
1C0F80
ENDCHAR
STARTCHAR 215C
ENCODING 8540
SWIDTH 1066 0
DWIDTH 20 0
BBX 18 13 1 0
BITMAP
FC0C00
FC1C00
383800
3C3000
3C7000
0EEF80
FCDFC0
F99CC0
039FC0
070FC0
0618C0
0E1FC0
1C0F80
ENDCHAR
STARTCHAR 215D
ENCODING 8541
SWIDTH 1066 0
DWIDTH 20 0
BBX 18 13 1 0
BITMAP
FC0C00
FC1C00
C03800
F83000
FC7000
0CE700
FCCFC0
F99CC0
039FC0
071FC0
0618C0
0E1FC0
1C0F80
ENDCHAR
STARTCHAR 215E
ENCODING 8542
SWIDTH 1066 0
DWIDTH 20 0
BBX 19 13 0 0
BITMAP
FF0600
FF0E00
EE1C00
0E1800
1C3800
1C77C0
386FE0
38CE60
01C7E0
038FE0
030C60
070FE0
0E07C0
ENDCHAR
STARTCHAR 2190
ENCODING 8592
SWIDTH 586 0
DWIDTH 11 0
BBX 10 9 1 1
BITMAP
1C00
3800
3800
7000
FFC0
7FC0
7000
3800
1C00
ENDCHAR
STARTCHAR 2191
ENCODING 8593
SWIDTH 586 0
DWIDTH 11 0
BBX 9 9 1 1
BITMAP
0800
3E00
7F00
FF80
DD80
1C00
1C00
1C00
1C00
ENDCHAR
STARTCHAR 2192
ENCODING 8594
SWIDTH 586 0
DWIDTH 11 0
BBX 9 9 1 1
BITMAP
1C00
0E00
0F00
0700
FF80
FF80
0700
0E00
0E00
ENDCHAR
STARTCHAR 2193
ENCODING 8595
SWIDTH 586 0
DWIDTH 11 0
BBX 9 9 1 1
BITMAP
1C00
1C00
1C00
1C00
9C80
FF80
FF80
3F00
1C00
ENDCHAR
STARTCHAR 2194
ENCODING 8596
SWIDTH 906 0
DWIDTH 17 0
BBX 15 9 1 1
BITMAP
1C70
3878
7838
701C
FFFE
FFFC
703C
3838
3870
ENDCHAR
STARTCHAR 2195
ENCODING 8597
SWIDTH 586 0
DWIDTH 11 0
BBX 9 13 1 0
BITMAP
0800
3E00
7F00
FF80
DD80
1C00
1C00
1C00
DC80
FF80
FF80
3E00
0C00
ENDCHAR
STARTCHAR 2196
ENCODING 8598
SWIDTH 586 0
DWIDTH 11 0
BBX 9 9 1 1
BITMAP
0200
7F00
7E00
7C00
7E00
6F00
E780
4380
0100
ENDCHAR
STARTCHAR 2197
ENCODING 8599
SWIDTH 586 0
DWIDTH 11 0
BBX 8 9 2 1
BITMAP
20
7E
FE
1E
3F
7F
F3
E2
40
ENDCHAR
STARTCHAR 2198
ENCODING 8600
SWIDTH 586 0
DWIDTH 11 0
BBX 8 9 2 1
BITMAP
40
E2
F3
7B
3F
1F
3E
FE
70
ENDCHAR
STARTCHAR 2199
ENCODING 8601
SWIDTH 586 0
DWIDTH 11 0
BBX 8 8 2 2
BITMAP
86
CF
DE
FC
F8
F8
FE
1C
ENDCHAR
STARTCHAR 2202
ENCODING 8706
SWIDTH 693 0
DWIDTH 13 0
BBX 11 14 1 0
BITMAP
7E00
7F80
7FC0
03C0
01E0
1DE0
7FE0
FFE0
F1E0
E1E0
F1E0
FFC0
7F80
1F00
ENDCHAR
STARTCHAR 2205
ENCODING 8709
SWIDTH 586 0
DWIDTH 11 0
BBX 11 10 0 1
BITMAP
0020
0F60
3FC0
39C0
73C0
66C0
7CC0
39C0
3F80
CF00
ENDCHAR
STARTCHAR 2206
ENCODING 8710
SWIDTH 800 0
DWIDTH 15 0
BBX 15 13 0 0
BITMAP
0780
07C0
0FC0
0FE0
0EE0
1CF0
1C70
3C78
3878
7838
7FFC
FFFC
FFFE
ENDCHAR
STARTCHAR 220F
ENCODING 8719
SWIDTH 800 0
DWIDTH 15 0
BBX 13 17 1 -4
BITMAP
FFF8
FFF8
FFF8
F078
F078
F078
F078
F078
F078
F078
F078
F078
F078
F078
F078
F078
F078
ENDCHAR
STARTCHAR 2211
ENCODING 8721
SWIDTH 693 0
DWIDTH 13 0
BBX 11 17 1 -4
BITMAP
FFE0
FFE0
FFE0
7800
3C00
1E00
1F00
0F80
0780
0F80
1F00
1E00
3C00
7800
FFE0
FFE0
FFE0
ENDCHAR
STARTCHAR 2212
ENCODING 8722
SWIDTH 586 0
DWIDTH 11 0
BBX 9 3 1 5
BITMAP
FF80
FF80
FF80
ENDCHAR
STARTCHAR 2215
ENCODING 8725
SWIDTH 426 0
DWIDTH 8 0
BBX 10 18 -1 -2
BITMAP
03C0
0380
0380
0780
0700
0700
0E00
0E00
0E00
1C00
1C00
1C00
3800
3800
3800
7000
7000
F000
ENDCHAR
STARTCHAR 2219
ENCODING 8729
SWIDTH 320 0
DWIDTH 6 0
BBX 4 4 1 5
BITMAP
70
F0
F0
70
ENDCHAR
STARTCHAR 221A
ENCODING 8730
SWIDTH 853 0
DWIDTH 16 0
BBX 15 18 1 -4
BITMAP
001E
001C
001C
003C
0038
0038
F838
FC70
FC70
1C70
1CF0
1EE0
0EE0
0FE0
0FC0
07C0
07C0
0780
ENDCHAR
STARTCHAR 221E
ENCODING 8734
SWIDTH 960 0
DWIDTH 18 0
BBX 16 7 1 3
BITMAP
7E7E
FFFE
E7C7
C387
E7C7
FFFE
7E7E
ENDCHAR
STARTCHAR 222B
ENCODING 8747
SWIDTH 480 0
DWIDTH 9 0
BBX 9 18 0 -4
BITMAP
0F80
1F80
1F00
3C00
3C00
3C00
3C00
3C00
3C00
3C00
3C00
3C00
3C00
3C00
3C00
FC00
F800
F000
ENDCHAR
STARTCHAR 2248
ENCODING 8776
SWIDTH 586 0
DWIDTH 11 0
BBX 10 9 1 2
BITMAP
71C0
FF80
FF80
C700
0000
71C0
FF80
FF80
C700
ENDCHAR
STARTCHAR 2260
ENCODING 8800
SWIDTH 586 0
DWIDTH 11 0
BBX 9 11 1 1
BITMAP
0380
0700
FF80
FF80
FF80
1C00
FF80
FF80
FF80
7000
6000
ENDCHAR
STARTCHAR 2264
ENCODING 8804
SWIDTH 586 0
DWIDTH 11 0
BBX 9 12 1 1
BITMAP
0380
1F80
FF00
F800
FC00
7F80
0F80
0180
0000
FF80
FF80
FF80
ENDCHAR
STARTCHAR 2265
ENCODING 8805
SWIDTH 586 0
DWIDTH 11 0
BBX 9 13 1 0
BITMAP
8000
F000
FC00
7F80
0F80
0F80
7F80
FC00
E000
0000
FF80
FF80
FF80
ENDCHAR
STARTCHAR 25A0
ENCODING 9632
SWIDTH 586 0
DWIDTH 11 0
BBX 7 7 2 1
BITMAP
FE
FE
FE
FE
FE
FE
FE
ENDCHAR
STARTCHAR 25A1
ENCODING 9633
SWIDTH 586 0
DWIDTH 11 0
BBX 7 8 2 1
BITMAP
FE
FE
C6
C6
C6
C6
FE
FE
ENDCHAR
STARTCHAR 25B2
ENCODING 9650
SWIDTH 586 0
DWIDTH 11 0
BBX 7 8 2 1
BITMAP
10
10
38
38
7C
7C
FE
FE
ENDCHAR
STARTCHAR 25B3
ENCODING 9651
SWIDTH 586 0
DWIDTH 11 0
BBX 7 8 2 1
BITMAP
10
10
38
28
6C
44
C6
FE
ENDCHAR
STARTCHAR 25B6
ENCODING 9654
SWIDTH 586 0
DWIDTH 11 0
BBX 8 8 2 1
BITMAP
80
E0
F8
FE
FF
F8
E0
80
ENDCHAR
STARTCHAR 25B7
ENCODING 9655
SWIDTH 586 0
DWIDTH 11 0
BBX 8 8 2 1
BITMAP
80
E0
F8
CE
CF
F8
E0
80
ENDCHAR
STARTCHAR 25BC
ENCODING 9660
SWIDTH 586 0
DWIDTH 11 0
BBX 7 8 2 1
BITMAP
FE
FE
7C
7C
38
38
10
10
ENDCHAR
STARTCHAR 25BD
ENCODING 9661
SWIDTH 586 0
DWIDTH 11 0
BBX 7 8 2 1
BITMAP
FE
C6
44
6C
28
38
10
10
ENDCHAR
STARTCHAR 25C0
ENCODING 9664
SWIDTH 586 0
DWIDTH 11 0
BBX 7 8 2 1
BITMAP
02
0E
3E
FE
FE
3E
0E
02
ENDCHAR
STARTCHAR 25C1
ENCODING 9665
SWIDTH 586 0
DWIDTH 11 0
BBX 7 8 2 1
BITMAP
02
0E
3A
E2
E2
3A
0E
02
ENDCHAR
STARTCHAR 25C6
ENCODING 9670
SWIDTH 586 0
DWIDTH 11 0
BBX 9 10 1 0
BITMAP
0800
1C00
3E00
7F00
FF80
FF80
7F00
3E00
1C00
0800
ENDCHAR
STARTCHAR 25C7
ENCODING 9671
SWIDTH 586 0
DWIDTH 11 0
BBX 9 10 1 0
BITMAP
0800
1C00
3600
6300
C180
E180
7300
3E00
1C00
0800
ENDCHAR
STARTCHAR 25CA
ENCODING 9674
SWIDTH 480 0
DWIDTH 9 0
BBX 8 12 1 0
BITMAP
10
38
3C
6C
E6
C7
C6
6E
7C
38
18
10
ENDCHAR
STARTCHAR 27E8
ENCODING 10216
SWIDTH 373 0
DWIDTH 7 0
BBX 7 18 0 -4
BITMAP
1E
1C
1C
3C
38
38
78
70
70
F0
70
78
38
38
3C
1C
1C
1E
ENDCHAR
STARTCHAR 27E9
ENCODING 10217
SWIDTH 373 0
DWIDTH 7 0
BBX 6 18 1 -4
BITMAP
E0
E0
F0
70
70
78
38
38
3C
3C
38
38
78
70
70
F0
E0
E0
ENDCHAR
STARTCHAR A78B
ENCODING 42891
SWIDTH 320 0
DWIDTH 6 0
BBX 4 8 1 5
BITMAP
F0
F0
F0
F0
F0
E0
E0
E0
ENDCHAR
STARTCHAR A78C
ENCODING 42892
SWIDTH 320 0
DWIDTH 6 0
BBX 4 7 1 6
BITMAP
F0
F0
F0
E0
E0
E0
E0
ENDCHAR
STARTCHAR FB01
ENCODING 64257
SWIDTH 800 0
DWIDTH 15 0
BBX 14 15 0 0
BITMAP
001C
1F3C
3F3C
3E18
3800
FE3C
FE3C
FE3C
383C
383C
383C
383C
383C
383C
383C
ENDCHAR
STARTCHAR FB02
ENCODING 64258
SWIDTH 693 0
DWIDTH 13 0
BBX 12 14 0 0
BITMAP
1F70
3F70
3E70
3870
FE70
FE70
FE70
3870
3870
3870
3870
3870
3870
3870
ENDCHAR
ENDFONT
